<?xml version="1.0" encoding="UTF-8" standalone="no"?>
<!DOCTYPE svg PUBLIC "-//W3C//DTD SVG 1.1//EN"
 "http://www.w3.org/Graphics/SVG/1.1/DTD/svg11.dtd">
<!-- Generated by graphviz version 2.43.0 (0)
 -->
<!-- Title: QPID.h Pages: 1 -->
<svg width="753pt" height="252pt"
 viewBox="0.00 0.00 753.07 252.00" xmlns="http://www.w3.org/2000/svg" xmlns:xlink="http://www.w3.org/1999/xlink">
<g id="graph0" class="graph" transform="scale(1 1) rotate(0) translate(4 248)">
<title>QPID.h</title>
<polygon fill="white" stroke="transparent" points="-4,4 -4,-248 749.07,-248 749.07,4 -4,4"/>
<!-- Node1 -->
<g id="node1" class="node">
<title>Node1</title>
<g id="a_node1"><a xlink:title="Part of the QPID autonomous motor driver project.">
<polygon fill="#bfbfbf" stroke="black" points="273.77,-224.5 273.77,-243.5 323.77,-243.5 323.77,-224.5 273.77,-224.5"/>
<text text-anchor="middle" x="298.77" y="-231.5" font-family="Helvetica,sans-Serif" font-size="10.00">QPID.h</text>
</a>
</g>
</g>
<!-- Node2 -->
<g id="node2" class="node">
<title>Node2</title>
<g id="a_node2"><a xlink:title=" ">
<polygon fill="white" stroke="#bfbfbf" points="413.77,-0.5 413.77,-19.5 471.77,-19.5 471.77,-0.5 413.77,-0.5"/>
<text text-anchor="middle" x="442.77" y="-7.5" font-family="Helvetica,sans-Serif" font-size="10.00">Arduino.h</text>
</a>
</g>
</g>
<!-- Node1&#45;&gt;Node2 -->
<g id="edge1" class="edge">
<title>Node1&#45;&gt;Node2</title>
<path fill="none" stroke="midnightblue" d="M273.39,-233.15C208.37,-232.95 38.54,-228.48 3.77,-188 -2.02,-181.26 0.26,-176.17 3.77,-168 37.32,-89.91 78.72,-84.55 158.77,-56 242.7,-26.07 347.66,-16 403.52,-12.65"/>
<polygon fill="midnightblue" stroke="midnightblue" points="403.9,-16.13 413.69,-12.08 403.51,-9.14 403.9,-16.13"/>
</g>
<!-- Node3 -->
<g id="node3" class="node">
<title>Node3</title>
<g id="a_node3"><a xlink:title=" ">
<polygon fill="white" stroke="#bfbfbf" points="271.27,-112.5 271.27,-131.5 362.27,-131.5 362.27,-112.5 271.27,-112.5"/>
<text text-anchor="middle" x="316.77" y="-119.5" font-family="Helvetica,sans-Serif" font-size="10.00">ESP32Encoder.h</text>
</a>
</g>
</g>
<!-- Node1&#45;&gt;Node3 -->
<g id="edge2" class="edge">
<title>Node1&#45;&gt;Node3</title>
<path fill="none" stroke="midnightblue" d="M300.19,-224.37C303.09,-206.62 309.79,-165.67 313.73,-141.6"/>
<polygon fill="midnightblue" stroke="midnightblue" points="317.21,-142.03 315.37,-131.59 310.3,-140.89 317.21,-142.03"/>
</g>
<!-- Node4 -->
<g id="node4" class="node">
<title>Node4</title>
<g id="a_node4"><a xlink:title=" ">
<polygon fill="white" stroke="#bfbfbf" points="21.77,-168.5 21.77,-187.5 79.77,-187.5 79.77,-168.5 21.77,-168.5"/>
<text text-anchor="middle" x="50.77" y="-175.5" font-family="Helvetica,sans-Serif" font-size="10.00">PID_v1.h</text>
</a>
</g>
</g>
<!-- Node1&#45;&gt;Node4 -->
<g id="edge3" class="edge">
<title>Node1&#45;&gt;Node4</title>
<path fill="none" stroke="midnightblue" d="M273.52,-227.77C235.82,-219.93 162.33,-204.48 90,-188.24"/>
<polygon fill="midnightblue" stroke="midnightblue" points="90.33,-184.73 79.8,-185.94 88.79,-191.56 90.33,-184.73"/>
</g>
<!-- Node5 -->
<g id="node5" class="node">
<title>Node5</title>
<g id="a_node5"><a xlink:href="_q_p_i_d___object_8h.html" target="_top" xlink:title="Part of the QPID autonomous motor driver project.">
<polygon fill="white" stroke="black" points="331.27,-56.5 331.27,-75.5 414.27,-75.5 414.27,-56.5 331.27,-56.5"/>
<text text-anchor="middle" x="372.77" y="-63.5" font-family="Helvetica,sans-Serif" font-size="10.00">QPID_Object.h</text>
</a>
</g>
</g>
<!-- Node1&#45;&gt;Node5 -->
<g id="edge4" class="edge">
<title>Node1&#45;&gt;Node5</title>
<path fill="none" stroke="midnightblue" d="M294.29,-224.18C282.08,-199.63 250.01,-131.02 262.77,-112 275.94,-92.39 299.32,-81.32 321.16,-75.07"/>
<polygon fill="midnightblue" stroke="midnightblue" points="322.22,-78.41 331.04,-72.53 320.48,-71.63 322.22,-78.41"/>
</g>
<!-- Node6 -->
<g id="node6" class="node">
<title>Node6</title>
<g id="a_node6"><a xlink:href="_q_p_i_d___motor_driver_8h.html" target="_top" xlink:title="Part of the QPID autonomous motor driver project.">
<polygon fill="white" stroke="black" points="71.27,-112.5 71.27,-131.5 176.27,-131.5 176.27,-112.5 71.27,-112.5"/>
<text text-anchor="middle" x="123.77" y="-119.5" font-family="Helvetica,sans-Serif" font-size="10.00">QPID_MotorDriver.h</text>
</a>
</g>
</g>
<!-- Node1&#45;&gt;Node6 -->
<g id="edge6" class="edge">
<title>Node1&#45;&gt;Node6</title>
<path fill="none" stroke="midnightblue" d="M273.69,-233.02C210.31,-232.48 46.33,-227.25 12.77,-188 -8.94,-162.6 32.65,-144.69 70.96,-134.19"/>
<polygon fill="midnightblue" stroke="midnightblue" points="72.31,-137.45 81.1,-131.55 70.55,-130.68 72.31,-137.45"/>
</g>
<!-- Node7 -->
<g id="node7" class="node">
<title>Node7</title>
<g id="a_node7"><a xlink:href="_q_p_i_d___motor_driver___d_r_v8833_8h.html" target="_top" xlink:title="Part of the QPID autonomous motor driver project.">
<polygon fill="white" stroke="black" points="97.77,-168.5 97.77,-187.5 251.77,-187.5 251.77,-168.5 97.77,-168.5"/>
<text text-anchor="middle" x="174.77" y="-175.5" font-family="Helvetica,sans-Serif" font-size="10.00">QPID_MotorDriver_DRV8833.h</text>
</a>
</g>
</g>
<!-- Node1&#45;&gt;Node7 -->
<g id="edge9" class="edge">
<title>Node1&#45;&gt;Node7</title>
<path fill="none" stroke="midnightblue" d="M279.13,-224.44C258.81,-215.6 226.87,-201.69 203.68,-191.59"/>
<polygon fill="midnightblue" stroke="midnightblue" points="204.9,-188.3 194.33,-187.52 202.1,-194.72 204.9,-188.3"/>
</g>
<!-- Node8 -->
<g id="node8" class="node">
<title>Node8</title>
<g id="a_node8"><a xlink:href="_q_p_i_d___encoder_8h.html" target="_top" xlink:title="Part of the QPID autonomous motor driver project.">
<polygon fill="white" stroke="black" points="380.77,-112.5 380.77,-131.5 470.77,-131.5 470.77,-112.5 380.77,-112.5"/>
<text text-anchor="middle" x="425.77" y="-119.5" font-family="Helvetica,sans-Serif" font-size="10.00">QPID_Encoder.h</text>
</a>
</g>
</g>
<!-- Node1&#45;&gt;Node8 -->
<g id="edge12" class="edge">
<title>Node1&#45;&gt;Node8</title>
<path fill="none" stroke="midnightblue" d="M308.74,-224.37C330.16,-205.81 380.85,-161.91 407.95,-138.44"/>
<polygon fill="midnightblue" stroke="midnightblue" points="410.59,-140.78 415.85,-131.59 406,-135.49 410.59,-140.78"/>
</g>
<!-- Node9 -->
<g id="node9" class="node">
<title>Node9</title>
<g id="a_node9"><a xlink:href="_q_p_i_d___encoder___e_s_p32_8h.html" target="_top" xlink:title="Part of the QPID autonomous motor driver project.">
<polygon fill="white" stroke="black" points="384.27,-168.5 384.27,-187.5 511.27,-187.5 511.27,-168.5 384.27,-168.5"/>
<text text-anchor="middle" x="447.77" y="-175.5" font-family="Helvetica,sans-Serif" font-size="10.00">QPID_Encoder_ESP32.h</text>
</a>
</g>
</g>
<!-- Node1&#45;&gt;Node9 -->
<g id="edge15" class="edge">
<title>Node1&#45;&gt;Node9</title>
<path fill="none" stroke="midnightblue" d="M322.38,-224.44C347.23,-215.44 386.55,-201.19 414.53,-191.05"/>
<polygon fill="midnightblue" stroke="midnightblue" points="416.07,-194.21 424.27,-187.52 413.68,-187.63 416.07,-194.21"/>
</g>
<!-- Node11 -->
<g id="node11" class="node">
<title>Node11</title>
<g id="a_node11"><a xlink:href="_q_p_i_d___endstop_8h.html" target="_top" xlink:title="Part of the QPID autonomous motor driver project.">
<polygon fill="white" stroke="black" points="638.27,-112.5 638.27,-131.5 729.27,-131.5 729.27,-112.5 638.27,-112.5"/>
<text text-anchor="middle" x="683.77" y="-119.5" font-family="Helvetica,sans-Serif" font-size="10.00">QPID_Endstop.h</text>
</a>
</g>
</g>
<!-- Node1&#45;&gt;Node11 -->
<g id="edge21" class="edge">
<title>Node1&#45;&gt;Node11</title>
<path fill="none" stroke="midnightblue" d="M323.86,-233.33C397.66,-233.78 612.14,-231.26 663.77,-188 677.19,-176.76 681.77,-156.75 683.26,-141.89"/>
<polygon fill="midnightblue" stroke="midnightblue" points="686.76,-141.95 683.88,-131.76 679.77,-141.52 686.76,-141.95"/>
</g>
<!-- Node12 -->
<g id="node12" class="node">
<title>Node12</title>
<g id="a_node12"><a xlink:href="_q_p_i_d___endstop___digital_8h.html" target="_top" xlink:title="Part of the QPID autonomous motor driver project.">
<polygon fill="white" stroke="black" points="530.77,-168.5 530.77,-187.5 654.77,-187.5 654.77,-168.5 530.77,-168.5"/>
<text text-anchor="middle" x="592.77" y="-175.5" font-family="Helvetica,sans-Serif" font-size="10.00">QPID_Endstop_Digital.h</text>
</a>
</g>
</g>
<!-- Node1&#45;&gt;Node12 -->
<g id="edge24" class="edge">
<title>Node1&#45;&gt;Node12</title>
<path fill="none" stroke="midnightblue" d="M323.84,-228.4C370.63,-219.8 472.32,-201.12 536.38,-189.36"/>
<polygon fill="midnightblue" stroke="midnightblue" points="537.12,-192.78 546.32,-187.53 535.86,-185.9 537.12,-192.78"/>
</g>
<!-- Node5&#45;&gt;Node2 -->
<g id="edge5" class="edge">
<title>Node5&#45;&gt;Node2</title>
<path fill="none" stroke="midnightblue" d="M384.02,-56.32C394.57,-48.18 410.57,-35.84 423.22,-26.09"/>
<polygon fill="midnightblue" stroke="midnightblue" points="425.54,-28.71 431.32,-19.83 421.27,-23.17 425.54,-28.71"/>
</g>
<!-- Node6&#45;&gt;Node2 -->
<g id="edge7" class="edge">
<title>Node6&#45;&gt;Node2</title>
<path fill="none" stroke="midnightblue" d="M130.04,-112.16C140.73,-97.83 163.95,-69.75 190.77,-56 259.78,-20.64 351.79,-12.58 403.38,-11.03"/>
<polygon fill="midnightblue" stroke="midnightblue" points="403.53,-14.52 413.45,-10.79 403.37,-7.53 403.53,-14.52"/>
</g>
<!-- Node6&#45;&gt;Node5 -->
<g id="edge8" class="edge">
<title>Node6&#45;&gt;Node5</title>
<path fill="none" stroke="midnightblue" d="M163.23,-112.44C206.67,-103.02 276.56,-87.87 323.55,-77.68"/>
<polygon fill="midnightblue" stroke="midnightblue" points="324.47,-81.06 333.5,-75.52 322.99,-74.22 324.47,-81.06"/>
</g>
<!-- Node7&#45;&gt;Node2 -->
<g id="edge10" class="edge">
<title>Node7&#45;&gt;Node2</title>
<path fill="none" stroke="midnightblue" d="M183.35,-168.23C204.95,-146.55 264.09,-89.76 322.77,-56 348.37,-41.27 379.68,-29.72 403.9,-22.01"/>
<polygon fill="midnightblue" stroke="midnightblue" points="404.95,-25.35 413.47,-19.05 402.88,-18.66 404.95,-25.35"/>
</g>
<!-- Node7&#45;&gt;Node6 -->
<g id="edge11" class="edge">
<title>Node7&#45;&gt;Node6</title>
<path fill="none" stroke="midnightblue" d="M166.35,-168.08C158.92,-160.22 147.92,-148.57 138.96,-139.08"/>
<polygon fill="midnightblue" stroke="midnightblue" points="141.45,-136.62 132.04,-131.75 136.36,-141.42 141.45,-136.62"/>
</g>
<!-- Node8&#45;&gt;Node2 -->
<g id="edge13" class="edge">
<title>Node8&#45;&gt;Node2</title>
<path fill="none" stroke="midnightblue" d="M427.11,-112.37C429.85,-94.62 436.18,-53.67 439.9,-29.6"/>
<polygon fill="midnightblue" stroke="midnightblue" points="443.38,-30.01 441.45,-19.59 436.46,-28.94 443.38,-30.01"/>
</g>
<!-- Node8&#45;&gt;Node5 -->
<g id="edge14" class="edge">
<title>Node8&#45;&gt;Node5</title>
<path fill="none" stroke="midnightblue" d="M417.02,-112.08C409.3,-104.22 397.87,-92.57 388.56,-83.08"/>
<polygon fill="midnightblue" stroke="midnightblue" points="390.86,-80.44 381.36,-75.75 385.87,-85.34 390.86,-80.44"/>
</g>
<!-- Node9&#45;&gt;Node2 -->
<g id="edge16" class="edge">
<title>Node9&#45;&gt;Node2</title>
<path fill="none" stroke="midnightblue" d="M456.52,-168.29C464.34,-159.84 475.22,-146.25 479.77,-132 491.58,-95.03 469.47,-51.46 454.63,-28.01"/>
<polygon fill="midnightblue" stroke="midnightblue" points="457.46,-25.94 449.02,-19.53 451.62,-29.8 457.46,-25.94"/>
</g>
<!-- Node9&#45;&gt;Node3 -->
<g id="edge17" class="edge">
<title>Node9&#45;&gt;Node3</title>
<path fill="none" stroke="midnightblue" d="M427.02,-168.44C405.46,-159.56 371.51,-145.56 346.98,-135.45"/>
<polygon fill="midnightblue" stroke="midnightblue" points="348.01,-132.09 337.43,-131.52 345.34,-138.56 348.01,-132.09"/>
</g>
<!-- Node9&#45;&gt;Node8 -->
<g id="edge18" class="edge">
<title>Node9&#45;&gt;Node8</title>
<path fill="none" stroke="midnightblue" d="M444.14,-168.08C441.16,-160.77 436.85,-150.18 433.15,-141.1"/>
<polygon fill="midnightblue" stroke="midnightblue" points="436.35,-139.69 429.34,-131.75 429.87,-142.33 436.35,-139.69"/>
</g>
<!-- Node10 -->
<g id="node10" class="node">
<title>Node10</title>
<g id="a_node10"><a xlink:href="_q_p_i_d___interface_8h.html" target="_top" xlink:title="Part of the QPID autonomous motor driver project.">
<polygon fill="white" stroke="black" points="527.27,-112.5 527.27,-131.5 620.27,-131.5 620.27,-112.5 527.27,-112.5"/>
<text text-anchor="middle" x="573.77" y="-119.5" font-family="Helvetica,sans-Serif" font-size="10.00">QPID_Interface.h</text>
</a>
</g>
</g>
<!-- Node9&#45;&gt;Node10 -->
<g id="edge19" class="edge">
<title>Node9&#45;&gt;Node10</title>
<path fill="none" stroke="midnightblue" d="M467.74,-168.44C488.38,-159.6 520.84,-145.69 544.4,-135.59"/>
<polygon fill="midnightblue" stroke="midnightblue" points="546.09,-138.67 553.9,-131.52 543.33,-132.24 546.09,-138.67"/>
</g>
<!-- Node10&#45;&gt;Node2 -->
<g id="edge20" class="edge">
<title>Node10&#45;&gt;Node2</title>
<path fill="none" stroke="midnightblue" d="M566.86,-112.36C556.12,-99.27 534.42,-74.02 512.77,-56 498.7,-44.28 481.4,-33.14 467.52,-24.87"/>
<polygon fill="midnightblue" stroke="midnightblue" points="468.94,-21.65 458.54,-19.63 465.42,-27.69 468.94,-21.65"/>
</g>
<!-- Node11&#45;&gt;Node2 -->
<g id="edge22" class="edge">
<title>Node11&#45;&gt;Node2</title>
<path fill="none" stroke="midnightblue" d="M664.86,-112.37C622.63,-93.09 520.45,-46.45 470.79,-23.79"/>
<polygon fill="midnightblue" stroke="midnightblue" points="472.15,-20.56 461.6,-19.59 469.24,-26.93 472.15,-20.56"/>
</g>
<!-- Node11&#45;&gt;Node5 -->
<g id="edge23" class="edge">
<title>Node11&#45;&gt;Node5</title>
<path fill="none" stroke="midnightblue" d="M638.22,-113.09C581.28,-103.2 484.08,-86.33 424.43,-75.97"/>
<polygon fill="midnightblue" stroke="midnightblue" points="424.92,-72.5 414.47,-74.24 423.72,-79.4 424.92,-72.5"/>
</g>
<!-- Node12&#45;&gt;Node2 -->
<g id="edge25" class="edge">
<title>Node12&#45;&gt;Node2</title>
<path fill="none" stroke="midnightblue" d="M655.16,-170.91C705.32,-163.36 763.65,-146.91 738.77,-112 679.68,-29.05 548.29,-13.43 482.26,-11.01"/>
<polygon fill="midnightblue" stroke="midnightblue" points="481.96,-7.5 471.86,-10.72 481.76,-14.5 481.96,-7.5"/>
</g>
<!-- Node12&#45;&gt;Node10 -->
<g id="edge27" class="edge">
<title>Node12&#45;&gt;Node10</title>
<path fill="none" stroke="midnightblue" d="M589.64,-168.08C587.09,-160.85 583.42,-150.41 580.25,-141.4"/>
<polygon fill="midnightblue" stroke="midnightblue" points="583.47,-140.02 576.85,-131.75 576.87,-142.35 583.47,-140.02"/>
</g>
<!-- Node12&#45;&gt;Node11 -->
<g id="edge26" class="edge">
<title>Node12&#45;&gt;Node11</title>
<path fill="none" stroke="midnightblue" d="M607.39,-168.32C621.72,-159.82 643.79,-146.73 660.52,-136.8"/>
<polygon fill="midnightblue" stroke="midnightblue" points="662.38,-139.77 669.19,-131.65 658.8,-133.75 662.38,-139.77"/>
</g>
</g>
</svg>
