<?xml version="1.0" encoding="UTF-8" standalone="no"?>
<!DOCTYPE svg PUBLIC "-//W3C//DTD SVG 1.1//EN"
 "http://www.w3.org/Graphics/SVG/1.1/DTD/svg11.dtd">
<!-- Generated by graphviz version 2.43.0 (0)
 -->
<!-- Title: QPID_Endstop.cpp Pages: 1 -->
<svg width="171pt" height="196pt"
 viewBox="0.00 0.00 171.00 196.00" xmlns="http://www.w3.org/2000/svg" xmlns:xlink="http://www.w3.org/1999/xlink">
<g id="graph0" class="graph" transform="scale(1 1) rotate(0) translate(4 192)">
<title>QPID_Endstop.cpp</title>
<polygon fill="white" stroke="transparent" points="-4,4 -4,-192 167,-192 167,4 -4,4"/>
<!-- Node1 -->
<g id="node1" class="node">
<title>Node1</title>
<g id="a_node1"><a xlink:title=" ">
<polygon fill="#bfbfbf" stroke="black" points="0,-168.5 0,-187.5 101,-187.5 101,-168.5 0,-168.5"/>
<text text-anchor="middle" x="50.5" y="-175.5" font-family="Helvetica,sans-Serif" font-size="10.00">QPID_Endstop.cpp</text>
</a>
</g>
</g>
<!-- Node2 -->
<g id="node2" class="node">
<title>Node2</title>
<g id="a_node2"><a xlink:title=" ">
<polygon fill="white" stroke="#bfbfbf" points="22.5,-0.5 22.5,-19.5 80.5,-19.5 80.5,-0.5 22.5,-0.5"/>
<text text-anchor="middle" x="51.5" y="-7.5" font-family="Helvetica,sans-Serif" font-size="10.00">Arduino.h</text>
</a>
</g>
</g>
<!-- Node1&#45;&gt;Node2 -->
<g id="edge1" class="edge">
<title>Node1&#45;&gt;Node2</title>
<path fill="none" stroke="midnightblue" d="M45.88,-168.34C41.44,-159.49 35.05,-145.22 32.5,-132 25.49,-95.6 36.83,-52.68 44.79,-28.98"/>
<polygon fill="midnightblue" stroke="midnightblue" points="48.09,-30.14 48.13,-19.54 41.49,-27.8 48.09,-30.14"/>
</g>
<!-- Node3 -->
<g id="node3" class="node">
<title>Node3</title>
<g id="a_node3"><a xlink:href="_q_p_i_d___endstop_8h.html" target="_top" xlink:title="Part of the QPID autonomous motor driver project.">
<polygon fill="white" stroke="black" points="42,-112.5 42,-131.5 133,-131.5 133,-112.5 42,-112.5"/>
<text text-anchor="middle" x="87.5" y="-119.5" font-family="Helvetica,sans-Serif" font-size="10.00">QPID_Endstop.h</text>
</a>
</g>
</g>
<!-- Node1&#45;&gt;Node3 -->
<g id="edge2" class="edge">
<title>Node1&#45;&gt;Node3</title>
<path fill="none" stroke="midnightblue" d="M56.61,-168.08C61.78,-160.53 69.35,-149.49 75.69,-140.23"/>
<polygon fill="midnightblue" stroke="midnightblue" points="78.74,-141.98 81.5,-131.75 72.96,-138.02 78.74,-141.98"/>
</g>
<!-- Node3&#45;&gt;Node2 -->
<g id="edge3" class="edge">
<title>Node3&#45;&gt;Node2</title>
<path fill="none" stroke="midnightblue" d="M84.04,-112.44C80.46,-103.44 74.79,-88.83 70.5,-76 65.31,-60.49 60.16,-42.65 56.53,-29.59"/>
<polygon fill="midnightblue" stroke="midnightblue" points="59.89,-28.62 53.87,-19.9 53.14,-30.47 59.89,-28.62"/>
</g>
<!-- Node4 -->
<g id="node4" class="node">
<title>Node4</title>
<g id="a_node4"><a xlink:href="_q_p_i_d___object_8h.html" target="_top" xlink:title="Part of the QPID autonomous motor driver project.">
<polygon fill="white" stroke="black" points="80,-56.5 80,-75.5 163,-75.5 163,-56.5 80,-56.5"/>
<text text-anchor="middle" x="121.5" y="-63.5" font-family="Helvetica,sans-Serif" font-size="10.00">QPID_Object.h</text>
</a>
</g>
</g>
<!-- Node3&#45;&gt;Node4 -->
<g id="edge4" class="edge">
<title>Node3&#45;&gt;Node4</title>
<path fill="none" stroke="midnightblue" d="M93.11,-112.08C97.87,-104.53 104.82,-93.49 110.65,-84.23"/>
<polygon fill="midnightblue" stroke="midnightblue" points="113.62,-86.08 115.99,-75.75 107.7,-82.35 113.62,-86.08"/>
</g>
<!-- Node4&#45;&gt;Node2 -->
<g id="edge5" class="edge">
<title>Node4&#45;&gt;Node2</title>
<path fill="none" stroke="midnightblue" d="M110.25,-56.32C99.7,-48.18 83.7,-35.84 71.06,-26.09"/>
<polygon fill="midnightblue" stroke="midnightblue" points="73.01,-23.17 62.95,-19.83 68.73,-28.71 73.01,-23.17"/>
</g>
</g>
</svg>
