<?xml version="1.0" encoding="UTF-8" standalone="no"?>
<!DOCTYPE svg PUBLIC "-//W3C//DTD SVG 1.1//EN"
 "http://www.w3.org/Graphics/SVG/1.1/DTD/svg11.dtd">
<!-- Generated by graphviz version 2.43.0 (0)
 -->
<!-- Title: QPIDfirmware.ino Pages: 1 -->
<!--zoomable 308 -->
<svg id="main" version="1.1" xmlns="http://www.w3.org/2000/svg" xmlns:xlink="http://www.w3.org/1999/xlink" xml:space="preserve" onload="init(evt)">
<style type="text/css"><![CDATA[
.edge:hover path { stroke: red; }
.edge:hover polygon { stroke: red; fill: red; }
]]></style>
<script type="text/javascript"><![CDATA[
var edges = document.getElementsByTagName('g');
if (edges && edges.length) {
  for (var i=0;i<edges.length;i++) {
    if (edges[i].id.substr(0,4)=='edge') {
      edges[i].setAttribute('class','edge');
    }
  }
}
]]></script>
        <defs>
                <circle id="rim" cx="0" cy="0" r="7"/>
                <circle id="rim2" cx="0" cy="0" r="3.5"/>
                <g id="zoomPlus">
                        <use xlink:href="#rim" fill="#404040">
                                <set attributeName="fill" to="#808080" begin="zoomplus.mouseover" end="zoomplus.mouseout"/>
                        </use>
                        <path d="M-4,0h8M0,-4v8" fill="none" stroke="white" stroke-width="1.5" pointer-events="none"/>
                </g>
                <g id="zoomMin">
                        <use xlink:href="#rim" fill="#404040">
                                <set attributeName="fill" to="#808080" begin="zoomminus.mouseover" end="zoomminus.mouseout"/>
                        </use>
                        <path d="M-4,0h8" fill="none" stroke="white" stroke-width="1.5" pointer-events="none"/>
                </g>
                <g id="dirArrow">
                        <path fill="none" stroke="white" stroke-width="1.5" d="M0,-3.0v7 M-2.5,-0.5L0,-3.0L2.5,-0.5"/>
                </g>
               <g id="resetDef">
                       <use xlink:href="#rim2" fill="#404040">
                               <set attributeName="fill" to="#808080" begin="reset.mouseover" end="reset.mouseout"/>
                       </use>
               </g>
        </defs>

<script type="text/javascript">
var viewWidth = 892;
var viewHeight = 308;
var sectionId = 'dynsection-0';
</script>
<script xlink:href="svgpan.js"/>
<svg id="graph" class="graph">
<g id="viewport">
<title>QPIDfirmware.ino</title>
<polygon fill="white" stroke="transparent" points="-4,4 -4,-304 888.34,-304 888.34,4 -4,4"/>
<!-- Node1 -->
<g id="node1" class="node">
<title>Node1</title>
<g id="a_node1"><a xlink:title=" ">
<polygon fill="#bfbfbf" stroke="black" points="257.5,-280.5 257.5,-299.5 352.5,-299.5 352.5,-280.5 257.5,-280.5"/>
<text text-anchor="middle" x="305" y="-287.5" font-family="Helvetica,sans-Serif" font-size="10.00">QPIDfirmware.ino</text>
</a>
</g>
</g>
<!-- Node2 -->
<g id="node2" class="node">
<title>Node2</title>
<g id="a_node2"><a xlink:href="_q_p_i_d_8h.html" target="_top" xlink:title="Part of the QPID autonomous motor driver project.">
<polygon fill="white" stroke="black" points="375,-224.5 375,-243.5 425,-243.5 425,-224.5 375,-224.5"/>
<text text-anchor="middle" x="400" y="-231.5" font-family="Helvetica,sans-Serif" font-size="10.00">QPID.h</text>
</a>
</g>
</g>
<!-- Node1&#45;&gt;Node2 -->
<g id="edge1" class="edge">
<title>Node1&#45;&gt;Node2</title>
<path fill="none" stroke="midnightblue" d="M320.26,-280.32C335.22,-271.82 358.25,-258.73 375.73,-248.8"/>
<polygon fill="midnightblue" stroke="midnightblue" points="377.81,-251.64 384.77,-243.65 374.35,-245.55 377.81,-251.64"/>
</g>
<!-- Node3 -->
<g id="node3" class="node">
<title>Node3</title>
<g id="a_node3"><a xlink:title=" ">
<polygon fill="white" stroke="#bfbfbf" points="502,-0.5 502,-19.5 560,-19.5 560,-0.5 502,-0.5"/>
<text text-anchor="middle" x="531" y="-7.5" font-family="Helvetica,sans-Serif" font-size="10.00">Arduino.h</text>
</a>
</g>
</g>
<!-- Node1&#45;&gt;Node3 -->
<g id="edge29" class="edge">
<title>Node1&#45;&gt;Node3</title>
<path fill="none" stroke="midnightblue" d="M257.34,-281.94C171.56,-267.89 0,-233.04 0,-179 0,-179 0,-179 0,-121 0,-20.6 368.58,-11.14 491.58,-10.78"/>
<polygon fill="midnightblue" stroke="midnightblue" points="491.7,-14.28 501.69,-10.77 491.69,-7.28 491.7,-14.28"/>
</g>
<!-- Node7 -->
<g id="node7" class="node">
<title>Node7</title>
<g id="a_node7"><a xlink:href="_q_p_i_d___motor_driver_8h.html" target="_top" xlink:title="Part of the QPID autonomous motor driver project.">
<polygon fill="white" stroke="black" points="195.5,-112.5 195.5,-131.5 300.5,-131.5 300.5,-112.5 195.5,-112.5"/>
<text text-anchor="middle" x="248" y="-119.5" font-family="Helvetica,sans-Serif" font-size="10.00">QPID_MotorDriver.h</text>
</a>
</g>
</g>
<!-- Node1&#45;&gt;Node7 -->
<g id="edge33" class="edge">
<title>Node1&#45;&gt;Node7</title>
<path fill="none" stroke="midnightblue" d="M298.82,-280.35C287.18,-263.52 262.28,-224.81 252,-188 247.77,-172.84 246.95,-154.95 247.09,-141.77"/>
<polygon fill="midnightblue" stroke="midnightblue" points="250.6,-141.7 247.4,-131.6 243.6,-141.49 250.6,-141.7"/>
</g>
<!-- Node8 -->
<g id="node8" class="node">
<title>Node8</title>
<g id="a_node8"><a xlink:href="_q_p_i_d___motor_driver___d_r_v8833_8h.html" target="_top" xlink:title="Part of the QPID autonomous motor driver project.">
<polygon fill="white" stroke="black" points="28,-168.5 28,-187.5 182,-187.5 182,-168.5 28,-168.5"/>
<text text-anchor="middle" x="105" y="-175.5" font-family="Helvetica,sans-Serif" font-size="10.00">QPID_MotorDriver_DRV8833.h</text>
</a>
</g>
</g>
<!-- Node1&#45;&gt;Node8 -->
<g id="edge32" class="edge">
<title>Node1&#45;&gt;Node8</title>
<path fill="none" stroke="midnightblue" d="M279.57,-280.38C256.98,-272.29 223.4,-259.18 196,-244 169.29,-229.2 141.06,-208.06 123.25,-193.95"/>
<polygon fill="midnightblue" stroke="midnightblue" points="125.39,-191.17 115.4,-187.64 121,-196.63 125.39,-191.17"/>
</g>
<!-- Node10 -->
<g id="node10" class="node">
<title>Node10</title>
<g id="a_node10"><a xlink:href="_q_p_i_d___encoder___e_s_p32_8h.html" target="_top" xlink:title="Part of the QPID autonomous motor driver project.">
<polygon fill="white" stroke="black" points="542.5,-168.5 542.5,-187.5 669.5,-187.5 669.5,-168.5 542.5,-168.5"/>
<text text-anchor="middle" x="606" y="-175.5" font-family="Helvetica,sans-Serif" font-size="10.00">QPID_Encoder_ESP32.h</text>
</a>
</g>
</g>
<!-- Node1&#45;&gt;Node10 -->
<g id="edge30" class="edge">
<title>Node1&#45;&gt;Node10</title>
<path fill="none" stroke="midnightblue" d="M330.28,-280.4C356.34,-271.48 398.11,-257.04 434,-244 483.15,-226.14 539.84,-204.52 574.28,-191.27"/>
<polygon fill="midnightblue" stroke="midnightblue" points="575.73,-194.46 583.8,-187.6 573.21,-187.93 575.73,-194.46"/>
</g>
<!-- Node13 -->
<g id="node13" class="node">
<title>Node13</title>
<g id="a_node13"><a xlink:href="_q_p_i_d___endstop___digital_8h.html" target="_top" xlink:title="Part of the QPID autonomous motor driver project.">
<polygon fill="white" stroke="black" points="688,-168.5 688,-187.5 812,-187.5 812,-168.5 688,-168.5"/>
<text text-anchor="middle" x="750" y="-175.5" font-family="Helvetica,sans-Serif" font-size="10.00">QPID_Endstop_Digital.h</text>
</a>
</g>
</g>
<!-- Node1&#45;&gt;Node13 -->
<g id="edge31" class="edge">
<title>Node1&#45;&gt;Node13</title>
<path fill="none" stroke="midnightblue" d="M339.55,-280.46C419.48,-260.7 617.08,-211.86 705.72,-189.94"/>
<polygon fill="midnightblue" stroke="midnightblue" points="706.61,-193.33 715.47,-187.53 704.93,-186.54 706.61,-193.33"/>
</g>
<!-- Node2&#45;&gt;Node3 -->
<g id="edge2" class="edge">
<title>Node2&#45;&gt;Node3</title>
<path fill="none" stroke="midnightblue" d="M396.14,-224.25C392.44,-215.33 387.11,-201.01 385,-188 381.68,-167.51 388.11,-116.09 390,-112 410.72,-67.15 462.8,-38.3 497.53,-23.37"/>
<polygon fill="midnightblue" stroke="midnightblue" points="498.92,-26.58 506.82,-19.52 496.25,-20.11 498.92,-26.58"/>
</g>
<!-- Node4 -->
<g id="node4" class="node">
<title>Node4</title>
<g id="a_node4"><a xlink:title=" ">
<polygon fill="white" stroke="#bfbfbf" points="411.5,-112.5 411.5,-131.5 502.5,-131.5 502.5,-112.5 411.5,-112.5"/>
<text text-anchor="middle" x="457" y="-119.5" font-family="Helvetica,sans-Serif" font-size="10.00">ESP32Encoder.h</text>
</a>
</g>
</g>
<!-- Node2&#45;&gt;Node4 -->
<g id="edge3" class="edge">
<title>Node2&#45;&gt;Node4</title>
<path fill="none" stroke="midnightblue" d="M404.47,-224.37C413.8,-206.38 435.47,-164.55 447.87,-140.63"/>
<polygon fill="midnightblue" stroke="midnightblue" points="451.05,-142.08 452.55,-131.59 444.84,-138.86 451.05,-142.08"/>
</g>
<!-- Node5 -->
<g id="node5" class="node">
<title>Node5</title>
<g id="a_node5"><a xlink:title=" ">
<polygon fill="white" stroke="#bfbfbf" points="276,-168.5 276,-187.5 334,-187.5 334,-168.5 276,-168.5"/>
<text text-anchor="middle" x="305" y="-175.5" font-family="Helvetica,sans-Serif" font-size="10.00">PID_v1.h</text>
</a>
</g>
</g>
<!-- Node2&#45;&gt;Node5 -->
<g id="edge4" class="edge">
<title>Node2&#45;&gt;Node5</title>
<path fill="none" stroke="midnightblue" d="M384.74,-224.32C369.78,-215.82 346.75,-202.73 329.27,-192.8"/>
<polygon fill="midnightblue" stroke="midnightblue" points="330.65,-189.55 320.23,-187.65 327.19,-195.64 330.65,-189.55"/>
</g>
<!-- Node6 -->
<g id="node6" class="node">
<title>Node6</title>
<g id="a_node6"><a xlink:href="_q_p_i_d___object_8h.html" target="_top" xlink:title="Part of the QPID autonomous motor driver project.">
<polygon fill="white" stroke="black" points="454.5,-56.5 454.5,-75.5 537.5,-75.5 537.5,-56.5 454.5,-56.5"/>
<text text-anchor="middle" x="496" y="-63.5" font-family="Helvetica,sans-Serif" font-size="10.00">QPID_Object.h</text>
</a>
</g>
</g>
<!-- Node2&#45;&gt;Node6 -->
<g id="edge5" class="edge">
<title>Node2&#45;&gt;Node6</title>
<path fill="none" stroke="midnightblue" d="M397.26,-224.2C391.21,-202.95 378.97,-147.9 402,-112 412.05,-96.34 429.19,-86 446.1,-79.24"/>
<polygon fill="midnightblue" stroke="midnightblue" points="447.77,-82.35 455.98,-75.65 445.38,-75.77 447.77,-82.35"/>
</g>
<!-- Node2&#45;&gt;Node7 -->
<g id="edge7" class="edge">
<title>Node2&#45;&gt;Node7</title>
<path fill="none" stroke="midnightblue" d="M374.77,-231.3C344.92,-227.94 295.68,-217.91 267,-188 255.19,-175.68 250.66,-156.43 248.96,-142.07"/>
<polygon fill="midnightblue" stroke="midnightblue" points="252.42,-141.51 248.11,-131.83 245.45,-142.08 252.42,-141.51"/>
</g>
<!-- Node2&#45;&gt;Node8 -->
<g id="edge10" class="edge">
<title>Node2&#45;&gt;Node8</title>
<path fill="none" stroke="midnightblue" d="M374.85,-228.4C327.9,-219.8 225.86,-201.12 161.58,-189.36"/>
<polygon fill="midnightblue" stroke="midnightblue" points="162.07,-185.89 151.61,-187.53 160.81,-192.77 162.07,-185.89"/>
</g>
<!-- Node9 -->
<g id="node9" class="node">
<title>Node9</title>
<g id="a_node9"><a xlink:href="_q_p_i_d___encoder_8h.html" target="_top" xlink:title="Part of the QPID autonomous motor driver project.">
<polygon fill="white" stroke="black" points="521,-112.5 521,-131.5 611,-131.5 611,-112.5 521,-112.5"/>
<text text-anchor="middle" x="566" y="-119.5" font-family="Helvetica,sans-Serif" font-size="10.00">QPID_Encoder.h</text>
</a>
</g>
</g>
<!-- Node2&#45;&gt;Node9 -->
<g id="edge13" class="edge">
<title>Node2&#45;&gt;Node9</title>
<path fill="none" stroke="midnightblue" d="M413.03,-224.37C441.51,-205.49 509.58,-160.38 544.52,-137.24"/>
<polygon fill="midnightblue" stroke="midnightblue" points="546.63,-140.03 553.03,-131.59 542.77,-134.2 546.63,-140.03"/>
</g>
<!-- Node2&#45;&gt;Node10 -->
<g id="edge16" class="edge">
<title>Node2&#45;&gt;Node10</title>
<path fill="none" stroke="midnightblue" d="M425.26,-226.38C459.7,-217.35 521.87,-201.05 563.54,-190.13"/>
<polygon fill="midnightblue" stroke="midnightblue" points="564.62,-193.47 573.4,-187.55 562.84,-186.7 564.62,-193.47"/>
</g>
<!-- Node12 -->
<g id="node12" class="node">
<title>Node12</title>
<g id="a_node12"><a xlink:href="_q_p_i_d___endstop_8h.html" target="_top" xlink:title="Part of the QPID autonomous motor driver project.">
<polygon fill="white" stroke="black" points="629.5,-112.5 629.5,-131.5 720.5,-131.5 720.5,-112.5 629.5,-112.5"/>
<text text-anchor="middle" x="675" y="-119.5" font-family="Helvetica,sans-Serif" font-size="10.00">QPID_Endstop.h</text>
</a>
</g>
</g>
<!-- Node2&#45;&gt;Node12 -->
<g id="edge22" class="edge">
<title>Node2&#45;&gt;Node12</title>
<path fill="none" stroke="midnightblue" d="M420.14,-224.38C440.13,-215.67 471.53,-201.61 498,-188 513.93,-179.81 516.59,-175.19 533,-168 565.1,-153.93 603.01,-142.15 631.58,-134.17"/>
<polygon fill="midnightblue" stroke="midnightblue" points="632.55,-137.53 641.27,-131.51 630.7,-130.78 632.55,-137.53"/>
</g>
<!-- Node2&#45;&gt;Node13 -->
<g id="edge25" class="edge">
<title>Node2&#45;&gt;Node13</title>
<path fill="none" stroke="midnightblue" d="M425.17,-229.12C478.87,-220.83 606.16,-201.19 684.5,-189.11"/>
<polygon fill="midnightblue" stroke="midnightblue" points="685.4,-192.51 694.75,-187.52 684.33,-185.59 685.4,-192.51"/>
</g>
<!-- Node6&#45;&gt;Node3 -->
<g id="edge6" class="edge">
<title>Node6&#45;&gt;Node3</title>
<path fill="none" stroke="midnightblue" d="M501.78,-56.08C506.67,-48.53 513.83,-37.49 519.83,-28.23"/>
<polygon fill="midnightblue" stroke="midnightblue" points="522.83,-30.05 525.33,-19.75 516.95,-26.24 522.83,-30.05"/>
</g>
<!-- Node7&#45;&gt;Node3 -->
<g id="edge8" class="edge">
<title>Node7&#45;&gt;Node3</title>
<path fill="none" stroke="midnightblue" d="M256.32,-112.35C270.36,-98.29 300.24,-70.59 331,-56 383.47,-31.12 450.31,-19.67 491.88,-14.64"/>
<polygon fill="midnightblue" stroke="midnightblue" points="492.34,-18.11 501.88,-13.5 491.54,-11.16 492.34,-18.11"/>
</g>
<!-- Node7&#45;&gt;Node6 -->
<g id="edge9" class="edge">
<title>Node7&#45;&gt;Node6</title>
<path fill="none" stroke="midnightblue" d="M287.3,-112.44C330.56,-103.02 400.17,-87.87 446.97,-77.68"/>
<polygon fill="midnightblue" stroke="midnightblue" points="447.86,-81.06 456.89,-75.52 446.37,-74.22 447.86,-81.06"/>
</g>
<!-- Node8&#45;&gt;Node3 -->
<g id="edge11" class="edge">
<title>Node8&#45;&gt;Node3</title>
<path fill="none" stroke="midnightblue" d="M114.48,-168.31C129.12,-155.15 158.44,-129.81 186,-112 232.08,-82.23 244.1,-73.78 296,-56 362.68,-33.16 444.2,-20.83 491.6,-15.11"/>
<polygon fill="midnightblue" stroke="midnightblue" points="492.22,-18.56 501.74,-13.92 491.41,-11.61 492.22,-18.56"/>
</g>
<!-- Node8&#45;&gt;Node7 -->
<g id="edge12" class="edge">
<title>Node8&#45;&gt;Node7</title>
<path fill="none" stroke="midnightblue" d="M127.66,-168.44C151.4,-159.48 188.91,-145.31 215.74,-135.18"/>
<polygon fill="midnightblue" stroke="midnightblue" points="217.33,-138.32 225.45,-131.52 214.86,-131.77 217.33,-138.32"/>
</g>
<!-- Node9&#45;&gt;Node3 -->
<g id="edge14" class="edge">
<title>Node9&#45;&gt;Node3</title>
<path fill="none" stroke="midnightblue" d="M563.35,-112.15C559.58,-99.62 552.41,-76.01 546,-56 543.17,-47.17 539.93,-37.39 537.18,-29.22"/>
<polygon fill="midnightblue" stroke="midnightblue" points="540.45,-27.96 533.94,-19.61 533.82,-30.2 540.45,-27.96"/>
</g>
<!-- Node9&#45;&gt;Node6 -->
<g id="edge15" class="edge">
<title>Node9&#45;&gt;Node6</title>
<path fill="none" stroke="midnightblue" d="M554.75,-112.32C544.2,-104.18 528.2,-91.84 515.56,-82.09"/>
<polygon fill="midnightblue" stroke="midnightblue" points="517.51,-79.17 507.45,-75.83 513.23,-84.71 517.51,-79.17"/>
</g>
<!-- Node10&#45;&gt;Node3 -->
<g id="edge17" class="edge">
<title>Node10&#45;&gt;Node3</title>
<path fill="none" stroke="midnightblue" d="M663.64,-168.42C704.44,-159.59 748.82,-142.66 730,-112 695.16,-55.25 617.39,-29.17 570.05,-18.16"/>
<polygon fill="midnightblue" stroke="midnightblue" points="570.67,-14.72 560.15,-15.98 569.16,-21.55 570.67,-14.72"/>
</g>
<!-- Node10&#45;&gt;Node4 -->
<g id="edge18" class="edge">
<title>Node10&#45;&gt;Node4</title>
<path fill="none" stroke="midnightblue" d="M582.39,-168.44C557.54,-159.44 518.23,-145.19 490.25,-135.05"/>
<polygon fill="midnightblue" stroke="midnightblue" points="491.09,-131.63 480.5,-131.52 488.71,-138.21 491.09,-131.63"/>
</g>
<!-- Node10&#45;&gt;Node9 -->
<g id="edge19" class="edge">
<title>Node10&#45;&gt;Node9</title>
<path fill="none" stroke="midnightblue" d="M599.39,-168.08C593.74,-160.46 585.46,-149.26 578.55,-139.94"/>
<polygon fill="midnightblue" stroke="midnightblue" points="581.25,-137.7 572.48,-131.75 575.62,-141.87 581.25,-137.7"/>
</g>
<!-- Node11 -->
<g id="node11" class="node">
<title>Node11</title>
<g id="a_node11"><a xlink:href="_q_p_i_d___interface_8h.html" target="_top" xlink:title="Part of the QPID autonomous motor driver project.">
<polygon fill="white" stroke="black" points="777.5,-112.5 777.5,-131.5 870.5,-131.5 870.5,-112.5 777.5,-112.5"/>
<text text-anchor="middle" x="824" y="-119.5" font-family="Helvetica,sans-Serif" font-size="10.00">QPID_Interface.h</text>
</a>
</g>
</g>
<!-- Node10&#45;&gt;Node11 -->
<g id="edge20" class="edge">
<title>Node10&#45;&gt;Node11</title>
<path fill="none" stroke="midnightblue" d="M640.54,-168.44C678.25,-159.1 738.74,-144.12 779.86,-133.93"/>
<polygon fill="midnightblue" stroke="midnightblue" points="780.75,-137.32 789.62,-131.52 779.07,-130.52 780.75,-137.32"/>
</g>
<!-- Node11&#45;&gt;Node3 -->
<g id="edge21" class="edge">
<title>Node11&#45;&gt;Node3</title>
<path fill="none" stroke="midnightblue" d="M818.46,-112.2C808.98,-97.92 788.2,-69.91 763,-56 701.43,-22.01 618.29,-13.36 570.07,-11.36"/>
<polygon fill="midnightblue" stroke="midnightblue" points="570.16,-7.86 560.05,-11.02 569.92,-14.86 570.16,-7.86"/>
</g>
<!-- Node12&#45;&gt;Node3 -->
<g id="edge23" class="edge">
<title>Node12&#45;&gt;Node3</title>
<path fill="none" stroke="midnightblue" d="M663.7,-112.37C639.2,-93.65 580.94,-49.15 550.42,-25.83"/>
<polygon fill="midnightblue" stroke="midnightblue" points="552.32,-22.88 542.25,-19.59 548.07,-28.44 552.32,-22.88"/>
</g>
<!-- Node12&#45;&gt;Node6 -->
<g id="edge24" class="edge">
<title>Node12&#45;&gt;Node6</title>
<path fill="none" stroke="midnightblue" d="M646.64,-112.44C616.26,-103.28 567.89,-88.69 534.18,-78.52"/>
<polygon fill="midnightblue" stroke="midnightblue" points="534.82,-75.05 524.23,-75.52 532.79,-81.76 534.82,-75.05"/>
</g>
<!-- Node13&#45;&gt;Node3 -->
<g id="edge26" class="edge">
<title>Node13&#45;&gt;Node3</title>
<path fill="none" stroke="midnightblue" d="M812.19,-168.95C853.77,-160.55 897.85,-143.94 880,-112 856.83,-70.54 833.41,-72.83 789,-56 714.81,-27.89 621.91,-17.2 570.26,-13.23"/>
<polygon fill="midnightblue" stroke="midnightblue" points="570.41,-9.74 560.19,-12.51 569.91,-16.72 570.41,-9.74"/>
</g>
<!-- Node13&#45;&gt;Node11 -->
<g id="edge28" class="edge">
<title>Node13&#45;&gt;Node11</title>
<path fill="none" stroke="midnightblue" d="M761.89,-168.32C773.15,-160.11 790.29,-147.6 803.71,-137.81"/>
<polygon fill="midnightblue" stroke="midnightblue" points="805.88,-140.56 811.89,-131.83 801.75,-134.9 805.88,-140.56"/>
</g>
<!-- Node13&#45;&gt;Node12 -->
<g id="edge27" class="edge">
<title>Node13&#45;&gt;Node12</title>
<path fill="none" stroke="midnightblue" d="M737.95,-168.32C726.54,-160.11 709.17,-147.6 695.57,-137.81"/>
<polygon fill="midnightblue" stroke="midnightblue" points="697.43,-134.84 687.27,-131.83 693.34,-140.52 697.43,-134.84"/>
</g>
</g>
</svg>
        <g id="navigator" transform="translate(0 0)" fill="#404254">
                <rect fill="#f2f5e9" fill-opacity="0.5" stroke="#606060" stroke-width=".5" x="0" y="0" width="60" height="60"/>
                <use id="zoomplus" xlink:href="#zoomPlus" x="17" y="9" onmousedown="handleZoom(evt,'in')"/>
                <use id="zoomminus" xlink:href="#zoomMin" x="42" y="9" onmousedown="handleZoom(evt,'out')"/>
                <use id="reset" xlink:href="#resetDef" x="30" y="36" onmousedown="handleReset()"/>
                <g id="arrowUp" xlink:href="#dirArrow" transform="translate(30 24)" onmousedown="handlePan(0,-1)">
                  <use xlink:href="#rim" fill="#404040">
                        <set attributeName="fill" to="#808080" begin="arrowUp.mouseover" end="arrowUp.mouseout"/>
                  </use>
                  <path fill="none" stroke="white" stroke-width="1.5" d="M0,-3.0v7 M-2.5,-0.5L0,-3.0L2.5,-0.5"/>
                </g>
                <g id="arrowRight" xlink:href="#dirArrow" transform="rotate(90) translate(36 -43)" onmousedown="handlePan(1,0)">
                  <use xlink:href="#rim" fill="#404040">
                        <set attributeName="fill" to="#808080" begin="arrowRight.mouseover" end="arrowRight.mouseout"/>
                  </use>
                  <path fill="none" stroke="white" stroke-width="1.5" d="M0,-3.0v7 M-2.5,-0.5L0,-3.0L2.5,-0.5"/>
                </g>
                <g id="arrowDown" xlink:href="#dirArrow" transform="rotate(180) translate(-30 -48)" onmousedown="handlePan(0,1)">
                  <use xlink:href="#rim" fill="#404040">
                        <set attributeName="fill" to="#808080" begin="arrowDown.mouseover" end="arrowDown.mouseout"/>
                  </use>
                  <path fill="none" stroke="white" stroke-width="1.5" d="M0,-3.0v7 M-2.5,-0.5L0,-3.0L2.5,-0.5"/>
                </g>
                <g id="arrowLeft" xlink:href="#dirArrow" transform="rotate(270) translate(-36 17)" onmousedown="handlePan(-1,0)">
                  <use xlink:href="#rim" fill="#404040">
                        <set attributeName="fill" to="#808080" begin="arrowLeft.mouseover" end="arrowLeft.mouseout"/>
                  </use>
                  <path fill="none" stroke="white" stroke-width="1.5" d="M0,-3.0v7 M-2.5,-0.5L0,-3.0L2.5,-0.5"/>
                </g>
        </g>
        <svg viewBox="0 0 15 15" width="100%" height="30px" preserveAspectRatio="xMaxYMin meet">
         <g id="arrow_out" transform="scale(0.3 0.3)">
          <a xlink:href="_q_p_i_dfirmware_8ino__incl_org.svg" target="_base">
           <rect id="button" ry="5" rx="5" y="6" x="6" height="38" width="38"
                fill="#f2f5e9" fill-opacity="0.5" stroke="#606060" stroke-width="1.0"/>
           <path id="arrow"
             d="M 11.500037,31.436501 C 11.940474,20.09759 22.043105,11.32322 32.158766,21.979434 L 37.068811,17.246167 C 37.068811,17.246167 37.088388,32 37.088388,32 L 22.160133,31.978069 C 22.160133,31.978069 26.997745,27.140456 26.997745,27.140456 C 18.528582,18.264221 13.291696,25.230495 11.500037,31.436501 z"
             style="fill:#404040;"/>
          </a>
         </g>
        </svg>
</svg>
