<?xml version="1.0" encoding="UTF-8" standalone="no"?>
<!DOCTYPE svg PUBLIC "-//W3C//DTD SVG 1.1//EN"
 "http://www.w3.org/Graphics/SVG/1.1/DTD/svg11.dtd">
<!-- Generated by graphviz version 2.43.0 (0)
 -->
<!-- Title: QPID_Interface.cpp Pages: 1 -->
<svg width="145pt" height="140pt"
 viewBox="0.00 0.00 144.50 140.00" xmlns="http://www.w3.org/2000/svg" xmlns:xlink="http://www.w3.org/1999/xlink">
<g id="graph0" class="graph" transform="scale(1 1) rotate(0) translate(4 136)">
<title>QPID_Interface.cpp</title>
<polygon fill="white" stroke="transparent" points="-4,4 -4,-136 140.5,-136 140.5,4 -4,4"/>
<!-- Node1 -->
<g id="node1" class="node">
<title>Node1</title>
<g id="a_node1"><a xlink:title=" ">
<polygon fill="#bfbfbf" stroke="black" points="0,-112.5 0,-131.5 104,-131.5 104,-112.5 0,-112.5"/>
<text text-anchor="middle" x="52" y="-119.5" font-family="Helvetica,sans-Serif" font-size="10.00">QPID_Interface.cpp</text>
</a>
</g>
</g>
<!-- Node2 -->
<g id="node2" class="node">
<title>Node2</title>
<g id="a_node2"><a xlink:title=" ">
<polygon fill="white" stroke="#bfbfbf" points="23,-0.5 23,-19.5 81,-19.5 81,-0.5 23,-0.5"/>
<text text-anchor="middle" x="52" y="-7.5" font-family="Helvetica,sans-Serif" font-size="10.00">Arduino.h</text>
</a>
</g>
</g>
<!-- Node1&#45;&gt;Node2 -->
<g id="edge1" class="edge">
<title>Node1&#45;&gt;Node2</title>
<path fill="none" stroke="midnightblue" d="M47.19,-112.26C40.95,-99.87 31.27,-76.42 35,-56 36.69,-46.76 40.17,-36.95 43.55,-28.85"/>
<polygon fill="midnightblue" stroke="midnightblue" points="46.76,-30.25 47.63,-19.69 40.37,-27.4 46.76,-30.25"/>
</g>
<!-- Node3 -->
<g id="node3" class="node">
<title>Node3</title>
<g id="a_node3"><a xlink:href="_q_p_i_d___interface_8h.html" target="_top" xlink:title="Part of the QPID autonomous motor driver project.">
<polygon fill="white" stroke="black" points="43.5,-56.5 43.5,-75.5 136.5,-75.5 136.5,-56.5 43.5,-56.5"/>
<text text-anchor="middle" x="90" y="-63.5" font-family="Helvetica,sans-Serif" font-size="10.00">QPID_Interface.h</text>
</a>
</g>
</g>
<!-- Node1&#45;&gt;Node3 -->
<g id="edge2" class="edge">
<title>Node1&#45;&gt;Node3</title>
<path fill="none" stroke="midnightblue" d="M58.27,-112.08C63.64,-104.46 71.52,-93.26 78.08,-83.94"/>
<polygon fill="midnightblue" stroke="midnightblue" points="80.95,-85.94 83.84,-75.75 75.22,-81.91 80.95,-85.94"/>
</g>
<!-- Node3&#45;&gt;Node2 -->
<g id="edge3" class="edge">
<title>Node3&#45;&gt;Node2</title>
<path fill="none" stroke="midnightblue" d="M83.73,-56.08C78.36,-48.46 70.48,-37.26 63.92,-27.94"/>
<polygon fill="midnightblue" stroke="midnightblue" points="66.78,-25.91 58.16,-19.75 61.05,-29.94 66.78,-25.91"/>
</g>
</g>
</svg>
