<?xml version="1.0" encoding="UTF-8" standalone="no"?>
<!DOCTYPE svg PUBLIC "-//W3C//DTD SVG 1.1//EN"
 "http://www.w3.org/Graphics/SVG/1.1/DTD/svg11.dtd">
<!-- Generated by graphviz version 2.43.0 (0)
 -->
<!-- Title: QPID_MotorDriver_DRV8833.h Pages: 1 -->
<svg width="195pt" height="196pt"
 viewBox="0.00 0.00 194.50 196.00" xmlns="http://www.w3.org/2000/svg" xmlns:xlink="http://www.w3.org/1999/xlink">
<g id="graph0" class="graph" transform="scale(1 1) rotate(0) translate(4 192)">
<title>QPID_MotorDriver_DRV8833.h</title>
<polygon fill="white" stroke="transparent" points="-4,4 -4,-192 190.5,-192 190.5,4 -4,4"/>
<!-- Node1 -->
<g id="node1" class="node">
<title>Node1</title>
<g id="a_node1"><a xlink:title="Part of the QPID autonomous motor driver project.">
<polygon fill="#bfbfbf" stroke="black" points="0,-168.5 0,-187.5 154,-187.5 154,-168.5 0,-168.5"/>
<text text-anchor="middle" x="77" y="-175.5" font-family="Helvetica,sans-Serif" font-size="10.00">QPID_MotorDriver_DRV8833.h</text>
</a>
</g>
</g>
<!-- Node2 -->
<g id="node2" class="node">
<title>Node2</title>
<g id="a_node2"><a xlink:title=" ">
<polygon fill="white" stroke="#bfbfbf" points="46,-0.5 46,-19.5 104,-19.5 104,-0.5 46,-0.5"/>
<text text-anchor="middle" x="75" y="-7.5" font-family="Helvetica,sans-Serif" font-size="10.00">Arduino.h</text>
</a>
</g>
</g>
<!-- Node1&#45;&gt;Node2 -->
<g id="edge1" class="edge">
<title>Node1&#45;&gt;Node2</title>
<path fill="none" stroke="midnightblue" d="M71.62,-168.44C66.44,-159.68 58.99,-145.47 56,-132 47.97,-95.82 59.68,-52.81 67.98,-29.05"/>
<polygon fill="midnightblue" stroke="midnightblue" points="71.29,-30.17 71.46,-19.58 64.72,-27.75 71.29,-30.17"/>
</g>
<!-- Node3 -->
<g id="node3" class="node">
<title>Node3</title>
<g id="a_node3"><a xlink:href="_q_p_i_d___motor_driver_8h.html" target="_top" xlink:title="Part of the QPID autonomous motor driver project.">
<polygon fill="white" stroke="black" points="65.5,-112.5 65.5,-131.5 170.5,-131.5 170.5,-112.5 65.5,-112.5"/>
<text text-anchor="middle" x="118" y="-119.5" font-family="Helvetica,sans-Serif" font-size="10.00">QPID_MotorDriver.h</text>
</a>
</g>
</g>
<!-- Node1&#45;&gt;Node3 -->
<g id="edge2" class="edge">
<title>Node1&#45;&gt;Node3</title>
<path fill="none" stroke="midnightblue" d="M83.77,-168.08C89.56,-160.46 98.06,-149.26 105.14,-139.94"/>
<polygon fill="midnightblue" stroke="midnightblue" points="108.1,-141.83 111.36,-131.75 102.52,-137.6 108.1,-141.83"/>
</g>
<!-- Node3&#45;&gt;Node2 -->
<g id="edge3" class="edge">
<title>Node3&#45;&gt;Node2</title>
<path fill="none" stroke="midnightblue" d="M112.66,-112.3C107.39,-103.42 99.35,-89.12 94,-76 87.76,-60.69 82.64,-42.59 79.3,-29.38"/>
<polygon fill="midnightblue" stroke="midnightblue" points="82.68,-28.49 76.92,-19.6 75.88,-30.15 82.68,-28.49"/>
</g>
<!-- Node4 -->
<g id="node4" class="node">
<title>Node4</title>
<g id="a_node4"><a xlink:href="_q_p_i_d___object_8h.html" target="_top" xlink:title="Part of the QPID autonomous motor driver project.">
<polygon fill="white" stroke="black" points="103.5,-56.5 103.5,-75.5 186.5,-75.5 186.5,-56.5 103.5,-56.5"/>
<text text-anchor="middle" x="145" y="-63.5" font-family="Helvetica,sans-Serif" font-size="10.00">QPID_Object.h</text>
</a>
</g>
</g>
<!-- Node3&#45;&gt;Node4 -->
<g id="edge4" class="edge">
<title>Node3&#45;&gt;Node4</title>
<path fill="none" stroke="midnightblue" d="M122.46,-112.08C126.15,-104.69 131.52,-93.95 136.09,-84.81"/>
<polygon fill="midnightblue" stroke="midnightblue" points="139.28,-86.26 140.62,-75.75 133.02,-83.13 139.28,-86.26"/>
</g>
<!-- Node4&#45;&gt;Node2 -->
<g id="edge5" class="edge">
<title>Node4&#45;&gt;Node2</title>
<path fill="none" stroke="midnightblue" d="M133.75,-56.32C123.2,-48.18 107.2,-35.84 94.56,-26.09"/>
<polygon fill="midnightblue" stroke="midnightblue" points="96.51,-23.17 86.45,-19.83 92.23,-28.71 96.51,-23.17"/>
</g>
</g>
</svg>
