<?xml version="1.0" encoding="UTF-8" standalone="no"?>
<!DOCTYPE svg PUBLIC "-//W3C//DTD SVG 1.1//EN"
 "http://www.w3.org/Graphics/SVG/1.1/DTD/svg11.dtd">
<!-- Generated by graphviz version 2.43.0 (0)
 -->
<!-- Title: QPID_Encoder.h Pages: 1 -->
<svg width="130pt" height="140pt"
 viewBox="0.00 0.00 129.50 140.00" xmlns="http://www.w3.org/2000/svg" xmlns:xlink="http://www.w3.org/1999/xlink">
<g id="graph0" class="graph" transform="scale(1 1) rotate(0) translate(4 136)">
<title>QPID_Encoder.h</title>
<polygon fill="white" stroke="transparent" points="-4,4 -4,-136 125.5,-136 125.5,4 -4,4"/>
<!-- Node1 -->
<g id="node1" class="node">
<title>Node1</title>
<g id="a_node1"><a xlink:title="Part of the QPID autonomous motor driver project.">
<polygon fill="#bfbfbf" stroke="black" points="0,-112.5 0,-131.5 90,-131.5 90,-112.5 0,-112.5"/>
<text text-anchor="middle" x="45" y="-119.5" font-family="Helvetica,sans-Serif" font-size="10.00">QPID_Encoder.h</text>
</a>
</g>
</g>
<!-- Node2 -->
<g id="node2" class="node">
<title>Node2</title>
<g id="a_node2"><a xlink:title=" ">
<polygon fill="white" stroke="#bfbfbf" points="16,-0.5 16,-19.5 74,-19.5 74,-0.5 16,-0.5"/>
<text text-anchor="middle" x="45" y="-7.5" font-family="Helvetica,sans-Serif" font-size="10.00">Arduino.h</text>
</a>
</g>
</g>
<!-- Node1&#45;&gt;Node2 -->
<g id="edge1" class="edge">
<title>Node1&#45;&gt;Node2</title>
<path fill="none" stroke="midnightblue" d="M40.89,-112.28C36.94,-103.38 31.26,-89.07 29,-76 26.23,-59.91 31.31,-41.91 36.47,-28.94"/>
<polygon fill="midnightblue" stroke="midnightblue" points="39.69,-30.31 40.47,-19.75 33.27,-27.52 39.69,-30.31"/>
</g>
<!-- Node3 -->
<g id="node3" class="node">
<title>Node3</title>
<g id="a_node3"><a xlink:href="_q_p_i_d___object_8h.html" target="_top" xlink:title="Part of the QPID autonomous motor driver project.">
<polygon fill="white" stroke="black" points="38.5,-56.5 38.5,-75.5 121.5,-75.5 121.5,-56.5 38.5,-56.5"/>
<text text-anchor="middle" x="80" y="-63.5" font-family="Helvetica,sans-Serif" font-size="10.00">QPID_Object.h</text>
</a>
</g>
</g>
<!-- Node1&#45;&gt;Node3 -->
<g id="edge2" class="edge">
<title>Node1&#45;&gt;Node3</title>
<path fill="none" stroke="midnightblue" d="M50.78,-112.08C55.67,-104.53 62.83,-93.49 68.83,-84.23"/>
<polygon fill="midnightblue" stroke="midnightblue" points="71.83,-86.05 74.33,-75.75 65.95,-82.24 71.83,-86.05"/>
</g>
<!-- Node3&#45;&gt;Node2 -->
<g id="edge3" class="edge">
<title>Node3&#45;&gt;Node2</title>
<path fill="none" stroke="midnightblue" d="M74.22,-56.08C69.33,-48.53 62.17,-37.49 56.17,-28.23"/>
<polygon fill="midnightblue" stroke="midnightblue" points="59.05,-26.24 50.67,-19.75 53.17,-30.05 59.05,-26.24"/>
</g>
</g>
</svg>
