<?xml version="1.0" encoding="UTF-8" standalone="no"?>
<!DOCTYPE svg PUBLIC "-//W3C//DTD SVG 1.1//EN"
 "http://www.w3.org/Graphics/SVG/1.1/DTD/svg11.dtd">
<!-- Generated by graphviz version 2.43.0 (0)
 -->
<!-- Title: QPID_Endstop.h Pages: 1 -->
<svg width="130pt" height="140pt"
 viewBox="0.00 0.00 130.00 140.00" xmlns="http://www.w3.org/2000/svg" xmlns:xlink="http://www.w3.org/1999/xlink">
<g id="graph0" class="graph" transform="scale(1 1) rotate(0) translate(4 136)">
<title>QPID_Endstop.h</title>
<polygon fill="white" stroke="transparent" points="-4,4 -4,-136 126,-136 126,4 -4,4"/>
<!-- Node1 -->
<g id="node1" class="node">
<title>Node1</title>
<g id="a_node1"><a xlink:title="Part of the QPID autonomous motor driver project.">
<polygon fill="#bfbfbf" stroke="black" points="0,-112.5 0,-131.5 91,-131.5 91,-112.5 0,-112.5"/>
<text text-anchor="middle" x="45.5" y="-119.5" font-family="Helvetica,sans-Serif" font-size="10.00">QPID_Endstop.h</text>
</a>
</g>
</g>
<!-- Node2 -->
<g id="node2" class="node">
<title>Node2</title>
<g id="a_node2"><a xlink:title=" ">
<polygon fill="white" stroke="#bfbfbf" points="16.5,-0.5 16.5,-19.5 74.5,-19.5 74.5,-0.5 16.5,-0.5"/>
<text text-anchor="middle" x="45.5" y="-7.5" font-family="Helvetica,sans-Serif" font-size="10.00">Arduino.h</text>
</a>
</g>
</g>
<!-- Node1&#45;&gt;Node2 -->
<g id="edge1" class="edge">
<title>Node1&#45;&gt;Node2</title>
<path fill="none" stroke="midnightblue" d="M41.39,-112.28C37.44,-103.38 31.76,-89.07 29.5,-76 26.73,-59.91 31.81,-41.91 36.97,-28.94"/>
<polygon fill="midnightblue" stroke="midnightblue" points="40.19,-30.31 40.97,-19.75 33.77,-27.52 40.19,-30.31"/>
</g>
<!-- Node3 -->
<g id="node3" class="node">
<title>Node3</title>
<g id="a_node3"><a xlink:href="_q_p_i_d___object_8h.html" target="_top" xlink:title="Part of the QPID autonomous motor driver project.">
<polygon fill="white" stroke="black" points="39,-56.5 39,-75.5 122,-75.5 122,-56.5 39,-56.5"/>
<text text-anchor="middle" x="80.5" y="-63.5" font-family="Helvetica,sans-Serif" font-size="10.00">QPID_Object.h</text>
</a>
</g>
</g>
<!-- Node1&#45;&gt;Node3 -->
<g id="edge2" class="edge">
<title>Node1&#45;&gt;Node3</title>
<path fill="none" stroke="midnightblue" d="M51.28,-112.08C56.17,-104.53 63.33,-93.49 69.33,-84.23"/>
<polygon fill="midnightblue" stroke="midnightblue" points="72.33,-86.05 74.83,-75.75 66.45,-82.24 72.33,-86.05"/>
</g>
<!-- Node3&#45;&gt;Node2 -->
<g id="edge3" class="edge">
<title>Node3&#45;&gt;Node2</title>
<path fill="none" stroke="midnightblue" d="M74.72,-56.08C69.83,-48.53 62.67,-37.49 56.67,-28.23"/>
<polygon fill="midnightblue" stroke="midnightblue" points="59.55,-26.24 51.17,-19.75 53.67,-30.05 59.55,-26.24"/>
</g>
</g>
</svg>
