<?xml version="1.0" encoding="UTF-8" standalone="no"?>
<!DOCTYPE svg PUBLIC "-//W3C//DTD SVG 1.1//EN"
 "http://www.w3.org/Graphics/SVG/1.1/DTD/svg11.dtd">
<!-- Generated by graphviz version 2.43.0 (0)
 -->
<!-- Title: QPID_Encoder_ESP32.cpp Pages: 1 -->
<svg width="321pt" height="252pt"
 viewBox="0.00 0.00 321.00 252.00" xmlns="http://www.w3.org/2000/svg" xmlns:xlink="http://www.w3.org/1999/xlink">
<g id="graph0" class="graph" transform="scale(1 1) rotate(0) translate(4 248)">
<title>QPID_Encoder_ESP32.cpp</title>
<polygon fill="white" stroke="transparent" points="-4,4 -4,-248 317,-248 317,4 -4,4"/>
<!-- Node1 -->
<g id="node1" class="node">
<title>Node1</title>
<g id="a_node1"><a xlink:title="Part of the QPID autonomous motor driver project.">
<polygon fill="#bfbfbf" stroke="black" points="0,-224.5 0,-243.5 137,-243.5 137,-224.5 0,-224.5"/>
<text text-anchor="middle" x="68.5" y="-231.5" font-family="Helvetica,sans-Serif" font-size="10.00">QPID_Encoder_ESP32.cpp</text>
</a>
</g>
</g>
<!-- Node2 -->
<g id="node2" class="node">
<title>Node2</title>
<g id="a_node2"><a xlink:title=" ">
<polygon fill="white" stroke="#bfbfbf" points="56.5,-0.5 56.5,-19.5 114.5,-19.5 114.5,-0.5 56.5,-0.5"/>
<text text-anchor="middle" x="85.5" y="-7.5" font-family="Helvetica,sans-Serif" font-size="10.00">Arduino.h</text>
</a>
</g>
</g>
<!-- Node1&#45;&gt;Node2 -->
<g id="edge1" class="edge">
<title>Node1&#45;&gt;Node2</title>
<path fill="none" stroke="midnightblue" d="M62.59,-224.32C51.5,-207.45 27.92,-168.66 19.5,-132 17.51,-123.34 18.79,-120.86 19.5,-112 21.51,-86.87 15.74,-77.74 28.5,-56 36.01,-43.22 48.64,-32.68 60.11,-25.03"/>
<polygon fill="midnightblue" stroke="midnightblue" points="62.31,-27.79 68.94,-19.52 58.6,-21.85 62.31,-27.79"/>
</g>
<!-- Node3 -->
<g id="node3" class="node">
<title>Node3</title>
<g id="a_node3"><a xlink:href="_q_p_i_d___encoder_8h.html" target="_top" xlink:title="Part of the QPID autonomous motor driver project.">
<polygon fill="white" stroke="black" points="28.5,-112.5 28.5,-131.5 118.5,-131.5 118.5,-112.5 28.5,-112.5"/>
<text text-anchor="middle" x="73.5" y="-119.5" font-family="Helvetica,sans-Serif" font-size="10.00">QPID_Encoder.h</text>
</a>
</g>
</g>
<!-- Node1&#45;&gt;Node3 -->
<g id="edge2" class="edge">
<title>Node1&#45;&gt;Node3</title>
<path fill="none" stroke="midnightblue" d="M68.89,-224.37C69.7,-206.62 71.56,-165.67 72.65,-141.6"/>
<polygon fill="midnightblue" stroke="midnightblue" points="76.15,-141.74 73.11,-131.59 69.16,-141.42 76.15,-141.74"/>
</g>
<!-- Node5 -->
<g id="node5" class="node">
<title>Node5</title>
<g id="a_node5"><a xlink:href="_q_p_i_d___encoder___e_s_p32_8h.html" target="_top" xlink:title="Part of the QPID autonomous motor driver project.">
<polygon fill="white" stroke="black" points="97,-168.5 97,-187.5 224,-187.5 224,-168.5 97,-168.5"/>
<text text-anchor="middle" x="160.5" y="-175.5" font-family="Helvetica,sans-Serif" font-size="10.00">QPID_Encoder_ESP32.h</text>
</a>
</g>
</g>
<!-- Node1&#45;&gt;Node5 -->
<g id="edge6" class="edge">
<title>Node1&#45;&gt;Node5</title>
<path fill="none" stroke="midnightblue" d="M83.28,-224.32C97.77,-215.82 120.07,-202.73 136.99,-192.8"/>
<polygon fill="midnightblue" stroke="midnightblue" points="138.9,-195.74 145.76,-187.65 135.36,-189.7 138.9,-195.74"/>
</g>
<!-- Node3&#45;&gt;Node2 -->
<g id="edge3" class="edge">
<title>Node3&#45;&gt;Node2</title>
<path fill="none" stroke="midnightblue" d="M61.66,-112.11C46.98,-99.92 24.97,-77.11 34.5,-56 40.12,-43.56 51.06,-33.17 61.38,-25.53"/>
<polygon fill="midnightblue" stroke="midnightblue" points="63.51,-28.31 69.77,-19.76 59.54,-22.54 63.51,-28.31"/>
</g>
<!-- Node4 -->
<g id="node4" class="node">
<title>Node4</title>
<g id="a_node4"><a xlink:href="_q_p_i_d___object_8h.html" target="_top" xlink:title="Part of the QPID autonomous motor driver project.">
<polygon fill="white" stroke="black" points="44,-56.5 44,-75.5 127,-75.5 127,-56.5 44,-56.5"/>
<text text-anchor="middle" x="85.5" y="-63.5" font-family="Helvetica,sans-Serif" font-size="10.00">QPID_Object.h</text>
</a>
</g>
</g>
<!-- Node3&#45;&gt;Node4 -->
<g id="edge4" class="edge">
<title>Node3&#45;&gt;Node4</title>
<path fill="none" stroke="midnightblue" d="M75.48,-112.08C77.07,-104.93 79.36,-94.64 81.35,-85.69"/>
<polygon fill="midnightblue" stroke="midnightblue" points="84.8,-86.27 83.56,-75.75 77.97,-84.75 84.8,-86.27"/>
</g>
<!-- Node4&#45;&gt;Node2 -->
<g id="edge5" class="edge">
<title>Node4&#45;&gt;Node2</title>
<path fill="none" stroke="midnightblue" d="M85.5,-56.08C85.5,-49.01 85.5,-38.86 85.5,-29.99"/>
<polygon fill="midnightblue" stroke="midnightblue" points="89,-29.75 85.5,-19.75 82,-29.75 89,-29.75"/>
</g>
<!-- Node5&#45;&gt;Node2 -->
<g id="edge7" class="edge">
<title>Node5&#45;&gt;Node2</title>
<path fill="none" stroke="midnightblue" d="M160.52,-168.45C160.19,-147.72 157.17,-93.77 135.5,-56 128.6,-43.97 117.34,-33.42 107.25,-25.56"/>
<polygon fill="midnightblue" stroke="midnightblue" points="109.31,-22.73 99.18,-19.62 105.16,-28.37 109.31,-22.73"/>
</g>
<!-- Node5&#45;&gt;Node3 -->
<g id="edge9" class="edge">
<title>Node5&#45;&gt;Node3</title>
<path fill="none" stroke="midnightblue" d="M146.52,-168.32C132.95,-159.9 112.12,-146.97 96.18,-137.07"/>
<polygon fill="midnightblue" stroke="midnightblue" points="97.79,-133.95 87.44,-131.65 94.09,-139.9 97.79,-133.95"/>
</g>
<!-- Node6 -->
<g id="node6" class="node">
<title>Node6</title>
<g id="a_node6"><a xlink:title=" ">
<polygon fill="white" stroke="#bfbfbf" points="184,-112.5 184,-131.5 275,-131.5 275,-112.5 184,-112.5"/>
<text text-anchor="middle" x="229.5" y="-119.5" font-family="Helvetica,sans-Serif" font-size="10.00">ESP32Encoder.h</text>
</a>
</g>
</g>
<!-- Node5&#45;&gt;Node6 -->
<g id="edge8" class="edge">
<title>Node5&#45;&gt;Node6</title>
<path fill="none" stroke="midnightblue" d="M171.59,-168.32C181.99,-160.18 197.76,-147.84 210.22,-138.09"/>
<polygon fill="midnightblue" stroke="midnightblue" points="212.49,-140.75 218.21,-131.83 208.18,-135.24 212.49,-140.75"/>
</g>
<!-- Node7 -->
<g id="node7" class="node">
<title>Node7</title>
<g id="a_node7"><a xlink:href="_q_p_i_d___interface_8h.html" target="_top" xlink:title="Part of the QPID autonomous motor driver project.">
<polygon fill="white" stroke="black" points="220,-56.5 220,-75.5 313,-75.5 313,-56.5 220,-56.5"/>
<text text-anchor="middle" x="266.5" y="-63.5" font-family="Helvetica,sans-Serif" font-size="10.00">QPID_Interface.h</text>
</a>
</g>
</g>
<!-- Node5&#45;&gt;Node7 -->
<g id="edge10" class="edge">
<title>Node5&#45;&gt;Node7</title>
<path fill="none" stroke="midnightblue" d="M224.12,-168.93C246.67,-162.66 269.82,-151.57 283.5,-132 293.38,-117.86 286.17,-98.37 278.32,-84.43"/>
<polygon fill="midnightblue" stroke="midnightblue" points="281.22,-82.46 272.99,-75.79 275.27,-86.14 281.22,-82.46"/>
</g>
<!-- Node7&#45;&gt;Node2 -->
<g id="edge11" class="edge">
<title>Node7&#45;&gt;Node2</title>
<path fill="none" stroke="midnightblue" d="M237.82,-56.44C206.97,-47.24 157.77,-32.56 123.67,-22.39"/>
<polygon fill="midnightblue" stroke="midnightblue" points="124.63,-19.02 114.05,-19.52 122.63,-25.73 124.63,-19.02"/>
</g>
</g>
</svg>
