<?xml version="1.0" encoding="UTF-8" standalone="no"?>
<!DOCTYPE svg PUBLIC "-//W3C//DTD SVG 1.1//EN"
 "http://www.w3.org/Graphics/SVG/1.1/DTD/svg11.dtd">
<!-- Generated by graphviz version 2.43.0 (0)
 -->
<!-- Title: QPID_Encoder_ESP32.h Pages: 1 -->
<svg width="318pt" height="196pt"
 viewBox="0.00 0.00 318.49 196.00" xmlns="http://www.w3.org/2000/svg" xmlns:xlink="http://www.w3.org/1999/xlink">
<g id="graph0" class="graph" transform="scale(1 1) rotate(0) translate(4 192)">
<title>QPID_Encoder_ESP32.h</title>
<polygon fill="white" stroke="transparent" points="-4,4 -4,-192 314.49,-192 314.49,4 -4,4"/>
<!-- Node1 -->
<g id="node1" class="node">
<title>Node1</title>
<g id="a_node1"><a xlink:title="Part of the QPID autonomous motor driver project.">
<polygon fill="#bfbfbf" stroke="black" points="48.49,-168.5 48.49,-187.5 175.49,-187.5 175.49,-168.5 48.49,-168.5"/>
<text text-anchor="middle" x="111.99" y="-175.5" font-family="Helvetica,sans-Serif" font-size="10.00">QPID_Encoder_ESP32.h</text>
</a>
</g>
</g>
<!-- Node2 -->
<g id="node2" class="node">
<title>Node2</title>
<g id="a_node2"><a xlink:title=" ">
<polygon fill="white" stroke="#bfbfbf" points="93.99,-0.5 93.99,-19.5 151.99,-19.5 151.99,-0.5 93.99,-0.5"/>
<text text-anchor="middle" x="122.99" y="-7.5" font-family="Helvetica,sans-Serif" font-size="10.00">Arduino.h</text>
</a>
</g>
</g>
<!-- Node1&#45;&gt;Node2 -->
<g id="edge1" class="edge">
<title>Node1&#45;&gt;Node2</title>
<path fill="none" stroke="midnightblue" d="M65.29,-168.48C29.67,-159.47 -11.09,-142.26 2.99,-112 22.07,-71.01 66.88,-40.71 96.01,-24.47"/>
<polygon fill="midnightblue" stroke="midnightblue" points="97.73,-27.52 104.87,-19.69 94.41,-21.36 97.73,-27.52"/>
</g>
<!-- Node3 -->
<g id="node3" class="node">
<title>Node3</title>
<g id="a_node3"><a xlink:title=" ">
<polygon fill="white" stroke="#bfbfbf" points="12.49,-112.5 12.49,-131.5 103.49,-131.5 103.49,-112.5 12.49,-112.5"/>
<text text-anchor="middle" x="57.99" y="-119.5" font-family="Helvetica,sans-Serif" font-size="10.00">ESP32Encoder.h</text>
</a>
</g>
</g>
<!-- Node1&#45;&gt;Node3 -->
<g id="edge2" class="edge">
<title>Node1&#45;&gt;Node3</title>
<path fill="none" stroke="midnightblue" d="M103.07,-168.08C95.21,-160.22 83.56,-148.57 74.07,-139.08"/>
<polygon fill="midnightblue" stroke="midnightblue" points="76.29,-136.35 66.74,-131.75 71.34,-141.3 76.29,-136.35"/>
</g>
<!-- Node4 -->
<g id="node4" class="node">
<title>Node4</title>
<g id="a_node4"><a xlink:href="_q_p_i_d___encoder_8h.html" target="_top" xlink:title="Part of the QPID autonomous motor driver project.">
<polygon fill="white" stroke="black" points="121.99,-112.5 121.99,-131.5 211.99,-131.5 211.99,-112.5 121.99,-112.5"/>
<text text-anchor="middle" x="166.99" y="-119.5" font-family="Helvetica,sans-Serif" font-size="10.00">QPID_Encoder.h</text>
</a>
</g>
</g>
<!-- Node1&#45;&gt;Node4 -->
<g id="edge3" class="edge">
<title>Node1&#45;&gt;Node4</title>
<path fill="none" stroke="midnightblue" d="M121.07,-168.08C129.16,-160.14 141.19,-148.34 150.9,-138.8"/>
<polygon fill="midnightblue" stroke="midnightblue" points="153.39,-141.25 158.08,-131.75 148.49,-136.26 153.39,-141.25"/>
</g>
<!-- Node6 -->
<g id="node6" class="node">
<title>Node6</title>
<g id="a_node6"><a xlink:href="_q_p_i_d___interface_8h.html" target="_top" xlink:title="Part of the QPID autonomous motor driver project.">
<polygon fill="white" stroke="black" points="217.49,-56.5 217.49,-75.5 310.49,-75.5 310.49,-56.5 217.49,-56.5"/>
<text text-anchor="middle" x="263.99" y="-63.5" font-family="Helvetica,sans-Serif" font-size="10.00">QPID_Interface.h</text>
</a>
</g>
</g>
<!-- Node1&#45;&gt;Node6 -->
<g id="edge7" class="edge">
<title>Node1&#45;&gt;Node6</title>
<path fill="none" stroke="midnightblue" d="M146.72,-168.43C169.65,-161.46 199.34,-149.83 220.99,-132 236.46,-119.26 248.42,-99.52 255.75,-85.13"/>
<polygon fill="midnightblue" stroke="midnightblue" points="259.07,-86.3 260.26,-75.78 252.77,-83.26 259.07,-86.3"/>
</g>
<!-- Node4&#45;&gt;Node2 -->
<g id="edge4" class="edge">
<title>Node4&#45;&gt;Node2</title>
<path fill="none" stroke="midnightblue" d="M148.01,-112.4C134.11,-104.95 116.28,-92.74 107.99,-76 100.62,-61.11 106.22,-42.5 112.57,-29.01"/>
<polygon fill="midnightblue" stroke="midnightblue" points="115.83,-30.33 117.37,-19.84 109.63,-27.08 115.83,-30.33"/>
</g>
<!-- Node5 -->
<g id="node5" class="node">
<title>Node5</title>
<g id="a_node5"><a xlink:href="_q_p_i_d___object_8h.html" target="_top" xlink:title="Part of the QPID autonomous motor driver project.">
<polygon fill="white" stroke="black" points="116.49,-56.5 116.49,-75.5 199.49,-75.5 199.49,-56.5 116.49,-56.5"/>
<text text-anchor="middle" x="157.99" y="-63.5" font-family="Helvetica,sans-Serif" font-size="10.00">QPID_Object.h</text>
</a>
</g>
</g>
<!-- Node4&#45;&gt;Node5 -->
<g id="edge5" class="edge">
<title>Node4&#45;&gt;Node5</title>
<path fill="none" stroke="midnightblue" d="M165.51,-112.08C164.31,-104.93 162.6,-94.64 161.11,-85.69"/>
<polygon fill="midnightblue" stroke="midnightblue" points="164.55,-85.04 159.45,-75.75 157.64,-86.19 164.55,-85.04"/>
</g>
<!-- Node5&#45;&gt;Node2 -->
<g id="edge6" class="edge">
<title>Node5&#45;&gt;Node2</title>
<path fill="none" stroke="midnightblue" d="M152.21,-56.08C147.32,-48.53 140.16,-37.49 134.16,-28.23"/>
<polygon fill="midnightblue" stroke="midnightblue" points="137.04,-26.24 128.66,-19.75 131.17,-30.05 137.04,-26.24"/>
</g>
<!-- Node6&#45;&gt;Node2 -->
<g id="edge8" class="edge">
<title>Node6&#45;&gt;Node2</title>
<path fill="none" stroke="midnightblue" d="M241.65,-56.44C218.24,-47.48 181.26,-33.31 154.8,-23.18"/>
<polygon fill="midnightblue" stroke="midnightblue" points="155.82,-19.82 145.23,-19.52 153.32,-26.36 155.82,-19.82"/>
</g>
</g>
</svg>
