<?xml version="1.0" encoding="UTF-8" standalone="no"?>
<!DOCTYPE svg PUBLIC "-//W3C//DTD SVG 1.1//EN"
 "http://www.w3.org/Graphics/SVG/1.1/DTD/svg11.dtd">
<!-- Generated by graphviz version 2.43.0 (0)
 -->
<!-- Title: QPID_Endstop_Digital.cpp Pages: 1 -->
<svg width="245pt" height="252pt"
 viewBox="0.00 0.00 244.50 252.00" xmlns="http://www.w3.org/2000/svg" xmlns:xlink="http://www.w3.org/1999/xlink">
<g id="graph0" class="graph" transform="scale(1 1) rotate(0) translate(4 248)">
<title>QPID_Endstop_Digital.cpp</title>
<polygon fill="white" stroke="transparent" points="-4,4 -4,-248 240.5,-248 240.5,4 -4,4"/>
<!-- Node1 -->
<g id="node1" class="node">
<title>Node1</title>
<g id="a_node1"><a xlink:title="Part of the QPID autonomous motor driver project.">
<polygon fill="#bfbfbf" stroke="black" points="0,-224.5 0,-243.5 134,-243.5 134,-224.5 0,-224.5"/>
<text text-anchor="middle" x="67" y="-231.5" font-family="Helvetica,sans-Serif" font-size="10.00">QPID_Endstop_Digital.cpp</text>
</a>
</g>
</g>
<!-- Node2 -->
<g id="node2" class="node">
<title>Node2</title>
<g id="a_node2"><a xlink:href="_q_p_i_d___endstop___digital_8h.html" target="_top" xlink:title="Part of the QPID autonomous motor driver project.">
<polygon fill="white" stroke="black" points="5,-168.5 5,-187.5 129,-187.5 129,-168.5 5,-168.5"/>
<text text-anchor="middle" x="67" y="-175.5" font-family="Helvetica,sans-Serif" font-size="10.00">QPID_Endstop_Digital.h</text>
</a>
</g>
</g>
<!-- Node1&#45;&gt;Node2 -->
<g id="edge1" class="edge">
<title>Node1&#45;&gt;Node2</title>
<path fill="none" stroke="midnightblue" d="M67,-224.08C67,-217.01 67,-206.86 67,-197.99"/>
<polygon fill="midnightblue" stroke="midnightblue" points="70.5,-197.75 67,-187.75 63.5,-197.75 70.5,-197.75"/>
</g>
<!-- Node3 -->
<g id="node3" class="node">
<title>Node3</title>
<g id="a_node3"><a xlink:title=" ">
<polygon fill="white" stroke="#bfbfbf" points="20,-0.5 20,-19.5 78,-19.5 78,-0.5 20,-0.5"/>
<text text-anchor="middle" x="49" y="-7.5" font-family="Helvetica,sans-Serif" font-size="10.00">Arduino.h</text>
</a>
</g>
</g>
<!-- Node2&#45;&gt;Node3 -->
<g id="edge2" class="edge">
<title>Node2&#45;&gt;Node3</title>
<path fill="none" stroke="midnightblue" d="M49.8,-168.39C36.75,-160.79 19.77,-148.39 12,-132 -4.78,-96.6 19.77,-51.8 36.22,-27.88"/>
<polygon fill="midnightblue" stroke="midnightblue" points="39.23,-29.69 42.22,-19.53 33.54,-25.61 39.23,-29.69"/>
</g>
<!-- Node4 -->
<g id="node4" class="node">
<title>Node4</title>
<g id="a_node4"><a xlink:href="_q_p_i_d___endstop_8h.html" target="_top" xlink:title="Part of the QPID autonomous motor driver project.">
<polygon fill="white" stroke="black" points="21.5,-112.5 21.5,-131.5 112.5,-131.5 112.5,-112.5 21.5,-112.5"/>
<text text-anchor="middle" x="67" y="-119.5" font-family="Helvetica,sans-Serif" font-size="10.00">QPID_Endstop.h</text>
</a>
</g>
</g>
<!-- Node2&#45;&gt;Node4 -->
<g id="edge3" class="edge">
<title>Node2&#45;&gt;Node4</title>
<path fill="none" stroke="midnightblue" d="M67,-168.08C67,-161.01 67,-150.86 67,-141.99"/>
<polygon fill="midnightblue" stroke="midnightblue" points="70.5,-141.75 67,-131.75 63.5,-141.75 70.5,-141.75"/>
</g>
<!-- Node6 -->
<g id="node6" class="node">
<title>Node6</title>
<g id="a_node6"><a xlink:href="_q_p_i_d___interface_8h.html" target="_top" xlink:title="Part of the QPID autonomous motor driver project.">
<polygon fill="white" stroke="black" points="143.5,-56.5 143.5,-75.5 236.5,-75.5 236.5,-56.5 143.5,-56.5"/>
<text text-anchor="middle" x="190" y="-63.5" font-family="Helvetica,sans-Serif" font-size="10.00">QPID_Interface.h</text>
</a>
</g>
</g>
<!-- Node2&#45;&gt;Node6 -->
<g id="edge7" class="edge">
<title>Node2&#45;&gt;Node6</title>
<path fill="none" stroke="midnightblue" d="M78.17,-168.28C89.43,-159.39 107.22,-145.08 122,-132 140.41,-115.72 160.67,-96.12 174.24,-82.73"/>
<polygon fill="midnightblue" stroke="midnightblue" points="176.76,-85.16 181.4,-75.63 171.83,-80.19 176.76,-85.16"/>
</g>
<!-- Node4&#45;&gt;Node3 -->
<g id="edge4" class="edge">
<title>Node4&#45;&gt;Node3</title>
<path fill="none" stroke="midnightblue" d="M57.98,-112.34C49.93,-103.93 38.7,-90.36 34,-76 28.88,-60.37 34.06,-42.07 39.69,-28.88"/>
<polygon fill="midnightblue" stroke="midnightblue" points="42.99,-30.08 44.1,-19.55 36.66,-27.09 42.99,-30.08"/>
</g>
<!-- Node5 -->
<g id="node5" class="node">
<title>Node5</title>
<g id="a_node5"><a xlink:href="_q_p_i_d___object_8h.html" target="_top" xlink:title="Part of the QPID autonomous motor driver project.">
<polygon fill="white" stroke="black" points="42.5,-56.5 42.5,-75.5 125.5,-75.5 125.5,-56.5 42.5,-56.5"/>
<text text-anchor="middle" x="84" y="-63.5" font-family="Helvetica,sans-Serif" font-size="10.00">QPID_Object.h</text>
</a>
</g>
</g>
<!-- Node4&#45;&gt;Node5 -->
<g id="edge5" class="edge">
<title>Node4&#45;&gt;Node5</title>
<path fill="none" stroke="midnightblue" d="M69.81,-112.08C72.08,-104.85 75.37,-94.41 78.21,-85.4"/>
<polygon fill="midnightblue" stroke="midnightblue" points="81.58,-86.34 81.25,-75.75 74.9,-84.24 81.58,-86.34"/>
</g>
<!-- Node5&#45;&gt;Node3 -->
<g id="edge6" class="edge">
<title>Node5&#45;&gt;Node3</title>
<path fill="none" stroke="midnightblue" d="M78.22,-56.08C73.33,-48.53 66.17,-37.49 60.17,-28.23"/>
<polygon fill="midnightblue" stroke="midnightblue" points="63.05,-26.24 54.67,-19.75 57.17,-30.05 63.05,-26.24"/>
</g>
<!-- Node6&#45;&gt;Node3 -->
<g id="edge8" class="edge">
<title>Node6&#45;&gt;Node3</title>
<path fill="none" stroke="midnightblue" d="M167.66,-56.44C144.25,-47.48 107.26,-33.31 80.81,-23.18"/>
<polygon fill="midnightblue" stroke="midnightblue" points="81.83,-19.82 71.24,-19.52 79.32,-26.36 81.83,-19.82"/>
</g>
</g>
</svg>
