<?xml version="1.0" encoding="UTF-8" standalone="no"?>
<!DOCTYPE svg PUBLIC "-//W3C//DTD SVG 1.1//EN"
 "http://www.w3.org/Graphics/SVG/1.1/DTD/svg11.dtd">
<!-- Generated by graphviz version 2.43.0 (0)
 -->
<!-- Title: QPID_MotorDriver_DRV8833.cpp Pages: 1 -->
<svg width="306pt" height="252pt"
 viewBox="0.00 0.00 305.85 252.00" xmlns="http://www.w3.org/2000/svg" xmlns:xlink="http://www.w3.org/1999/xlink">
<g id="graph0" class="graph" transform="scale(1 1) rotate(0) translate(4 248)">
<title>QPID_MotorDriver_DRV8833.cpp</title>
<polygon fill="white" stroke="transparent" points="-4,4 -4,-248 301.85,-248 301.85,4 -4,4"/>
<!-- Node1 -->
<g id="node1" class="node">
<title>Node1</title>
<g id="a_node1"><a xlink:title="Part of the QPID autonomous motor driver project.">
<polygon fill="#bfbfbf" stroke="black" points="0.85,-224.5 0.85,-243.5 164.85,-243.5 164.85,-224.5 0.85,-224.5"/>
<text text-anchor="middle" x="82.85" y="-231.5" font-family="Helvetica,sans-Serif" font-size="10.00">QPID_MotorDriver_DRV8833.cpp</text>
</a>
</g>
</g>
<!-- Node2 -->
<g id="node2" class="node">
<title>Node2</title>
<g id="a_node2"><a xlink:title=" ">
<polygon fill="white" stroke="#bfbfbf" points="69.85,-0.5 69.85,-19.5 127.85,-19.5 127.85,-0.5 69.85,-0.5"/>
<text text-anchor="middle" x="98.85" y="-7.5" font-family="Helvetica,sans-Serif" font-size="10.00">Arduino.h</text>
</a>
</g>
</g>
<!-- Node1&#45;&gt;Node2 -->
<g id="edge1" class="edge">
<title>Node1&#45;&gt;Node2</title>
<path fill="none" stroke="midnightblue" d="M52.6,-224.49C34.72,-217.73 13.55,-206.29 2.85,-188 -1.64,-180.33 0.44,-176.56 2.85,-168 18.86,-111.11 61.85,-54.46 84.48,-27.41"/>
<polygon fill="midnightblue" stroke="midnightblue" points="87.22,-29.58 91.05,-19.7 81.9,-25.04 87.22,-29.58"/>
</g>
<!-- Node3 -->
<g id="node3" class="node">
<title>Node3</title>
<g id="a_node3"><a xlink:title=" ">
<polygon fill="white" stroke="#bfbfbf" points="11.85,-168.5 11.85,-187.5 87.85,-187.5 87.85,-168.5 11.85,-168.5"/>
<text text-anchor="middle" x="49.85" y="-175.5" font-family="Helvetica,sans-Serif" font-size="10.00">analogWrite.h</text>
</a>
</g>
</g>
<!-- Node1&#45;&gt;Node3 -->
<g id="edge2" class="edge">
<title>Node1&#45;&gt;Node3</title>
<path fill="none" stroke="midnightblue" d="M77.4,-224.08C72.83,-216.61 66.18,-205.72 60.55,-196.52"/>
<polygon fill="midnightblue" stroke="midnightblue" points="63.39,-194.46 55.19,-187.75 57.42,-198.11 63.39,-194.46"/>
</g>
<!-- Node4 -->
<g id="node4" class="node">
<title>Node4</title>
<g id="a_node4"><a xlink:href="_q_p_i_d___motor_driver_8h.html" target="_top" xlink:title="Part of the QPID autonomous motor driver project.">
<polygon fill="white" stroke="black" points="69.35,-112.5 69.35,-131.5 174.35,-131.5 174.35,-112.5 69.35,-112.5"/>
<text text-anchor="middle" x="121.85" y="-119.5" font-family="Helvetica,sans-Serif" font-size="10.00">QPID_MotorDriver.h</text>
</a>
</g>
</g>
<!-- Node1&#45;&gt;Node4 -->
<g id="edge3" class="edge">
<title>Node1&#45;&gt;Node4</title>
<path fill="none" stroke="midnightblue" d="M85.91,-224.37C92.23,-206.54 106.85,-165.3 115.37,-141.27"/>
<polygon fill="midnightblue" stroke="midnightblue" points="118.76,-142.19 118.8,-131.59 112.16,-139.85 118.76,-142.19"/>
</g>
<!-- Node6 -->
<g id="node6" class="node">
<title>Node6</title>
<g id="a_node6"><a xlink:href="_q_p_i_d___motor_driver___d_r_v8833_8h.html" target="_top" xlink:title="Part of the QPID autonomous motor driver project.">
<polygon fill="white" stroke="black" points="143.85,-168.5 143.85,-187.5 297.85,-187.5 297.85,-168.5 143.85,-168.5"/>
<text text-anchor="middle" x="220.85" y="-175.5" font-family="Helvetica,sans-Serif" font-size="10.00">QPID_MotorDriver_DRV8833.h</text>
</a>
</g>
</g>
<!-- Node1&#45;&gt;Node6 -->
<g id="edge7" class="edge">
<title>Node1&#45;&gt;Node6</title>
<path fill="none" stroke="midnightblue" d="M104.71,-224.44C127.63,-215.48 163.82,-201.31 189.71,-191.18"/>
<polygon fill="midnightblue" stroke="midnightblue" points="191.04,-194.42 199.08,-187.52 188.49,-187.9 191.04,-194.42"/>
</g>
<!-- Node4&#45;&gt;Node2 -->
<g id="edge4" class="edge">
<title>Node4&#45;&gt;Node2</title>
<path fill="none" stroke="midnightblue" d="M110.86,-112.37C101.39,-104.17 88.41,-90.92 82.85,-76 77.02,-60.38 82.75,-41.86 88.91,-28.59"/>
<polygon fill="midnightblue" stroke="midnightblue" points="92.07,-30.1 93.52,-19.6 85.84,-26.9 92.07,-30.1"/>
</g>
<!-- Node5 -->
<g id="node5" class="node">
<title>Node5</title>
<g id="a_node5"><a xlink:href="_q_p_i_d___object_8h.html" target="_top" xlink:title="Part of the QPID autonomous motor driver project.">
<polygon fill="white" stroke="black" points="92.35,-56.5 92.35,-75.5 175.35,-75.5 175.35,-56.5 92.35,-56.5"/>
<text text-anchor="middle" x="133.85" y="-63.5" font-family="Helvetica,sans-Serif" font-size="10.00">QPID_Object.h</text>
</a>
</g>
</g>
<!-- Node4&#45;&gt;Node5 -->
<g id="edge5" class="edge">
<title>Node4&#45;&gt;Node5</title>
<path fill="none" stroke="midnightblue" d="M123.83,-112.08C125.42,-104.93 127.7,-94.64 129.69,-85.69"/>
<polygon fill="midnightblue" stroke="midnightblue" points="133.15,-86.27 131.9,-75.75 126.32,-84.75 133.15,-86.27"/>
</g>
<!-- Node5&#45;&gt;Node2 -->
<g id="edge6" class="edge">
<title>Node5&#45;&gt;Node2</title>
<path fill="none" stroke="midnightblue" d="M128.07,-56.08C123.17,-48.53 116.02,-37.49 110.01,-28.23"/>
<polygon fill="midnightblue" stroke="midnightblue" points="112.89,-26.24 104.52,-19.75 107.02,-30.05 112.89,-26.24"/>
</g>
<!-- Node6&#45;&gt;Node2 -->
<g id="edge8" class="edge">
<title>Node6&#45;&gt;Node2</title>
<path fill="none" stroke="midnightblue" d="M220.42,-168.33C218.93,-146.87 212.38,-90.55 183.85,-56 171.58,-41.15 153.11,-30.54 136.52,-23.37"/>
<polygon fill="midnightblue" stroke="midnightblue" points="137.61,-20.04 127.02,-19.54 134.99,-26.53 137.61,-20.04"/>
</g>
<!-- Node6&#45;&gt;Node4 -->
<g id="edge9" class="edge">
<title>Node6&#45;&gt;Node4</title>
<path fill="none" stroke="midnightblue" d="M204.94,-168.32C189.21,-159.74 164.9,-146.49 146.64,-136.52"/>
<polygon fill="midnightblue" stroke="midnightblue" points="148.17,-133.37 137.71,-131.65 144.82,-139.52 148.17,-133.37"/>
</g>
</g>
</svg>
