<?xml version="1.0" encoding="UTF-8" standalone="no"?>
<!DOCTYPE svg PUBLIC "-//W3C//DTD SVG 1.1//EN"
 "http://www.w3.org/Graphics/SVG/1.1/DTD/svg11.dtd">
<!-- Generated by graphviz version 2.43.0 (0)
 -->
<!-- Title: QPID.cpp Pages: 1 -->
<!--zoomable 308 -->
<svg id="main" version="1.1" xmlns="http://www.w3.org/2000/svg" xmlns:xlink="http://www.w3.org/1999/xlink" xml:space="preserve" onload="init(evt)">
<style type="text/css"><![CDATA[
.edge:hover path { stroke: red; }
.edge:hover polygon { stroke: red; fill: red; }
]]></style>
<script type="text/javascript"><![CDATA[
var edges = document.getElementsByTagName('g');
if (edges && edges.length) {
  for (var i=0;i<edges.length;i++) {
    if (edges[i].id.substr(0,4)=='edge') {
      edges[i].setAttribute('class','edge');
    }
  }
}
]]></script>
        <defs>
                <circle id="rim" cx="0" cy="0" r="7"/>
                <circle id="rim2" cx="0" cy="0" r="3.5"/>
                <g id="zoomPlus">
                        <use xlink:href="#rim" fill="#404040">
                                <set attributeName="fill" to="#808080" begin="zoomplus.mouseover" end="zoomplus.mouseout"/>
                        </use>
                        <path d="M-4,0h8M0,-4v8" fill="none" stroke="white" stroke-width="1.5" pointer-events="none"/>
                </g>
                <g id="zoomMin">
                        <use xlink:href="#rim" fill="#404040">
                                <set attributeName="fill" to="#808080" begin="zoomminus.mouseover" end="zoomminus.mouseout"/>
                        </use>
                        <path d="M-4,0h8" fill="none" stroke="white" stroke-width="1.5" pointer-events="none"/>
                </g>
                <g id="dirArrow">
                        <path fill="none" stroke="white" stroke-width="1.5" d="M0,-3.0v7 M-2.5,-0.5L0,-3.0L2.5,-0.5"/>
                </g>
               <g id="resetDef">
                       <use xlink:href="#rim2" fill="#404040">
                               <set attributeName="fill" to="#808080" begin="reset.mouseover" end="reset.mouseout"/>
                       </use>
               </g>
        </defs>

<script type="text/javascript">
var viewWidth = 934;
var viewHeight = 308;
var sectionId = 'dynsection-0';
</script>
<script xlink:href="svgpan.js"/>
<svg id="graph" class="graph">
<g id="viewport">
<title>QPID.cpp</title>
<polygon fill="white" stroke="transparent" points="-4,4 -4,-304 930,-304 930,4 -4,4"/>
<!-- Node1 -->
<g id="node1" class="node">
<title>Node1</title>
<g id="a_node1"><a xlink:title="Part of the QPID autonomous motor driver project.">
<polygon fill="#bfbfbf" stroke="black" points="370,-280.5 370,-299.5 430,-299.5 430,-280.5 370,-280.5"/>
<text text-anchor="middle" x="400" y="-287.5" font-family="Helvetica,sans-Serif" font-size="10.00">QPID.cpp</text>
</a>
</g>
</g>
<!-- Node2 -->
<g id="node2" class="node">
<title>Node2</title>
<g id="a_node2"><a xlink:title=" ">
<polygon fill="white" stroke="#bfbfbf" points="421,-0.5 421,-19.5 479,-19.5 479,-0.5 421,-0.5"/>
<text text-anchor="middle" x="450" y="-7.5" font-family="Helvetica,sans-Serif" font-size="10.00">Arduino.h</text>
</a>
</g>
</g>
<!-- Node1&#45;&gt;Node2 -->
<g id="edge1" class="edge">
<title>Node1&#45;&gt;Node2</title>
<path fill="none" stroke="midnightblue" d="M369.93,-287.22C276.91,-280.92 0,-255.7 0,-179 0,-179 0,-179 0,-121 0,-36.84 300.74,-16.77 410.51,-12.24"/>
<polygon fill="midnightblue" stroke="midnightblue" points="410.96,-15.73 420.82,-11.84 410.69,-8.74 410.96,-15.73"/>
</g>
<!-- Node3 -->
<g id="node3" class="node">
<title>Node3</title>
<g id="a_node3"><a xlink:title=" ">
<polygon fill="white" stroke="#bfbfbf" points="542,-168.5 542,-187.5 600,-187.5 600,-168.5 542,-168.5"/>
<text text-anchor="middle" x="571" y="-175.5" font-family="Helvetica,sans-Serif" font-size="10.00">PID_v1.h</text>
</a>
</g>
</g>
<!-- Node1&#45;&gt;Node3 -->
<g id="edge2" class="edge">
<title>Node1&#45;&gt;Node3</title>
<path fill="none" stroke="midnightblue" d="M413.86,-280.46C428.4,-271.48 451.89,-256.88 472,-244 499.02,-226.69 529.9,-206.32 549.88,-193.06"/>
<polygon fill="midnightblue" stroke="midnightblue" points="551.85,-195.96 558.24,-187.51 547.98,-190.12 551.85,-195.96"/>
</g>
<!-- Node4 -->
<g id="node4" class="node">
<title>Node4</title>
<g id="a_node4"><a xlink:href="_q_p_i_d_8h.html" target="_top" xlink:title="Part of the QPID autonomous motor driver project.">
<polygon fill="white" stroke="black" points="413,-224.5 413,-243.5 463,-243.5 463,-224.5 413,-224.5"/>
<text text-anchor="middle" x="438" y="-231.5" font-family="Helvetica,sans-Serif" font-size="10.00">QPID.h</text>
</a>
</g>
</g>
<!-- Node1&#45;&gt;Node4 -->
<g id="edge3" class="edge">
<title>Node1&#45;&gt;Node4</title>
<path fill="none" stroke="midnightblue" d="M406.27,-280.08C411.64,-272.46 419.52,-261.26 426.08,-251.94"/>
<polygon fill="midnightblue" stroke="midnightblue" points="428.95,-253.94 431.84,-243.75 423.22,-249.91 428.95,-253.94"/>
</g>
<!-- Node6 -->
<g id="node6" class="node">
<title>Node6</title>
<g id="a_node6"><a xlink:href="_q_p_i_d___object_8h.html" target="_top" xlink:title="Part of the QPID autonomous motor driver project.">
<polygon fill="white" stroke="black" points="292.5,-56.5 292.5,-75.5 375.5,-75.5 375.5,-56.5 292.5,-56.5"/>
<text text-anchor="middle" x="334" y="-63.5" font-family="Helvetica,sans-Serif" font-size="10.00">QPID_Object.h</text>
</a>
</g>
</g>
<!-- Node1&#45;&gt;Node6 -->
<g id="edge31" class="edge">
<title>Node1&#45;&gt;Node6</title>
<path fill="none" stroke="midnightblue" d="M394.73,-280.22C381.16,-257.02 345.23,-191.81 333,-132 329.85,-116.61 330.42,-98.73 331.6,-85.63"/>
<polygon fill="midnightblue" stroke="midnightblue" points="335.1,-85.85 332.71,-75.52 328.14,-85.08 335.1,-85.85"/>
</g>
<!-- Node7 -->
<g id="node7" class="node">
<title>Node7</title>
<g id="a_node7"><a xlink:href="_q_p_i_d___motor_driver_8h.html" target="_top" xlink:title="Part of the QPID autonomous motor driver project.">
<polygon fill="white" stroke="black" points="152.5,-112.5 152.5,-131.5 257.5,-131.5 257.5,-112.5 152.5,-112.5"/>
<text text-anchor="middle" x="205" y="-119.5" font-family="Helvetica,sans-Serif" font-size="10.00">QPID_MotorDriver.h</text>
</a>
</g>
</g>
<!-- Node1&#45;&gt;Node7 -->
<g id="edge32" class="edge">
<title>Node1&#45;&gt;Node7</title>
<path fill="none" stroke="midnightblue" d="M369.78,-284.67C341.72,-279.31 300.16,-267.79 272,-244 239.1,-216.2 219.41,-167.95 210.57,-141.56"/>
<polygon fill="midnightblue" stroke="midnightblue" points="213.81,-140.18 207.44,-131.71 207.13,-142.3 213.81,-140.18"/>
</g>
<!-- Node8 -->
<g id="node8" class="node">
<title>Node8</title>
<g id="a_node8"><a xlink:href="_q_p_i_d___motor_driver___d_r_v8833_8h.html" target="_top" xlink:title="Part of the QPID autonomous motor driver project.">
<polygon fill="white" stroke="black" points="28,-168.5 28,-187.5 182,-187.5 182,-168.5 28,-168.5"/>
<text text-anchor="middle" x="105" y="-175.5" font-family="Helvetica,sans-Serif" font-size="10.00">QPID_MotorDriver_DRV8833.h</text>
</a>
</g>
</g>
<!-- Node1&#45;&gt;Node8 -->
<g id="edge33" class="edge">
<title>Node1&#45;&gt;Node8</title>
<path fill="none" stroke="midnightblue" d="M369.77,-286.17C328.87,-281.49 254.32,-269.95 196,-244 167.65,-231.38 139.22,-209.18 121.87,-194.28"/>
<polygon fill="midnightblue" stroke="midnightblue" points="124.11,-191.59 114.29,-187.63 119.5,-196.86 124.11,-191.59"/>
</g>
<!-- Node9 -->
<g id="node9" class="node">
<title>Node9</title>
<g id="a_node9"><a xlink:href="_q_p_i_d___encoder_8h.html" target="_top" xlink:title="Part of the QPID autonomous motor driver project.">
<polygon fill="white" stroke="black" points="352,-112.5 352,-131.5 442,-131.5 442,-112.5 352,-112.5"/>
<text text-anchor="middle" x="397" y="-119.5" font-family="Helvetica,sans-Serif" font-size="10.00">QPID_Encoder.h</text>
</a>
</g>
</g>
<!-- Node1&#45;&gt;Node9 -->
<g id="edge34" class="edge">
<title>Node1&#45;&gt;Node9</title>
<path fill="none" stroke="midnightblue" d="M399.84,-280.08C399.37,-253.95 397.98,-177.21 397.34,-141.58"/>
<polygon fill="midnightblue" stroke="midnightblue" points="400.84,-141.5 397.15,-131.57 393.84,-141.63 400.84,-141.5"/>
</g>
<!-- Node10 -->
<g id="node10" class="node">
<title>Node10</title>
<g id="a_node10"><a xlink:href="_q_p_i_d___encoder___e_s_p32_8h.html" target="_top" xlink:title="Part of the QPID autonomous motor driver project.">
<polygon fill="white" stroke="black" points="618.5,-168.5 618.5,-187.5 745.5,-187.5 745.5,-168.5 618.5,-168.5"/>
<text text-anchor="middle" x="682" y="-175.5" font-family="Helvetica,sans-Serif" font-size="10.00">QPID_Encoder_ESP32.h</text>
</a>
</g>
</g>
<!-- Node1&#45;&gt;Node10 -->
<g id="edge35" class="edge">
<title>Node1&#45;&gt;Node10</title>
<path fill="none" stroke="midnightblue" d="M422.13,-280.37C471.96,-260.93 593.11,-213.67 650.65,-191.23"/>
<polygon fill="midnightblue" stroke="midnightblue" points="651.93,-194.49 659.97,-187.59 649.39,-187.96 651.93,-194.49"/>
</g>
<!-- Node12 -->
<g id="node12" class="node">
<title>Node12</title>
<g id="a_node12"><a xlink:href="_q_p_i_d___endstop_8h.html" target="_top" xlink:title="Part of the QPID autonomous motor driver project.">
<polygon fill="white" stroke="black" points="607.5,-112.5 607.5,-131.5 698.5,-131.5 698.5,-112.5 607.5,-112.5"/>
<text text-anchor="middle" x="653" y="-119.5" font-family="Helvetica,sans-Serif" font-size="10.00">QPID_Endstop.h</text>
</a>
</g>
</g>
<!-- Node1&#45;&gt;Node12 -->
<g id="edge36" class="edge">
<title>Node1&#45;&gt;Node12</title>
<path fill="none" stroke="midnightblue" d="M430.21,-285.05C508.59,-274.14 715.13,-240.8 755,-188 773.97,-162.88 735.75,-144.89 700.81,-134.3"/>
<polygon fill="midnightblue" stroke="midnightblue" points="701.67,-130.9 691.09,-131.5 699.74,-137.63 701.67,-130.9"/>
</g>
<!-- Node13 -->
<g id="node13" class="node">
<title>Node13</title>
<g id="a_node13"><a xlink:href="_q_p_i_d___endstop___digital_8h.html" target="_top" xlink:title="Part of the QPID autonomous motor driver project.">
<polygon fill="white" stroke="black" points="802,-168.5 802,-187.5 926,-187.5 926,-168.5 802,-168.5"/>
<text text-anchor="middle" x="864" y="-175.5" font-family="Helvetica,sans-Serif" font-size="10.00">QPID_Endstop_Digital.h</text>
</a>
</g>
</g>
<!-- Node1&#45;&gt;Node13 -->
<g id="edge37" class="edge">
<title>Node1&#45;&gt;Node13</title>
<path fill="none" stroke="midnightblue" d="M430.13,-287.77C509.69,-284.17 723.67,-272.07 788,-244 813.24,-232.98 836.38,-210.66 850.33,-195.28"/>
<polygon fill="midnightblue" stroke="midnightblue" points="853.14,-197.39 857.09,-187.56 847.87,-192.78 853.14,-197.39"/>
</g>
<!-- Node4&#45;&gt;Node2 -->
<g id="edge4" class="edge">
<title>Node4&#45;&gt;Node2</title>
<path fill="none" stroke="midnightblue" d="M439.49,-224.39C442.41,-207 448.79,-166.4 451,-132 453.32,-95.79 452.05,-53.35 450.99,-29.58"/>
<polygon fill="midnightblue" stroke="midnightblue" points="454.48,-29.34 450.49,-19.52 447.49,-29.68 454.48,-29.34"/>
</g>
<!-- Node4&#45;&gt;Node3 -->
<g id="edge6" class="edge">
<title>Node4&#45;&gt;Node3</title>
<path fill="none" stroke="midnightblue" d="M459.07,-224.44C481.06,-215.52 515.73,-201.44 540.66,-191.32"/>
<polygon fill="midnightblue" stroke="midnightblue" points="542.08,-194.52 550.02,-187.52 539.44,-188.04 542.08,-194.52"/>
</g>
<!-- Node5 -->
<g id="node5" class="node">
<title>Node5</title>
<g id="a_node5"><a xlink:title=" ">
<polygon fill="white" stroke="#bfbfbf" points="498.5,-112.5 498.5,-131.5 589.5,-131.5 589.5,-112.5 498.5,-112.5"/>
<text text-anchor="middle" x="544" y="-119.5" font-family="Helvetica,sans-Serif" font-size="10.00">ESP32Encoder.h</text>
</a>
</g>
</g>
<!-- Node4&#45;&gt;Node5 -->
<g id="edge5" class="edge">
<title>Node4&#45;&gt;Node5</title>
<path fill="none" stroke="midnightblue" d="M446.39,-224.14C458.27,-211.59 480.72,-187.97 500,-168 509.41,-158.25 520.03,-147.39 528.48,-138.77"/>
<polygon fill="midnightblue" stroke="midnightblue" points="531.02,-141.18 535.53,-131.6 526.03,-136.28 531.02,-141.18"/>
</g>
<!-- Node4&#45;&gt;Node6 -->
<g id="edge7" class="edge">
<title>Node4&#45;&gt;Node6</title>
<path fill="none" stroke="midnightblue" d="M425.92,-224.3C405.06,-208.53 362.63,-173.04 343,-132 336.09,-117.55 334.05,-99.36 333.62,-85.9"/>
<polygon fill="midnightblue" stroke="midnightblue" points="337.12,-85.87 333.57,-75.89 330.12,-85.91 337.12,-85.87"/>
</g>
<!-- Node4&#45;&gt;Node7 -->
<g id="edge9" class="edge">
<title>Node4&#45;&gt;Node7</title>
<path fill="none" stroke="midnightblue" d="M412.82,-225.91C386.54,-218.11 344.42,-204.47 310,-188 279.17,-173.25 246.02,-151.67 225.4,-137.48"/>
<polygon fill="midnightblue" stroke="midnightblue" points="227.32,-134.55 217.11,-131.71 223.32,-140.3 227.32,-134.55"/>
</g>
<!-- Node4&#45;&gt;Node8 -->
<g id="edge12" class="edge">
<title>Node4&#45;&gt;Node8</title>
<path fill="none" stroke="midnightblue" d="M412.97,-228.94C361.33,-220.57 241.6,-201.15 167.57,-189.15"/>
<polygon fill="midnightblue" stroke="midnightblue" points="167.86,-185.65 157.43,-187.5 166.74,-192.56 167.86,-185.65"/>
</g>
<!-- Node4&#45;&gt;Node9 -->
<g id="edge15" class="edge">
<title>Node4&#45;&gt;Node9</title>
<path fill="none" stroke="midnightblue" d="M434.78,-224.37C428.14,-206.54 412.76,-165.3 403.81,-141.27"/>
<polygon fill="midnightblue" stroke="midnightblue" points="406.97,-139.74 400.2,-131.59 400.42,-142.18 406.97,-139.74"/>
</g>
<!-- Node4&#45;&gt;Node10 -->
<g id="edge18" class="edge">
<title>Node4&#45;&gt;Node10</title>
<path fill="none" stroke="midnightblue" d="M463.19,-227.42C503.26,-218.56 582.21,-201.09 633.51,-189.73"/>
<polygon fill="midnightblue" stroke="midnightblue" points="634.37,-193.13 643.38,-187.55 632.86,-186.29 634.37,-193.13"/>
</g>
<!-- Node4&#45;&gt;Node12 -->
<g id="edge24" class="edge">
<title>Node4&#45;&gt;Node12</title>
<path fill="none" stroke="midnightblue" d="M449.99,-224.26C471.52,-208.65 516.07,-176.8 533,-168 559.37,-154.29 590.9,-142.63 615.02,-134.62"/>
<polygon fill="midnightblue" stroke="midnightblue" points="616.11,-137.95 624.53,-131.52 613.94,-131.29 616.11,-137.95"/>
</g>
<!-- Node4&#45;&gt;Node13 -->
<g id="edge27" class="edge">
<title>Node4&#45;&gt;Node13</title>
<path fill="none" stroke="midnightblue" d="M463.06,-229.82C526.36,-221.8 694.58,-200.48 791.83,-188.15"/>
<polygon fill="midnightblue" stroke="midnightblue" points="792.4,-191.6 801.88,-186.87 791.52,-184.66 792.4,-191.6"/>
</g>
<!-- Node6&#45;&gt;Node2 -->
<g id="edge8" class="edge">
<title>Node6&#45;&gt;Node2</title>
<path fill="none" stroke="midnightblue" d="M352.38,-56.44C371.22,-47.68 400.73,-33.94 422.38,-23.86"/>
<polygon fill="midnightblue" stroke="midnightblue" points="424.12,-26.91 431.71,-19.52 421.16,-20.56 424.12,-26.91"/>
</g>
<!-- Node7&#45;&gt;Node2 -->
<g id="edge10" class="edge">
<title>Node7&#45;&gt;Node2</title>
<path fill="none" stroke="midnightblue" d="M212.78,-112.47C225.91,-98.58 253.9,-71.11 283,-56 323.81,-34.81 375.57,-22.86 410.56,-16.69"/>
<polygon fill="midnightblue" stroke="midnightblue" points="411.57,-20.07 420.85,-14.96 410.41,-13.17 411.57,-20.07"/>
</g>
<!-- Node7&#45;&gt;Node6 -->
<g id="edge11" class="edge">
<title>Node7&#45;&gt;Node6</title>
<path fill="none" stroke="midnightblue" d="M225.44,-112.44C246.67,-103.56 280.1,-89.56 304.25,-79.45"/>
<polygon fill="midnightblue" stroke="midnightblue" points="305.78,-82.61 313.66,-75.52 303.08,-76.15 305.78,-82.61"/>
</g>
<!-- Node8&#45;&gt;Node2 -->
<g id="edge13" class="edge">
<title>Node8&#45;&gt;Node2</title>
<path fill="none" stroke="midnightblue" d="M108.21,-168.42C113.6,-154.94 125.63,-128.64 143,-112 218.42,-39.75 346.47,-19.17 410.74,-13.32"/>
<polygon fill="midnightblue" stroke="midnightblue" points="411.19,-16.79 420.86,-12.47 410.6,-9.82 411.19,-16.79"/>
</g>
<!-- Node8&#45;&gt;Node7 -->
<g id="edge14" class="edge">
<title>Node8&#45;&gt;Node7</title>
<path fill="none" stroke="midnightblue" d="M121.07,-168.32C136.96,-159.74 161.51,-146.49 179.96,-136.52"/>
<polygon fill="midnightblue" stroke="midnightblue" points="181.84,-139.49 188.97,-131.65 178.51,-133.33 181.84,-139.49"/>
</g>
<!-- Node9&#45;&gt;Node2 -->
<g id="edge16" class="edge">
<title>Node9&#45;&gt;Node2</title>
<path fill="none" stroke="midnightblue" d="M401.16,-112.37C409.83,-94.38 429.98,-52.55 441.51,-28.63"/>
<polygon fill="midnightblue" stroke="midnightblue" points="444.67,-30.12 445.86,-19.59 438.37,-27.08 444.67,-30.12"/>
</g>
<!-- Node9&#45;&gt;Node6 -->
<g id="edge17" class="edge">
<title>Node9&#45;&gt;Node6</title>
<path fill="none" stroke="midnightblue" d="M386.88,-112.32C377.47,-104.26 363.26,-92.08 351.93,-82.37"/>
<polygon fill="midnightblue" stroke="midnightblue" points="354.18,-79.68 344.31,-75.83 349.62,-85 354.18,-79.68"/>
</g>
<!-- Node10&#45;&gt;Node2 -->
<g id="edge19" class="edge">
<title>Node10&#45;&gt;Node2</title>
<path fill="none" stroke="midnightblue" d="M690.38,-168.43C702.05,-155.43 720.45,-130.29 708,-112 658.6,-39.41 548.47,-18.99 489.34,-13.25"/>
<polygon fill="midnightblue" stroke="midnightblue" points="489.53,-9.75 479.26,-12.36 488.92,-16.72 489.53,-9.75"/>
</g>
<!-- Node10&#45;&gt;Node5 -->
<g id="edge20" class="edge">
<title>Node10&#45;&gt;Node5</title>
<path fill="none" stroke="midnightblue" d="M660.13,-168.44C637.22,-159.48 601.02,-145.31 575.13,-135.18"/>
<polygon fill="midnightblue" stroke="midnightblue" points="576.35,-131.9 565.76,-131.52 573.8,-138.42 576.35,-131.9"/>
</g>
<!-- Node10&#45;&gt;Node9 -->
<g id="edge21" class="edge">
<title>Node10&#45;&gt;Node9</title>
<path fill="none" stroke="midnightblue" d="M636.84,-168.44C586.71,-158.94 505.78,-143.61 451.99,-133.42"/>
<polygon fill="midnightblue" stroke="midnightblue" points="452.42,-129.94 441.95,-131.52 451.12,-136.82 452.42,-129.94"/>
</g>
<!-- Node11 -->
<g id="node11" class="node">
<title>Node11</title>
<g id="a_node11"><a xlink:href="_q_p_i_d___interface_8h.html" target="_top" xlink:title="Part of the QPID autonomous motor driver project.">
<polygon fill="white" stroke="black" points="755.5,-112.5 755.5,-131.5 848.5,-131.5 848.5,-112.5 755.5,-112.5"/>
<text text-anchor="middle" x="802" y="-119.5" font-family="Helvetica,sans-Serif" font-size="10.00">QPID_Interface.h</text>
</a>
</g>
</g>
<!-- Node10&#45;&gt;Node11 -->
<g id="edge22" class="edge">
<title>Node10&#45;&gt;Node11</title>
<path fill="none" stroke="midnightblue" d="M701.01,-168.44C720.59,-159.64 751.31,-145.81 773.73,-135.72"/>
<polygon fill="midnightblue" stroke="midnightblue" points="775.39,-138.81 783.07,-131.52 772.52,-132.43 775.39,-138.81"/>
</g>
<!-- Node11&#45;&gt;Node2 -->
<g id="edge23" class="edge">
<title>Node11&#45;&gt;Node2</title>
<path fill="none" stroke="midnightblue" d="M796.52,-112.09C787.13,-97.66 766.46,-69.43 741,-56 697.99,-33.32 558.21,-19.5 489.23,-13.89"/>
<polygon fill="midnightblue" stroke="midnightblue" points="489.44,-10.4 479.19,-13.09 488.88,-17.38 489.44,-10.4"/>
</g>
<!-- Node12&#45;&gt;Node2 -->
<g id="edge25" class="edge">
<title>Node12&#45;&gt;Node2</title>
<path fill="none" stroke="midnightblue" d="M637.07,-112.37C601.79,-93.25 516.86,-47.23 474.66,-24.36"/>
<polygon fill="midnightblue" stroke="midnightblue" points="476.31,-21.28 465.86,-19.59 472.98,-27.43 476.31,-21.28"/>
</g>
<!-- Node12&#45;&gt;Node6 -->
<g id="edge26" class="edge">
<title>Node12&#45;&gt;Node6</title>
<path fill="none" stroke="midnightblue" d="M607.3,-113.26C548.55,-103.32 446.82,-86.1 385.42,-75.71"/>
<polygon fill="midnightblue" stroke="midnightblue" points="386,-72.25 375.56,-74.04 384.84,-79.16 386,-72.25"/>
</g>
<!-- Node13&#45;&gt;Node2 -->
<g id="edge28" class="edge">
<title>Node13&#45;&gt;Node2</title>
<path fill="none" stroke="midnightblue" d="M865.51,-168.24C867.32,-154.98 868.88,-129.52 858,-112 832.95,-71.65 811.67,-72.12 767,-56 671.36,-21.49 550.55,-13.32 489.37,-11.47"/>
<polygon fill="midnightblue" stroke="midnightblue" points="489.45,-7.97 479.37,-11.21 489.27,-14.97 489.45,-7.97"/>
</g>
<!-- Node13&#45;&gt;Node11 -->
<g id="edge30" class="edge">
<title>Node13&#45;&gt;Node11</title>
<path fill="none" stroke="midnightblue" d="M854.04,-168.32C844.87,-160.34 831.06,-148.31 819.97,-138.65"/>
<polygon fill="midnightblue" stroke="midnightblue" points="821.98,-135.76 812.14,-131.83 817.38,-141.04 821.98,-135.76"/>
</g>
<!-- Node13&#45;&gt;Node12 -->
<g id="edge29" class="edge">
<title>Node13&#45;&gt;Node12</title>
<path fill="none" stroke="midnightblue" d="M830.57,-168.44C794.14,-159.12 735.77,-144.18 695.97,-134"/>
<polygon fill="midnightblue" stroke="midnightblue" points="696.83,-130.61 686.28,-131.52 695.1,-137.39 696.83,-130.61"/>
</g>
</g>
</svg>
        <g id="navigator" transform="translate(0 0)" fill="#404254">
                <rect fill="#f2f5e9" fill-opacity="0.5" stroke="#606060" stroke-width=".5" x="0" y="0" width="60" height="60"/>
                <use id="zoomplus" xlink:href="#zoomPlus" x="17" y="9" onmousedown="handleZoom(evt,'in')"/>
                <use id="zoomminus" xlink:href="#zoomMin" x="42" y="9" onmousedown="handleZoom(evt,'out')"/>
                <use id="reset" xlink:href="#resetDef" x="30" y="36" onmousedown="handleReset()"/>
                <g id="arrowUp" xlink:href="#dirArrow" transform="translate(30 24)" onmousedown="handlePan(0,-1)">
                  <use xlink:href="#rim" fill="#404040">
                        <set attributeName="fill" to="#808080" begin="arrowUp.mouseover" end="arrowUp.mouseout"/>
                  </use>
                  <path fill="none" stroke="white" stroke-width="1.5" d="M0,-3.0v7 M-2.5,-0.5L0,-3.0L2.5,-0.5"/>
                </g>
                <g id="arrowRight" xlink:href="#dirArrow" transform="rotate(90) translate(36 -43)" onmousedown="handlePan(1,0)">
                  <use xlink:href="#rim" fill="#404040">
                        <set attributeName="fill" to="#808080" begin="arrowRight.mouseover" end="arrowRight.mouseout"/>
                  </use>
                  <path fill="none" stroke="white" stroke-width="1.5" d="M0,-3.0v7 M-2.5,-0.5L0,-3.0L2.5,-0.5"/>
                </g>
                <g id="arrowDown" xlink:href="#dirArrow" transform="rotate(180) translate(-30 -48)" onmousedown="handlePan(0,1)">
                  <use xlink:href="#rim" fill="#404040">
                        <set attributeName="fill" to="#808080" begin="arrowDown.mouseover" end="arrowDown.mouseout"/>
                  </use>
                  <path fill="none" stroke="white" stroke-width="1.5" d="M0,-3.0v7 M-2.5,-0.5L0,-3.0L2.5,-0.5"/>
                </g>
                <g id="arrowLeft" xlink:href="#dirArrow" transform="rotate(270) translate(-36 17)" onmousedown="handlePan(-1,0)">
                  <use xlink:href="#rim" fill="#404040">
                        <set attributeName="fill" to="#808080" begin="arrowLeft.mouseover" end="arrowLeft.mouseout"/>
                  </use>
                  <path fill="none" stroke="white" stroke-width="1.5" d="M0,-3.0v7 M-2.5,-0.5L0,-3.0L2.5,-0.5"/>
                </g>
        </g>
        <svg viewBox="0 0 15 15" width="100%" height="30px" preserveAspectRatio="xMaxYMin meet">
         <g id="arrow_out" transform="scale(0.3 0.3)">
          <a xlink:href="_q_p_i_d_8cpp__incl_org.svg" target="_base">
           <rect id="button" ry="5" rx="5" y="6" x="6" height="38" width="38"
                fill="#f2f5e9" fill-opacity="0.5" stroke="#606060" stroke-width="1.0"/>
           <path id="arrow"
             d="M 11.500037,31.436501 C 11.940474,20.09759 22.043105,11.32322 32.158766,21.979434 L 37.068811,17.246167 C 37.068811,17.246167 37.088388,32 37.088388,32 L 22.160133,31.978069 C 22.160133,31.978069 26.997745,27.140456 26.997745,27.140456 C 18.528582,18.264221 13.291696,25.230495 11.500037,31.436501 z"
             style="fill:#404040;"/>
          </a>
         </g>
        </svg>
</svg>
