<?xml version="1.0" encoding="UTF-8" standalone="no"?>
<!DOCTYPE svg PUBLIC "-//W3C//DTD SVG 1.1//EN"
 "http://www.w3.org/Graphics/SVG/1.1/DTD/svg11.dtd">
<!-- Generated by graphviz version 2.43.0 (0)
 -->
<!-- Title: QPID_Endstop_Digital.h Pages: 1 -->
<svg width="240pt" height="196pt"
 viewBox="0.00 0.00 239.50 196.00" xmlns="http://www.w3.org/2000/svg" xmlns:xlink="http://www.w3.org/1999/xlink">
<g id="graph0" class="graph" transform="scale(1 1) rotate(0) translate(4 192)">
<title>QPID_Endstop_Digital.h</title>
<polygon fill="white" stroke="transparent" points="-4,4 -4,-192 235.5,-192 235.5,4 -4,4"/>
<!-- Node1 -->
<g id="node1" class="node">
<title>Node1</title>
<g id="a_node1"><a xlink:title="Part of the QPID autonomous motor driver project.">
<polygon fill="#bfbfbf" stroke="black" points="0,-168.5 0,-187.5 124,-187.5 124,-168.5 0,-168.5"/>
<text text-anchor="middle" x="62" y="-175.5" font-family="Helvetica,sans-Serif" font-size="10.00">QPID_Endstop_Digital.h</text>
</a>
</g>
</g>
<!-- Node2 -->
<g id="node2" class="node">
<title>Node2</title>
<g id="a_node2"><a xlink:title=" ">
<polygon fill="white" stroke="#bfbfbf" points="15,-0.5 15,-19.5 73,-19.5 73,-0.5 15,-0.5"/>
<text text-anchor="middle" x="44" y="-7.5" font-family="Helvetica,sans-Serif" font-size="10.00">Arduino.h</text>
</a>
</g>
</g>
<!-- Node1&#45;&gt;Node2 -->
<g id="edge1" class="edge">
<title>Node1&#45;&gt;Node2</title>
<path fill="none" stroke="midnightblue" d="M44.8,-168.39C31.75,-160.79 14.77,-148.39 7,-132 -9.78,-96.6 14.77,-51.8 31.22,-27.88"/>
<polygon fill="midnightblue" stroke="midnightblue" points="34.23,-29.69 37.22,-19.53 28.54,-25.61 34.23,-29.69"/>
</g>
<!-- Node3 -->
<g id="node3" class="node">
<title>Node3</title>
<g id="a_node3"><a xlink:href="_q_p_i_d___endstop_8h.html" target="_top" xlink:title="Part of the QPID autonomous motor driver project.">
<polygon fill="white" stroke="black" points="16.5,-112.5 16.5,-131.5 107.5,-131.5 107.5,-112.5 16.5,-112.5"/>
<text text-anchor="middle" x="62" y="-119.5" font-family="Helvetica,sans-Serif" font-size="10.00">QPID_Endstop.h</text>
</a>
</g>
</g>
<!-- Node1&#45;&gt;Node3 -->
<g id="edge2" class="edge">
<title>Node1&#45;&gt;Node3</title>
<path fill="none" stroke="midnightblue" d="M62,-168.08C62,-161.01 62,-150.86 62,-141.99"/>
<polygon fill="midnightblue" stroke="midnightblue" points="65.5,-141.75 62,-131.75 58.5,-141.75 65.5,-141.75"/>
</g>
<!-- Node5 -->
<g id="node5" class="node">
<title>Node5</title>
<g id="a_node5"><a xlink:href="_q_p_i_d___interface_8h.html" target="_top" xlink:title="Part of the QPID autonomous motor driver project.">
<polygon fill="white" stroke="black" points="138.5,-56.5 138.5,-75.5 231.5,-75.5 231.5,-56.5 138.5,-56.5"/>
<text text-anchor="middle" x="185" y="-63.5" font-family="Helvetica,sans-Serif" font-size="10.00">QPID_Interface.h</text>
</a>
</g>
</g>
<!-- Node1&#45;&gt;Node5 -->
<g id="edge6" class="edge">
<title>Node1&#45;&gt;Node5</title>
<path fill="none" stroke="midnightblue" d="M73.17,-168.28C84.43,-159.39 102.22,-145.08 117,-132 135.41,-115.72 155.67,-96.12 169.24,-82.73"/>
<polygon fill="midnightblue" stroke="midnightblue" points="171.76,-85.16 176.4,-75.63 166.83,-80.19 171.76,-85.16"/>
</g>
<!-- Node3&#45;&gt;Node2 -->
<g id="edge3" class="edge">
<title>Node3&#45;&gt;Node2</title>
<path fill="none" stroke="midnightblue" d="M52.98,-112.34C44.93,-103.93 33.7,-90.36 29,-76 23.88,-60.37 29.06,-42.07 34.69,-28.88"/>
<polygon fill="midnightblue" stroke="midnightblue" points="37.99,-30.08 39.1,-19.55 31.66,-27.09 37.99,-30.08"/>
</g>
<!-- Node4 -->
<g id="node4" class="node">
<title>Node4</title>
<g id="a_node4"><a xlink:href="_q_p_i_d___object_8h.html" target="_top" xlink:title="Part of the QPID autonomous motor driver project.">
<polygon fill="white" stroke="black" points="37.5,-56.5 37.5,-75.5 120.5,-75.5 120.5,-56.5 37.5,-56.5"/>
<text text-anchor="middle" x="79" y="-63.5" font-family="Helvetica,sans-Serif" font-size="10.00">QPID_Object.h</text>
</a>
</g>
</g>
<!-- Node3&#45;&gt;Node4 -->
<g id="edge4" class="edge">
<title>Node3&#45;&gt;Node4</title>
<path fill="none" stroke="midnightblue" d="M64.81,-112.08C67.08,-104.85 70.37,-94.41 73.21,-85.4"/>
<polygon fill="midnightblue" stroke="midnightblue" points="76.58,-86.34 76.25,-75.75 69.9,-84.24 76.58,-86.34"/>
</g>
<!-- Node4&#45;&gt;Node2 -->
<g id="edge5" class="edge">
<title>Node4&#45;&gt;Node2</title>
<path fill="none" stroke="midnightblue" d="M73.22,-56.08C68.33,-48.53 61.17,-37.49 55.17,-28.23"/>
<polygon fill="midnightblue" stroke="midnightblue" points="58.05,-26.24 49.67,-19.75 52.17,-30.05 58.05,-26.24"/>
</g>
<!-- Node5&#45;&gt;Node2 -->
<g id="edge7" class="edge">
<title>Node5&#45;&gt;Node2</title>
<path fill="none" stroke="midnightblue" d="M162.66,-56.44C139.25,-47.48 102.26,-33.31 75.81,-23.18"/>
<polygon fill="midnightblue" stroke="midnightblue" points="76.83,-19.82 66.24,-19.52 74.32,-26.36 76.83,-19.82"/>
</g>
</g>
</svg>
