<?xml version="1.0" encoding="UTF-8" standalone="no"?>
<!DOCTYPE svg PUBLIC "-//W3C//DTD SVG 1.1//EN"
 "http://www.w3.org/Graphics/SVG/1.1/DTD/svg11.dtd">
<!-- Generated by graphviz version 2.43.0 (0)
 -->
<!-- Title: QPID_Encoder.cpp Pages: 1 -->
<svg width="172pt" height="196pt"
 viewBox="0.00 0.00 172.00 196.00" xmlns="http://www.w3.org/2000/svg" xmlns:xlink="http://www.w3.org/1999/xlink">
<g id="graph0" class="graph" transform="scale(1 1) rotate(0) translate(4 192)">
<title>QPID_Encoder.cpp</title>
<polygon fill="white" stroke="transparent" points="-4,4 -4,-192 168,-192 168,4 -4,4"/>
<!-- Node1 -->
<g id="node1" class="node">
<title>Node1</title>
<g id="a_node1"><a xlink:title="Part of the QPID autonomous motor driver project.">
<polygon fill="#bfbfbf" stroke="black" points="0,-168.5 0,-187.5 101,-187.5 101,-168.5 0,-168.5"/>
<text text-anchor="middle" x="50.5" y="-175.5" font-family="Helvetica,sans-Serif" font-size="10.00">QPID_Encoder.cpp</text>
</a>
</g>
</g>
<!-- Node2 -->
<g id="node2" class="node">
<title>Node2</title>
<g id="a_node2"><a xlink:title=" ">
<polygon fill="white" stroke="#bfbfbf" points="23.5,-0.5 23.5,-19.5 81.5,-19.5 81.5,-0.5 23.5,-0.5"/>
<text text-anchor="middle" x="52.5" y="-7.5" font-family="Helvetica,sans-Serif" font-size="10.00">Arduino.h</text>
</a>
</g>
</g>
<!-- Node1&#45;&gt;Node2 -->
<g id="edge1" class="edge">
<title>Node1&#45;&gt;Node2</title>
<path fill="none" stroke="midnightblue" d="M46.13,-168.31C41.94,-159.44 35.9,-145.14 33.5,-132 26.87,-95.7 37.96,-53.02 45.79,-29.28"/>
<polygon fill="midnightblue" stroke="midnightblue" points="49.2,-30.13 49.18,-19.53 42.59,-27.83 49.2,-30.13"/>
</g>
<!-- Node3 -->
<g id="node3" class="node">
<title>Node3</title>
<g id="a_node3"><a xlink:href="_q_p_i_d___encoder_8h.html" target="_top" xlink:title="Part of the QPID autonomous motor driver project.">
<polygon fill="white" stroke="black" points="42.5,-112.5 42.5,-131.5 132.5,-131.5 132.5,-112.5 42.5,-112.5"/>
<text text-anchor="middle" x="87.5" y="-119.5" font-family="Helvetica,sans-Serif" font-size="10.00">QPID_Encoder.h</text>
</a>
</g>
</g>
<!-- Node1&#45;&gt;Node3 -->
<g id="edge2" class="edge">
<title>Node1&#45;&gt;Node3</title>
<path fill="none" stroke="midnightblue" d="M56.61,-168.08C61.78,-160.53 69.35,-149.49 75.69,-140.23"/>
<polygon fill="midnightblue" stroke="midnightblue" points="78.74,-141.98 81.5,-131.75 72.96,-138.02 78.74,-141.98"/>
</g>
<!-- Node3&#45;&gt;Node2 -->
<g id="edge3" class="edge">
<title>Node3&#45;&gt;Node2</title>
<path fill="none" stroke="midnightblue" d="M84.29,-112.42C80.94,-103.41 75.64,-88.78 71.5,-76 66.47,-60.44 61.29,-42.61 57.62,-29.56"/>
<polygon fill="midnightblue" stroke="midnightblue" points="60.98,-28.57 54.92,-19.88 54.24,-30.45 60.98,-28.57"/>
</g>
<!-- Node4 -->
<g id="node4" class="node">
<title>Node4</title>
<g id="a_node4"><a xlink:href="_q_p_i_d___object_8h.html" target="_top" xlink:title="Part of the QPID autonomous motor driver project.">
<polygon fill="white" stroke="black" points="81,-56.5 81,-75.5 164,-75.5 164,-56.5 81,-56.5"/>
<text text-anchor="middle" x="122.5" y="-63.5" font-family="Helvetica,sans-Serif" font-size="10.00">QPID_Object.h</text>
</a>
</g>
</g>
<!-- Node3&#45;&gt;Node4 -->
<g id="edge4" class="edge">
<title>Node3&#45;&gt;Node4</title>
<path fill="none" stroke="midnightblue" d="M93.28,-112.08C98.17,-104.53 105.33,-93.49 111.33,-84.23"/>
<polygon fill="midnightblue" stroke="midnightblue" points="114.33,-86.05 116.83,-75.75 108.45,-82.24 114.33,-86.05"/>
</g>
<!-- Node4&#45;&gt;Node2 -->
<g id="edge5" class="edge">
<title>Node4&#45;&gt;Node2</title>
<path fill="none" stroke="midnightblue" d="M111.25,-56.32C100.7,-48.18 84.7,-35.84 72.06,-26.09"/>
<polygon fill="midnightblue" stroke="midnightblue" points="74.01,-23.17 63.95,-19.83 69.73,-28.71 74.01,-23.17"/>
</g>
</g>
</svg>
