<?xml version="1.0" encoding="UTF-8" standalone="no"?>
<!DOCTYPE svg PUBLIC "-//W3C//DTD SVG 1.1//EN"
 "http://www.w3.org/Graphics/SVG/1.1/DTD/svg11.dtd">
<!-- Generated by graphviz version 2.43.0 (0)
 -->
<!-- Title: QPID_Object Pages: 1 -->
<svg width="416pt" height="211pt"
 viewBox="0.00 0.00 416.00 211.00" xmlns="http://www.w3.org/2000/svg" xmlns:xlink="http://www.w3.org/1999/xlink">
<g id="graph0" class="graph" transform="scale(1 1) rotate(0) translate(4 207)">
<title>QPID_Object</title>
<polygon fill="white" stroke="transparent" points="-4,4 -4,-207 412,-207 412,4 -4,4"/>
<!-- Node1 -->
<g id="node1" class="node">
<title>Node1</title>
<g id="a_node1"><a xlink:title="Base class for all QPID classes. Establishes interface for message processing and provides error repo...">
<polygon fill="#bfbfbf" stroke="black" points="0,-57.5 0,-76.5 75,-76.5 75,-57.5 0,-57.5"/>
<text text-anchor="middle" x="37.5" y="-64.5" font-family="Helvetica,sans-Serif" font-size="10.00">QPID_Object</text>
</a>
</g>
</g>
<!-- Node2 -->
<g id="node2" class="node">
<title>Node2</title>
<g id="a_node2"><a xlink:href="class_q_p_i_d___encoder.html" target="_top" xlink:title="Mostly abstract class for any kind of rotary encoder with optional filtering for jittery or error pro...">
<polygon fill="white" stroke="black" points="118.5,-139.5 118.5,-158.5 201.5,-158.5 201.5,-139.5 118.5,-139.5"/>
<text text-anchor="middle" x="160" y="-146.5" font-family="Helvetica,sans-Serif" font-size="10.00">QPID_Encoder</text>
</a>
</g>
</g>
<!-- Node1&#45;&gt;Node2 -->
<g id="edge1" class="edge">
<title>Node1&#45;&gt;Node2</title>
<path fill="none" stroke="midnightblue" d="M61.15,-82.41C85.69,-99.11 124.08,-125.24 144.72,-139.28"/>
<polygon fill="midnightblue" stroke="midnightblue" points="63.03,-79.46 52.8,-76.73 59.09,-85.25 63.03,-79.46"/>
</g>
<!-- Node5 -->
<g id="node5" class="node">
<title>Node5</title>
<g id="a_node5"><a xlink:href="class_q_p_i_d___endstop.html" target="_top" xlink:title="Abstract class for any kind of endstop switch.">
<polygon fill="white" stroke="black" points="118.5,-76.5 118.5,-95.5 201.5,-95.5 201.5,-76.5 118.5,-76.5"/>
<text text-anchor="middle" x="160" y="-83.5" font-family="Helvetica,sans-Serif" font-size="10.00">QPID_Endstop</text>
</a>
</g>
</g>
<!-- Node1&#45;&gt;Node5 -->
<g id="edge4" class="edge">
<title>Node1&#45;&gt;Node5</title>
<path fill="none" stroke="midnightblue" d="M85.45,-74.4C96.26,-76.11 107.68,-77.91 118.21,-79.57"/>
<polygon fill="midnightblue" stroke="midnightblue" points="85.73,-70.9 75.31,-72.8 84.64,-77.82 85.73,-70.9"/>
</g>
<!-- Node8 -->
<g id="node8" class="node">
<title>Node8</title>
<g id="a_node8"><a xlink:href="class_q_p_i_d___motor_driver.html" target="_top" xlink:title="Mostly abstract class that defines access methods and features for generic motors,...">
<polygon fill="white" stroke="black" points="111,-38.5 111,-57.5 209,-57.5 209,-38.5 111,-38.5"/>
<text text-anchor="middle" x="160" y="-45.5" font-family="Helvetica,sans-Serif" font-size="10.00">QPID_MotorDriver</text>
</a>
</g>
</g>
<!-- Node1&#45;&gt;Node8 -->
<g id="edge7" class="edge">
<title>Node1&#45;&gt;Node8</title>
<path fill="none" stroke="midnightblue" d="M85.31,-59.62C93.69,-58.3 102.44,-56.92 110.86,-55.59"/>
<polygon fill="midnightblue" stroke="midnightblue" points="84.64,-56.18 75.31,-61.2 85.73,-63.1 84.64,-56.18"/>
</g>
<!-- Node10 -->
<g id="node10" class="node">
<title>Node10</title>
<g id="a_node10"><a xlink:href="class_q_p_i_d___unit.html" target="_top" xlink:title="A QPID_Unit objects bundles access to three hardware components, a motor driver, an position encoder,...">
<polygon fill="white" stroke="black" points="127.5,-0.5 127.5,-19.5 192.5,-19.5 192.5,-0.5 127.5,-0.5"/>
<text text-anchor="middle" x="160" y="-7.5" font-family="Helvetica,sans-Serif" font-size="10.00">QPID_Unit</text>
</a>
</g>
</g>
<!-- Node1&#45;&gt;Node10 -->
<g id="edge9" class="edge">
<title>Node1&#45;&gt;Node10</title>
<path fill="none" stroke="midnightblue" d="M64.38,-52.58C78.07,-45.18 95.26,-36.22 111,-29 118.17,-25.71 126.08,-22.44 133.38,-19.56"/>
<polygon fill="midnightblue" stroke="midnightblue" points="62.63,-49.55 55.53,-57.42 65.98,-55.7 62.63,-49.55"/>
</g>
<!-- Node3 -->
<g id="node3" class="node">
<title>Node3</title>
<g id="a_node3"><a xlink:href="class_q_p_i_d___encoder___e_s_p32.html" target="_top" xlink:title="Implements a quadrature encoder using ESP32&#39;s super cool hardware counters (yeah!)....">
<polygon fill="white" stroke="black" points="267,-183.5 267,-202.5 386,-202.5 386,-183.5 267,-183.5"/>
<text text-anchor="middle" x="326.5" y="-190.5" font-family="Helvetica,sans-Serif" font-size="10.00">QPID_Encoder_ESP32</text>
</a>
</g>
</g>
<!-- Node2&#45;&gt;Node3 -->
<g id="edge2" class="edge">
<title>Node2&#45;&gt;Node3</title>
<path fill="none" stroke="midnightblue" d="M201.3,-161.51C215.11,-165.65 230.69,-170.18 245,-174 257.35,-177.29 270.84,-180.59 283.19,-183.5"/>
<polygon fill="midnightblue" stroke="midnightblue" points="202.19,-158.12 191.6,-158.57 200.16,-164.82 202.19,-158.12"/>
</g>
<!-- Node4 -->
<g id="node4" class="node">
<title>Node4</title>
<g id="a_node4"><a xlink:href="class_q_p_i_d___encoder___quadrature_state_machine.html" target="_top" xlink:title="Implements a state machine quadrature encoder based on Matthias Hertel&#39;s rotary library">
<polygon fill="white" stroke="black" points="247,-134 247,-164 406,-164 406,-134 247,-134"/>
<text text-anchor="start" x="255" y="-152" font-family="Helvetica,sans-Serif" font-size="10.00">QPID_Encoder_QuadratureState</text>
<text text-anchor="middle" x="326.5" y="-141" font-family="Helvetica,sans-Serif" font-size="10.00">Machine</text>
</a>
</g>
</g>
<!-- Node2&#45;&gt;Node4 -->
<g id="edge3" class="edge">
<title>Node2&#45;&gt;Node4</title>
<path fill="none" stroke="midnightblue" d="M211.95,-149C223,-149 234.94,-149 246.77,-149"/>
<polygon fill="midnightblue" stroke="midnightblue" points="211.66,-145.5 201.66,-149 211.66,-152.5 211.66,-145.5"/>
</g>
<!-- Node6 -->
<g id="node6" class="node">
<title>Node6</title>
<g id="a_node6"><a xlink:href="class_q_p_i_d___endstop___digital.html" target="_top" xlink:title="Implements the simplest form of endstop using a digital input pin.">
<polygon fill="white" stroke="black" points="268.5,-95.5 268.5,-114.5 384.5,-114.5 384.5,-95.5 268.5,-95.5"/>
<text text-anchor="middle" x="326.5" y="-102.5" font-family="Helvetica,sans-Serif" font-size="10.00">QPID_Endstop_Digital</text>
</a>
</g>
</g>
<!-- Node5&#45;&gt;Node6 -->
<g id="edge5" class="edge">
<title>Node5&#45;&gt;Node6</title>
<path fill="none" stroke="midnightblue" d="M211.62,-91.85C229.54,-93.92 249.81,-96.26 268.24,-98.39"/>
<polygon fill="midnightblue" stroke="midnightblue" points="212,-88.37 201.66,-90.7 211.2,-95.32 212,-88.37"/>
</g>
<!-- Node7 -->
<g id="node7" class="node">
<title>Node7</title>
<g id="a_node7"><a xlink:href="class_q_p_i_d___endstop___pin_shared_analog.html" target="_top" xlink:title="Implements an endstop connected to an analog pin with a resistor network, thus sharing the pin with o...">
<polygon fill="white" stroke="black" points="245,-57.5 245,-76.5 408,-76.5 408,-57.5 245,-57.5"/>
<text text-anchor="middle" x="326.5" y="-64.5" font-family="Helvetica,sans-Serif" font-size="10.00">QPID_Endstop_PinSharedAnalog</text>
</a>
</g>
</g>
<!-- Node5&#45;&gt;Node7 -->
<g id="edge6" class="edge">
<title>Node5&#45;&gt;Node7</title>
<path fill="none" stroke="midnightblue" d="M211.84,-80.13C222.31,-78.92 233.59,-77.62 244.82,-76.32"/>
<polygon fill="midnightblue" stroke="midnightblue" points="211.2,-76.68 201.66,-81.3 212,-83.63 211.2,-76.68"/>
</g>
<!-- Node9 -->
<g id="node9" class="node">
<title>Node9</title>
<g id="a_node9"><a xlink:href="class_q_p_i_d___motor_driver___d_r_v8833.html" target="_top" xlink:title="Implement a QPID_MotorDriver for TI&#39;s DRV8833 chip based modules. (Watch out for fake modules with th...">
<polygon fill="white" stroke="black" points="253.5,-19.5 253.5,-38.5 399.5,-38.5 399.5,-19.5 253.5,-19.5"/>
<text text-anchor="middle" x="326.5" y="-26.5" font-family="Helvetica,sans-Serif" font-size="10.00">QPID_MotorDriver_DRV8833</text>
</a>
</g>
</g>
<!-- Node8&#45;&gt;Node9 -->
<g id="edge8" class="edge">
<title>Node8&#45;&gt;Node9</title>
<path fill="none" stroke="midnightblue" d="M218.99,-41.3C230.07,-40.02 241.8,-38.67 253.26,-37.34"/>
<polygon fill="midnightblue" stroke="midnightblue" points="218.55,-37.83 209.02,-42.45 219.36,-44.78 218.55,-37.83"/>
</g>
</g>
</svg>
