<?xml version="1.0" encoding="UTF-8" standalone="no"?>
<!DOCTYPE svg PUBLIC "-//W3C//DTD SVG 1.1//EN"
 "http://www.w3.org/Graphics/SVG/1.1/DTD/svg11.dtd">
<!-- Generated by graphviz version 2.43.0 (0)
 -->
<!-- Title: QPID_Encoder Pages: 1 -->
<svg width="304pt" height="151pt"
 viewBox="0.00 0.00 304.00 151.00" xmlns="http://www.w3.org/2000/svg" xmlns:xlink="http://www.w3.org/1999/xlink">
<g id="graph0" class="graph" transform="scale(1 1) rotate(0) translate(4 147)">
<title>QPID_Encoder</title>
<polygon fill="white" stroke="transparent" points="-4,4 -4,-147 300,-147 300,4 -4,4"/>
<!-- Node1 -->
<g id="node1" class="node">
<title>Node1</title>
<g id="a_node1"><a xlink:title="Mostly abstract class for any kind of rotary encoder with optional filtering for jittery or error pro...">
<polygon fill="#bfbfbf" stroke="black" points="96,-67.5 96,-86.5 179,-86.5 179,-67.5 96,-67.5"/>
<text text-anchor="middle" x="137.5" y="-74.5" font-family="Helvetica,sans-Serif" font-size="10.00">QPID_Encoder</text>
</a>
</g>
</g>
<!-- Node3 -->
<g id="node3" class="node">
<title>Node3</title>
<g id="a_node3"><a xlink:href="class_q_p_i_d___encoder___e_s_p32.html" target="_top" xlink:title="Implements a quadrature encoder using ESP32&#39;s super cool hardware counters (yeah!)....">
<polygon fill="white" stroke="black" points="0,-6 0,-25 119,-25 119,-6 0,-6"/>
<text text-anchor="middle" x="59.5" y="-13" font-family="Helvetica,sans-Serif" font-size="10.00">QPID_Encoder_ESP32</text>
</a>
</g>
</g>
<!-- Node1&#45;&gt;Node3 -->
<g id="edge2" class="edge">
<title>Node1&#45;&gt;Node3</title>
<path fill="none" stroke="midnightblue" d="M118.22,-61.29C103.26,-49.88 83.04,-34.46 70.65,-25.01"/>
<polygon fill="midnightblue" stroke="midnightblue" points="116.25,-64.19 126.32,-67.48 120.5,-58.63 116.25,-64.19"/>
</g>
<!-- Node4 -->
<g id="node4" class="node">
<title>Node4</title>
<g id="a_node4"><a xlink:href="class_q_p_i_d___encoder___quadrature_state_machine.html" target="_top" xlink:title="Implements a state machine quadrature encoder based on Matthias Hertel&#39;s rotary library">
<polygon fill="white" stroke="black" points="137,-0.5 137,-30.5 296,-30.5 296,-0.5 137,-0.5"/>
<text text-anchor="start" x="145" y="-18.5" font-family="Helvetica,sans-Serif" font-size="10.00">QPID_Encoder_QuadratureState</text>
<text text-anchor="middle" x="216.5" y="-7.5" font-family="Helvetica,sans-Serif" font-size="10.00">Machine</text>
</a>
</g>
</g>
<!-- Node1&#45;&gt;Node4 -->
<g id="edge3" class="edge">
<title>Node1&#45;&gt;Node4</title>
<path fill="none" stroke="midnightblue" d="M157.16,-61.2C169.61,-51.81 185.63,-39.75 197.88,-30.52"/>
<polygon fill="midnightblue" stroke="midnightblue" points="154.7,-58.66 148.82,-67.48 158.91,-64.25 154.7,-58.66"/>
</g>
<!-- Node2 -->
<g id="node2" class="node">
<title>Node2</title>
<g id="a_node2"><a xlink:href="class_q_p_i_d___object.html" target="_top" xlink:title="Base class for all QPID classes. Establishes interface for message processing and provides error repo...">
<polygon fill="white" stroke="black" points="100,-123.5 100,-142.5 175,-142.5 175,-123.5 100,-123.5"/>
<text text-anchor="middle" x="137.5" y="-130.5" font-family="Helvetica,sans-Serif" font-size="10.00">QPID_Object</text>
</a>
</g>
</g>
<!-- Node2&#45;&gt;Node1 -->
<g id="edge1" class="edge">
<title>Node2&#45;&gt;Node1</title>
<path fill="none" stroke="midnightblue" d="M137.5,-112.8C137.5,-103.91 137.5,-93.78 137.5,-86.75"/>
<polygon fill="midnightblue" stroke="midnightblue" points="134,-113.08 137.5,-123.08 141,-113.08 134,-113.08"/>
</g>
</g>
</svg>
