<?xml version="1.0" encoding="UTF-8" standalone="no"?>
<!DOCTYPE svg PUBLIC "-//W3C//DTD SVG 1.1//EN"
 "http://www.w3.org/Graphics/SVG/1.1/DTD/svg11.dtd">
<!-- Generated by graphviz version 2.43.0 (0)
 -->
<!-- Title: QPID_Endstop Pages: 1 -->
<svg width="306pt" height="140pt"
 viewBox="0.00 0.00 305.50 140.00" xmlns="http://www.w3.org/2000/svg" xmlns:xlink="http://www.w3.org/1999/xlink">
<g id="graph0" class="graph" transform="scale(1 1) rotate(0) translate(4 136)">
<title>QPID_Endstop</title>
<polygon fill="white" stroke="transparent" points="-4,4 -4,-136 301.5,-136 301.5,4 -4,4"/>
<!-- Node1 -->
<g id="node1" class="node">
<title>Node1</title>
<g id="a_node1"><a xlink:title="Abstract class for any kind of endstop switch.">
<polygon fill="#bfbfbf" stroke="black" points="95.5,-56.5 95.5,-75.5 178.5,-75.5 178.5,-56.5 95.5,-56.5"/>
<text text-anchor="middle" x="137" y="-63.5" font-family="Helvetica,sans-Serif" font-size="10.00">QPID_Endstop</text>
</a>
</g>
</g>
<!-- Node3 -->
<g id="node3" class="node">
<title>Node3</title>
<g id="a_node3"><a xlink:href="class_q_p_i_d___endstop___digital.html" target="_top" xlink:title="Implements the simplest form of endstop using a digital input pin.">
<polygon fill="white" stroke="black" points="0,-0.5 0,-19.5 116,-19.5 116,-0.5 0,-0.5"/>
<text text-anchor="middle" x="58" y="-7.5" font-family="Helvetica,sans-Serif" font-size="10.00">QPID_Endstop_Digital</text>
</a>
</g>
</g>
<!-- Node1&#45;&gt;Node3 -->
<g id="edge2" class="edge">
<title>Node1&#45;&gt;Node3</title>
<path fill="none" stroke="midnightblue" d="M115.97,-50.62C101.53,-40.76 82.86,-27.99 70.66,-19.65"/>
<polygon fill="midnightblue" stroke="midnightblue" points="114.08,-53.57 124.31,-56.32 118.03,-47.79 114.08,-53.57"/>
</g>
<!-- Node4 -->
<g id="node4" class="node">
<title>Node4</title>
<g id="a_node4"><a xlink:href="class_q_p_i_d___endstop___pin_shared_analog.html" target="_top" xlink:title="Implements an endstop connected to an analog pin with a resistor network, thus sharing the pin with o...">
<polygon fill="white" stroke="black" points="134.5,-0.5 134.5,-19.5 297.5,-19.5 297.5,-0.5 134.5,-0.5"/>
<text text-anchor="middle" x="216" y="-7.5" font-family="Helvetica,sans-Serif" font-size="10.00">QPID_Endstop_PinSharedAnalog</text>
</a>
</g>
</g>
<!-- Node1&#45;&gt;Node4 -->
<g id="edge3" class="edge">
<title>Node1&#45;&gt;Node4</title>
<path fill="none" stroke="midnightblue" d="M158.03,-50.62C172.47,-40.76 191.14,-27.99 203.34,-19.65"/>
<polygon fill="midnightblue" stroke="midnightblue" points="155.97,-47.79 149.69,-56.32 159.92,-53.57 155.97,-47.79"/>
</g>
<!-- Node2 -->
<g id="node2" class="node">
<title>Node2</title>
<g id="a_node2"><a xlink:href="class_q_p_i_d___object.html" target="_top" xlink:title="Base class for all QPID classes. Establishes interface for message processing and provides error repo...">
<polygon fill="white" stroke="black" points="99.5,-112.5 99.5,-131.5 174.5,-131.5 174.5,-112.5 99.5,-112.5"/>
<text text-anchor="middle" x="137" y="-119.5" font-family="Helvetica,sans-Serif" font-size="10.00">QPID_Object</text>
</a>
</g>
</g>
<!-- Node2&#45;&gt;Node1 -->
<g id="edge1" class="edge">
<title>Node2&#45;&gt;Node1</title>
<path fill="none" stroke="midnightblue" d="M137,-101.8C137,-92.91 137,-82.78 137,-75.75"/>
<polygon fill="midnightblue" stroke="midnightblue" points="133.5,-102.08 137,-112.08 140.5,-102.08 133.5,-102.08"/>
</g>
</g>
</svg>
