<?xml version="1.0" encoding="UTF-8" standalone="no"?>
<!DOCTYPE svg PUBLIC "-//W3C//DTD SVG 1.1//EN"
 "http://www.w3.org/Graphics/SVG/1.1/DTD/svg11.dtd">
<!-- Generated by graphviz version 2.43.0 (0)
 -->
<!-- Title: QPID_states Pages: 1 -->
<svg width="591pt" height="216pt"
 viewBox="0.00 0.00 590.72 216.00" xmlns="http://www.w3.org/2000/svg" xmlns:xlink="http://www.w3.org/1999/xlink">
<g id="graph0" class="graph" transform="scale(2.06 2.06) rotate(0) translate(4 441)">
<title>QPID_states</title>
<polygon fill="white" stroke="transparent" points="-4,4 -4,-441 1213,-441 1213,4 -4,4"/>
<g id="clust9" class="cluster">
<title>cluster_activeStates</title>
<polygon fill="none" stroke="gray" stroke-dasharray="1,5" points="62,-123 62,-198 944,-198 944,-123 62,-123"/>
<text text-anchor="start" x="70" y="-183.8" font-family="Times,serif" font-size="14.00"> </text>
<text text-anchor="start" x="74" y="-183.8" font-family="Times,serif" font-weight="bold" font-size="14.00">active states</text>
<text text-anchor="start" x="144" y="-183.8" font-family="Times,serif" font-size="14.00"> </text>
</g>
<g id="clust10" class="cluster">
<title>cluster_doneStates</title>
<polygon fill="none" stroke="gray" stroke-dasharray="1,5" points="129,-8 129,-83 627,-83 627,-8 129,-8"/>
<text text-anchor="start" x="342" y="-68.8" font-family="Times,serif" font-size="14.00"> </text>
<text text-anchor="start" x="346" y="-68.8" font-family="Times,serif" font-weight="bold" font-size="14.00">done states</text>
<text text-anchor="start" x="410" y="-68.8" font-family="Times,serif" font-size="14.00"> </text>
</g>
<g id="clust11" class="cluster">
<title>cluster_inactiveStates</title>
<polygon fill="none" stroke="gray" stroke-dasharray="1,5" points="757,-354 757,-429 905,-429 905,-354 757,-354"/>
<text text-anchor="start" x="786" y="-414.8" font-family="Times,serif" font-size="14.00"> </text>
<text text-anchor="start" x="790" y="-414.8" font-family="Times,serif" font-weight="bold" font-size="14.00">inactive states</text>
<text text-anchor="start" x="872" y="-414.8" font-family="Times,serif" font-size="14.00"> </text>
</g>
<g id="clust12" class="cluster">
<title>cluster_errorStates</title>
<polygon fill="none" stroke="gray" stroke-dasharray="1,5" points="635,-8 635,-83 1201,-83 1201,-8 635,-8"/>
<text text-anchor="start" x="1082" y="-68.8" font-family="Times,serif" font-size="14.00"> </text>
<text text-anchor="start" x="1086" y="-68.8" font-family="Times,serif" font-weight="bold" font-size="14.00">interrupted states</text>
<text text-anchor="start" x="1189" y="-68.8" font-family="Times,serif" font-size="14.00"> </text>
</g>
<!-- command -->
<g id="node1" class="node">
<title>command</title>
<polygon fill="none" stroke="black" points="387,-398 321.98,-380 387,-362 452.02,-380 387,-398"/>
<text text-anchor="middle" x="387" y="-376.3" font-family="Times,serif" font-size="14.00">command</text>
</g>
<!-- runTo -->
<g id="node2" class="node">
<title>runTo</title>
<path fill="none" stroke="black" d="M372,-246.5C372,-246.5 402,-246.5 402,-246.5 408,-246.5 414,-252.5 414,-258.5 414,-258.5 414,-270.5 414,-270.5 414,-276.5 408,-282.5 402,-282.5 402,-282.5 372,-282.5 372,-282.5 366,-282.5 360,-276.5 360,-270.5 360,-270.5 360,-258.5 360,-258.5 360,-252.5 366,-246.5 372,-246.5"/>
<text text-anchor="middle" x="387" y="-260.8" font-family="Times,serif" font-size="14.00">runTo</text>
</g>
<!-- command&#45;&gt;runTo -->
<g id="edge1" class="edge">
<title>command&#45;&gt;runTo</title>
<path fill="none" stroke="black" d="M387,-361.76C387,-343.41 387,-314.1 387,-292.64"/>
<polygon fill="black" stroke="black" points="390.5,-292.53 387,-282.53 383.5,-292.53 390.5,-292.53"/>
</g>
<!-- runDistance -->
<g id="node3" class="node">
<title>runDistance</title>
<path fill="none" stroke="black" d="M272,-246.5C272,-246.5 330,-246.5 330,-246.5 336,-246.5 342,-252.5 342,-258.5 342,-258.5 342,-270.5 342,-270.5 342,-276.5 336,-282.5 330,-282.5 330,-282.5 272,-282.5 272,-282.5 266,-282.5 260,-276.5 260,-270.5 260,-270.5 260,-258.5 260,-258.5 260,-252.5 266,-246.5 272,-246.5"/>
<text text-anchor="middle" x="301" y="-260.8" font-family="Times,serif" font-size="14.00">runDistance</text>
</g>
<!-- command&#45;&gt;runDistance -->
<g id="edge2" class="edge">
<title>command&#45;&gt;runDistance</title>
<path fill="none" stroke="black" d="M376.11,-364.63C362.08,-346.11 337.46,-313.62 320.25,-290.9"/>
<polygon fill="black" stroke="black" points="322.88,-288.58 314.05,-282.72 317.3,-292.81 322.88,-288.58"/>
</g>
<!-- runAtSpeed -->
<g id="node4" class="node">
<title>runAtSpeed</title>
<path fill="none" stroke="black" d="M758.5,-246.5C758.5,-246.5 815.5,-246.5 815.5,-246.5 821.5,-246.5 827.5,-252.5 827.5,-258.5 827.5,-258.5 827.5,-270.5 827.5,-270.5 827.5,-276.5 821.5,-282.5 815.5,-282.5 815.5,-282.5 758.5,-282.5 758.5,-282.5 752.5,-282.5 746.5,-276.5 746.5,-270.5 746.5,-270.5 746.5,-258.5 746.5,-258.5 746.5,-252.5 752.5,-246.5 758.5,-246.5"/>
<text text-anchor="middle" x="787" y="-260.8" font-family="Times,serif" font-size="14.00">runAtSpeed</text>
</g>
<!-- command&#45;&gt;runAtSpeed -->
<g id="edge3" class="edge">
<title>command&#45;&gt;runAtSpeed</title>
<path fill="none" stroke="black" d="M417.39,-370.38C485.81,-350.96 652.47,-303.67 736.62,-279.79"/>
<polygon fill="black" stroke="black" points="737.8,-283.1 746.46,-277 735.89,-276.36 737.8,-283.1"/>
</g>
<!-- runAtSpeedUntil -->
<g id="node5" class="node">
<title>runAtSpeedUntil</title>
<path fill="none" stroke="black" d="M562.5,-246.5C562.5,-246.5 647.5,-246.5 647.5,-246.5 653.5,-246.5 659.5,-252.5 659.5,-258.5 659.5,-258.5 659.5,-270.5 659.5,-270.5 659.5,-276.5 653.5,-282.5 647.5,-282.5 647.5,-282.5 562.5,-282.5 562.5,-282.5 556.5,-282.5 550.5,-276.5 550.5,-270.5 550.5,-270.5 550.5,-258.5 550.5,-258.5 550.5,-252.5 556.5,-246.5 562.5,-246.5"/>
<text text-anchor="middle" x="605" y="-260.8" font-family="Times,serif" font-size="14.00">runAtSpeedUntil</text>
</g>
<!-- command&#45;&gt;runAtSpeedUntil -->
<g id="edge4" class="edge">
<title>command&#45;&gt;runAtSpeedUntil</title>
<path fill="none" stroke="black" d="M408.7,-367.7C444.57,-349.03 516.84,-311.4 562.97,-287.38"/>
<polygon fill="black" stroke="black" points="564.86,-290.35 572.11,-282.62 561.63,-284.14 564.86,-290.35"/>
</g>
<!-- runAtSpeedFor -->
<g id="node6" class="node">
<title>runAtSpeedFor</title>
<path fill="none" stroke="black" d="M444,-246.5C444,-246.5 520,-246.5 520,-246.5 526,-246.5 532,-252.5 532,-258.5 532,-258.5 532,-270.5 532,-270.5 532,-276.5 526,-282.5 520,-282.5 520,-282.5 444,-282.5 444,-282.5 438,-282.5 432,-276.5 432,-270.5 432,-270.5 432,-258.5 432,-258.5 432,-252.5 438,-246.5 444,-246.5"/>
<text text-anchor="middle" x="482" y="-260.8" font-family="Times,serif" font-size="14.00">runAtSpeedFor</text>
</g>
<!-- command&#45;&gt;runAtSpeedFor -->
<g id="edge5" class="edge">
<title>command&#45;&gt;runAtSpeedFor</title>
<path fill="none" stroke="black" d="M398.65,-365.08C414.09,-346.63 441.63,-313.73 460.81,-290.82"/>
<polygon fill="black" stroke="black" points="463.72,-292.79 467.46,-282.88 458.35,-288.3 463.72,-292.79"/>
</g>
<!-- runAtSpeedTo -->
<g id="node7" class="node">
<title>runAtSpeedTo</title>
<path fill="none" stroke="black" d="M158,-246.5C158,-246.5 230,-246.5 230,-246.5 236,-246.5 242,-252.5 242,-258.5 242,-258.5 242,-270.5 242,-270.5 242,-276.5 236,-282.5 230,-282.5 230,-282.5 158,-282.5 158,-282.5 152,-282.5 146,-276.5 146,-270.5 146,-270.5 146,-258.5 146,-258.5 146,-252.5 152,-246.5 158,-246.5"/>
<text text-anchor="middle" x="194" y="-260.8" font-family="Times,serif" font-size="14.00">runAtSpeedTo</text>
</g>
<!-- command&#45;&gt;runAtSpeedTo -->
<g id="edge6" class="edge">
<title>command&#45;&gt;runAtSpeedTo</title>
<path fill="none" stroke="black" d="M367.07,-367.28C335.29,-348.59 272.56,-311.7 232,-287.85"/>
<polygon fill="black" stroke="black" points="233.59,-284.72 223.2,-282.67 230.04,-290.76 233.59,-284.72"/>
</g>
<!-- runAtSpeedDistance -->
<g id="node8" class="node">
<title>runAtSpeedDistance</title>
<path fill="none" stroke="black" d="M12,-246.5C12,-246.5 116,-246.5 116,-246.5 122,-246.5 128,-252.5 128,-258.5 128,-258.5 128,-270.5 128,-270.5 128,-276.5 122,-282.5 116,-282.5 116,-282.5 12,-282.5 12,-282.5 6,-282.5 0,-276.5 0,-270.5 0,-270.5 0,-258.5 0,-258.5 0,-252.5 6,-246.5 12,-246.5"/>
<text text-anchor="middle" x="64" y="-260.8" font-family="Times,serif" font-size="14.00">runAtSpeedDistance</text>
</g>
<!-- command&#45;&gt;runAtSpeedDistance -->
<g id="edge7" class="edge">
<title>command&#45;&gt;runAtSpeedDistance</title>
<path fill="none" stroke="black" d="M359.74,-369.42C307.52,-351.07 192.34,-310.6 122.13,-285.93"/>
<polygon fill="black" stroke="black" points="123.12,-282.57 112.53,-282.55 120.8,-289.17 123.12,-282.57"/>
</g>
<!-- runningToTarget -->
<g id="node11" class="node">
<title>runningToTarget</title>
<ellipse fill="lightgreen" stroke="transparent" cx="301" cy="-149" rx="70.69" ry="18"/>
<text text-anchor="middle" x="301" y="-145.3" font-family="Times,serif" font-size="14.00">runningToTarget</text>
</g>
<!-- runTo&#45;&gt;runningToTarget -->
<g id="edge8" class="edge">
<title>runTo&#45;&gt;runningToTarget</title>
<path fill="none" stroke="black" d="M373.94,-246.26C359.59,-227.32 336.4,-196.72 320.03,-175.11"/>
<polygon fill="black" stroke="black" points="322.73,-172.89 313.9,-167.03 317.15,-177.11 322.73,-172.89"/>
</g>
<!-- runDistance&#45;&gt;runningToTarget -->
<g id="edge9" class="edge">
<title>runDistance&#45;&gt;runningToTarget</title>
<path fill="none" stroke="black" d="M301,-246.26C301,-227.91 301,-198.6 301,-177.14"/>
<polygon fill="black" stroke="black" points="304.5,-177.03 301,-167.03 297.5,-177.03 304.5,-177.03"/>
</g>
<!-- constantSpeed -->
<g id="node13" class="node">
<title>constantSpeed</title>
<ellipse fill="lightgreen" stroke="transparent" cx="856" cy="-149" rx="61.99" ry="18"/>
<text text-anchor="middle" x="856" y="-145.3" font-family="Times,serif" font-size="14.00">constantSpeed</text>
</g>
<!-- runAtSpeed&#45;&gt;constantSpeed -->
<g id="edge10" class="edge">
<title>runAtSpeed&#45;&gt;constantSpeed</title>
<path fill="none" stroke="black" d="M797.48,-246.26C808.89,-227.49 827.27,-197.26 840.39,-175.69"/>
<polygon fill="black" stroke="black" points="843.44,-177.39 845.65,-167.03 837.46,-173.76 843.44,-177.39"/>
</g>
<!-- constantSpeedUntil -->
<g id="node12" class="node">
<title>constantSpeedUntil</title>
<ellipse fill="lightgreen" stroke="transparent" cx="583" cy="-149" rx="79.09" ry="18"/>
<text text-anchor="middle" x="583" y="-145.3" font-family="Times,serif" font-size="14.00">constantSpeedUntil</text>
</g>
<!-- runAtSpeedUntil&#45;&gt;constantSpeedUntil -->
<g id="edge11" class="edge">
<title>runAtSpeedUntil&#45;&gt;constantSpeedUntil</title>
<path fill="none" stroke="black" d="M601.66,-246.26C598.08,-227.82 592.37,-198.33 588.2,-176.85"/>
<polygon fill="black" stroke="black" points="591.64,-176.18 586.3,-167.03 584.77,-177.51 591.64,-176.18"/>
</g>
<!-- runAtSpeedFor&#45;&gt;constantSpeedUntil -->
<g id="edge12" class="edge">
<title>runAtSpeedFor&#45;&gt;constantSpeedUntil</title>
<path fill="none" stroke="black" d="M497.34,-246.26C514.35,-227.15 541.91,-196.17 561.16,-174.54"/>
<polygon fill="black" stroke="black" points="563.81,-176.83 567.85,-167.03 558.58,-172.17 563.81,-176.83"/>
</g>
<!-- constantSpeedTo -->
<g id="node14" class="node">
<title>constantSpeedTo</title>
<ellipse fill="lightgreen" stroke="transparent" cx="141" cy="-149" rx="71.49" ry="18"/>
<text text-anchor="middle" x="141" y="-145.3" font-family="Times,serif" font-size="14.00">constantSpeedTo</text>
</g>
<!-- runAtSpeedTo&#45;&gt;constantSpeedTo -->
<g id="edge13" class="edge">
<title>runAtSpeedTo&#45;&gt;constantSpeedTo</title>
<path fill="none" stroke="black" d="M185.95,-246.26C177.26,-227.65 163.32,-197.8 153.26,-176.27"/>
<polygon fill="black" stroke="black" points="156.35,-174.61 148.95,-167.03 150.01,-177.57 156.35,-174.61"/>
</g>
<!-- runAtSpeedDistance&#45;&gt;constantSpeedTo -->
<g id="edge14" class="edge">
<title>runAtSpeedDistance&#45;&gt;constantSpeedTo</title>
<path fill="none" stroke="black" d="M75.69,-246.26C88.49,-227.4 109.12,-196.99 123.77,-175.4"/>
<polygon fill="black" stroke="black" points="126.73,-177.27 129.45,-167.03 120.94,-173.34 126.73,-177.27"/>
</g>
<!-- toEndStop -->
<g id="node9" class="node">
<title>toEndStop</title>
<ellipse fill="lightgreen" stroke="transparent" cx="438" cy="-149" rx="48.19" ry="18"/>
<text text-anchor="middle" x="438" y="-145.3" font-family="Times,serif" font-size="14.00">toEndStop</text>
</g>
<!-- endStopReached -->
<g id="node17" class="node">
<title>endStopReached</title>
<polygon fill="lightblue" stroke="transparent" points="356.5,-52 249.5,-52 249.5,-16 356.5,-16 356.5,-52"/>
<text text-anchor="middle" x="303" y="-30.3" font-family="Times,serif" font-size="14.00">endStopReached</text>
</g>
<!-- toEndStop&#45;&gt;endStopReached -->
<g id="edge18" class="edge">
<title>toEndStop&#45;&gt;endStopReached</title>
<path fill="none" stroke="black" d="M419.23,-132.29C396.38,-113.16 357.58,-80.69 331.15,-58.56"/>
<polygon fill="black" stroke="black" points="333.29,-55.79 323.38,-52.05 328.8,-61.16 333.29,-55.79"/>
</g>
<!-- stoppedByEndStop -->
<g id="node21" class="node">
<title>stoppedByEndStop</title>
<polygon fill="pink" stroke="transparent" points="813.25,-26.54 813.25,-41.46 763.31,-52 692.69,-52 642.75,-41.46 642.75,-26.54 692.69,-16 763.31,-16 813.25,-26.54"/>
<text text-anchor="middle" x="728" y="-30.3" font-family="Times,serif" font-size="14.00">stoppedByEndStop</text>
</g>
<!-- toEndStop&#45;&gt;stoppedByEndStop -->
<g id="edge21" class="edge">
<title>toEndStop&#45;&gt;stoppedByEndStop</title>
<path fill="none" stroke="#eea9b8" stroke-dasharray="5,2" d="M467,-134.43C475.89,-130.5 485.76,-126.37 495,-123 554.19,-101.41 572.32,-105.95 631,-83 650.05,-75.55 670.43,-65.76 687.57,-56.96"/>
<polygon fill="#eea9b8" stroke="#eea9b8" points="689.48,-59.92 696.73,-52.2 686.25,-53.71 689.48,-59.92"/>
</g>
<!-- stoppedByPositionLimit -->
<g id="node22" class="node">
<title>stoppedByPositionLimit</title>
<polygon fill="pink" stroke="transparent" points="1192.64,-26.54 1192.64,-41.46 1131.34,-52 1044.66,-52 983.36,-41.46 983.36,-26.54 1044.66,-16 1131.34,-16 1192.64,-26.54"/>
<text text-anchor="middle" x="1088" y="-30.3" font-family="Times,serif" font-size="14.00">stoppedByPositionLimit</text>
</g>
<!-- toEndStop&#45;&gt;stoppedByPositionLimit -->
<g id="edge22" class="edge">
<title>toEndStop&#45;&gt;stoppedByPositionLimit</title>
<path fill="none" stroke="#eea9b8" stroke-dasharray="5,2" d="M464.89,-134.03C474.2,-129.79 484.84,-125.58 495,-123 702.08,-70.49 766.54,-133.97 974,-83 998.6,-76.96 1024.72,-66.29 1045.75,-56.55"/>
<polygon fill="#eea9b8" stroke="#eea9b8" points="1047.49,-59.6 1055.03,-52.16 1044.5,-53.27 1047.49,-59.6"/>
</g>
<!-- haltedOnError -->
<g id="node23" class="node">
<title>haltedOnError</title>
<polygon fill="pink" stroke="transparent" points="964.66,-26.54 964.66,-41.46 925.61,-52 870.39,-52 831.34,-41.46 831.34,-26.54 870.39,-16 925.61,-16 964.66,-26.54"/>
<text text-anchor="middle" x="898" y="-30.3" font-family="Times,serif" font-size="14.00">haltedOnError</text>
</g>
<!-- toEndStop&#45;&gt;haltedOnError -->
<g id="edge23" class="edge">
<title>toEndStop&#45;&gt;haltedOnError</title>
<path fill="none" stroke="#eea9b8" stroke-dasharray="5,2" d="M465.24,-134.12C474.48,-129.94 485,-125.74 495,-123 636.21,-84.3 684.09,-132.18 822,-83 838.4,-77.15 854.94,-67.29 868.38,-58.01"/>
<polygon fill="#eea9b8" stroke="#eea9b8" points="870.63,-60.71 876.74,-52.05 866.56,-55.01 870.63,-60.71"/>
</g>
<!-- calibrating -->
<g id="node10" class="node">
<title>calibrating</title>
<ellipse fill="lightgreen" stroke="transparent" cx="728" cy="-149" rx="48.19" ry="18"/>
<text text-anchor="middle" x="728" y="-145.3" font-family="Times,serif" font-size="14.00">calibrating</text>
</g>
<!-- calibrationFinished -->
<g id="node18" class="node">
<title>calibrationFinished</title>
<polygon fill="lightblue" stroke="transparent" points="618.5,-52 497.5,-52 497.5,-16 618.5,-16 618.5,-52"/>
<text text-anchor="middle" x="558" y="-30.3" font-family="Times,serif" font-size="14.00">calibrationFinished</text>
</g>
<!-- calibrating&#45;&gt;calibrationFinished -->
<g id="edge19" class="edge">
<title>calibrating&#45;&gt;calibrationFinished</title>
<path fill="none" stroke="black" d="M705.43,-132.99C676.49,-113.76 626.04,-80.23 592.34,-57.82"/>
<polygon fill="black" stroke="black" points="593.99,-54.72 583.73,-52.1 590.12,-60.55 593.99,-54.72"/>
</g>
<!-- calibrating&#45;&gt;stoppedByEndStop -->
<g id="edge24" class="edge">
<title>calibrating&#45;&gt;stoppedByEndStop</title>
<path fill="none" stroke="#eea9b8" stroke-dasharray="5,2" d="M728,-130.84C728,-112.67 728,-83.72 728,-62.39"/>
<polygon fill="#eea9b8" stroke="#eea9b8" points="731.5,-62.32 728,-52.32 724.5,-62.32 731.5,-62.32"/>
</g>
<!-- calibrating&#45;&gt;stoppedByPositionLimit -->
<g id="edge25" class="edge">
<title>calibrating&#45;&gt;stoppedByPositionLimit</title>
<path fill="none" stroke="#eea9b8" stroke-dasharray="5,2" d="M756.26,-134.24C765.29,-130.21 775.43,-126.07 785,-123 866.74,-96.73 892.06,-108.66 974,-83 997.37,-75.68 1022.54,-65.36 1043.27,-56.16"/>
<polygon fill="#eea9b8" stroke="#eea9b8" points="1044.77,-59.32 1052.46,-52.03 1041.9,-52.94 1044.77,-59.32"/>
</g>
<!-- calibrating&#45;&gt;haltedOnError -->
<g id="edge26" class="edge">
<title>calibrating&#45;&gt;haltedOnError</title>
<path fill="none" stroke="#eea9b8" stroke-dasharray="5,2" d="M750.57,-132.99C779.51,-113.76 829.96,-80.23 863.66,-57.82"/>
<polygon fill="#eea9b8" stroke="#eea9b8" points="865.88,-60.55 872.27,-52.1 862.01,-54.72 865.88,-60.55"/>
</g>
<!-- targetReached -->
<g id="node15" class="node">
<title>targetReached</title>
<polygon fill="lightblue" stroke="transparent" points="231,-52 137,-52 137,-16 231,-16 231,-52"/>
<text text-anchor="middle" x="184" y="-30.3" font-family="Times,serif" font-size="14.00">targetReached</text>
</g>
<!-- runningToTarget&#45;&gt;targetReached -->
<g id="edge15" class="edge">
<title>runningToTarget&#45;&gt;targetReached</title>
<path fill="none" stroke="black" d="M283.74,-131.33C263.98,-112.24 231.45,-80.82 208.93,-59.08"/>
<polygon fill="black" stroke="black" points="211.34,-56.54 201.72,-52.11 206.48,-61.58 211.34,-56.54"/>
</g>
<!-- runningToTarget&#45;&gt;stoppedByEndStop -->
<g id="edge27" class="edge">
<title>runningToTarget&#45;&gt;stoppedByEndStop</title>
<path fill="none" stroke="#eea9b8" stroke-dasharray="5,2" d="M341.38,-134.14C353.97,-130.15 367.97,-126.06 381,-123 490.54,-97.26 523.81,-117.23 631,-83 651.42,-76.48 672.91,-66.23 690.46,-56.88"/>
<polygon fill="#eea9b8" stroke="#eea9b8" points="692.14,-59.95 699.25,-52.1 688.79,-53.8 692.14,-59.95"/>
</g>
<!-- runningToTarget&#45;&gt;stoppedByPositionLimit -->
<g id="edge28" class="edge">
<title>runningToTarget&#45;&gt;stoppedByPositionLimit</title>
<path fill="none" stroke="#eea9b8" stroke-dasharray="5,2" d="M340,-133.79C352.89,-129.64 367.41,-125.54 381,-123 640.64,-74.38 716.98,-143.98 974,-83 998.82,-77.11 1025.16,-66.35 1046.26,-56.51"/>
<polygon fill="#eea9b8" stroke="#eea9b8" points="1048.04,-59.54 1055.56,-52.07 1045.03,-53.22 1048.04,-59.54"/>
</g>
<!-- runningToTarget&#45;&gt;haltedOnError -->
<g id="edge29" class="edge">
<title>runningToTarget&#45;&gt;haltedOnError</title>
<path fill="none" stroke="#eea9b8" stroke-dasharray="5,2" d="M340.04,-133.98C352.93,-129.84 367.44,-125.7 381,-123 574.01,-84.54 635.62,-146.19 822,-83 838.61,-77.37 855.28,-67.43 868.76,-58.05"/>
<polygon fill="#eea9b8" stroke="#eea9b8" points="871.06,-60.71 877.13,-52.02 866.97,-55.03 871.06,-60.71"/>
</g>
<!-- timeoutReached -->
<g id="node16" class="node">
<title>timeoutReached</title>
<polygon fill="lightblue" stroke="transparent" points="479.5,-52 374.5,-52 374.5,-16 479.5,-16 479.5,-52"/>
<text text-anchor="middle" x="427" y="-30.3" font-family="Times,serif" font-size="14.00">timeoutReached</text>
</g>
<!-- constantSpeedUntil&#45;&gt;timeoutReached -->
<g id="edge17" class="edge">
<title>constantSpeedUntil&#45;&gt;timeoutReached</title>
<path fill="none" stroke="black" d="M558.8,-131.79C539.66,-118.85 512.37,-100.11 489,-83 478.36,-75.21 466.89,-66.44 456.75,-58.55"/>
<polygon fill="black" stroke="black" points="458.62,-55.57 448.59,-52.17 454.31,-61.09 458.62,-55.57"/>
</g>
<!-- constantSpeedUntil&#45;&gt;stoppedByEndStop -->
<g id="edge30" class="edge">
<title>constantSpeedUntil&#45;&gt;stoppedByEndStop</title>
<path fill="none" stroke="#eea9b8" stroke-dasharray="5,2" d="M604.08,-131.57C628.82,-112.29 670.01,-80.2 698.05,-58.34"/>
<polygon fill="#eea9b8" stroke="#eea9b8" points="700.2,-61.1 705.94,-52.19 695.9,-55.58 700.2,-61.1"/>
</g>
<!-- constantSpeedUntil&#45;&gt;stoppedByPositionLimit -->
<g id="edge31" class="edge">
<title>constantSpeedUntil&#45;&gt;stoppedByPositionLimit</title>
<path fill="none" stroke="#eea9b8" stroke-dasharray="5,2" d="M627.46,-134.01C641.3,-130.02 656.69,-125.96 671,-123 804.02,-95.48 842.9,-118.56 974,-83 998.08,-76.47 1023.79,-65.97 1044.69,-56.46"/>
<polygon fill="#eea9b8" stroke="#eea9b8" points="1046.33,-59.56 1053.93,-52.18 1043.38,-53.21 1046.33,-59.56"/>
</g>
<!-- constantSpeedUntil&#45;&gt;haltedOnError -->
<g id="edge32" class="edge">
<title>constantSpeedUntil&#45;&gt;haltedOnError</title>
<path fill="none" stroke="#eea9b8" stroke-dasharray="5,2" d="M630,-134.48C643.24,-130.72 657.68,-126.66 671,-123 737.95,-104.62 758.36,-110.75 822,-83 837.49,-76.25 853.47,-66.62 866.76,-57.76"/>
<polygon fill="#eea9b8" stroke="#eea9b8" points="868.79,-60.61 875.07,-52.08 864.84,-54.83 868.79,-60.61"/>
</g>
<!-- constantSpeed&#45;&gt;constantSpeed -->
<g id="edge20" class="edge">
<title>constantSpeed&#45;&gt;constantSpeed:s</title>
<path fill="none" stroke="black" d="M881.31,-165.51C907.07,-174.85 935.74,-167.54 935.74,-140 935.74,-105.87 891.71,-102.8 863.75,-124.02"/>
<polygon fill="black" stroke="black" points="861.09,-121.71 856,-131 865.77,-126.91 861.09,-121.71"/>
</g>
<!-- constantSpeed&#45;&gt;stoppedByEndStop -->
<g id="edge33" class="edge">
<title>constantSpeed&#45;&gt;stoppedByEndStop</title>
<path fill="none" stroke="#eea9b8" stroke-dasharray="5,2" d="M837.66,-131.81C816.08,-112.76 780.04,-80.94 755.2,-59.02"/>
<polygon fill="#eea9b8" stroke="#eea9b8" points="757.38,-56.27 747.56,-52.27 752.74,-61.51 757.38,-56.27"/>
</g>
<!-- constantSpeed&#45;&gt;stoppedByPositionLimit -->
<g id="edge34" class="edge">
<title>constantSpeed&#45;&gt;stoppedByPositionLimit</title>
<path fill="none" stroke="#eea9b8" stroke-dasharray="5,2" d="M886.33,-133.23C926.43,-113.69 997.4,-79.13 1043.56,-56.65"/>
<polygon fill="#eea9b8" stroke="#eea9b8" points="1045.27,-59.71 1052.73,-52.18 1042.21,-53.41 1045.27,-59.71"/>
</g>
<!-- constantSpeed&#45;&gt;haltedOnError -->
<g id="edge35" class="edge">
<title>constantSpeed&#45;&gt;haltedOnError</title>
<path fill="none" stroke="#eea9b8" stroke-dasharray="5,2" d="M862.38,-130.84C869.19,-112.5 880.09,-83.2 888.03,-61.81"/>
<polygon fill="#eea9b8" stroke="#eea9b8" points="891.36,-62.92 891.56,-52.32 884.8,-60.48 891.36,-62.92"/>
</g>
<!-- constantSpeedTo&#45;&gt;targetReached -->
<g id="edge16" class="edge">
<title>constantSpeedTo&#45;&gt;targetReached</title>
<path fill="none" stroke="black" d="M147.53,-130.84C154.51,-112.5 165.66,-83.2 173.8,-61.81"/>
<polygon fill="black" stroke="black" points="177.12,-62.91 177.41,-52.32 170.58,-60.43 177.12,-62.91"/>
</g>
<!-- off -->
<g id="node19" class="node">
<title>off</title>
<polygon fill="lightblue" stroke="transparent" points="897,-398 843,-398 843,-362 897,-362 897,-398"/>
<text text-anchor="middle" x="870" y="-376.3" font-family="Times,serif" font-size="14.00">off</text>
</g>
<!-- stopped -->
<g id="node20" class="node">
<title>stopped</title>
<polygon fill="lightblue" stroke="transparent" points="824.5,-398 765.5,-398 765.5,-362 824.5,-362 824.5,-398"/>
<text text-anchor="middle" x="795" y="-376.3" font-family="Times,serif" font-size="14.00">stopped</text>
</g>
</g>
</svg>
