<?xml version="1.0" encoding="UTF-8" standalone="no"?>
<!DOCTYPE svg PUBLIC "-//W3C//DTD SVG 1.1//EN"
 "http://www.w3.org/Graphics/SVG/1.1/DTD/svg11.dtd">
<!-- Generated by graphviz version 2.43.0 (0)
 -->
<!-- Title: List of Messages Pages: 1 -->
<svg width="285pt" height="182pt"
 viewBox="0.00 0.00 285.00 182.00" xmlns="http://www.w3.org/2000/svg" xmlns:xlink="http://www.w3.org/1999/xlink">
<g id="graph0" class="graph" transform="scale(1 1) rotate(0) translate(4 178)">
<title>List of Messages</title>
<polygon fill="white" stroke="transparent" points="-4,4 -4,-178 281,-178 281,4 -4,4"/>
<!-- Node4 -->
<g id="node1" class="node">
<title>Node4</title>
<g id="a_node1"><a xlink:href="group___encoder_messages.html" target="_top" xlink:title=" ">
<polygon fill="white" stroke="black" points="253.5,-174 151.5,-174 151.5,-144 253.5,-144 253.5,-174"/>
<text text-anchor="start" x="159.5" y="-162" font-family="Helvetica,sans-Serif" font-size="10.00">Messages for class</text>
<text text-anchor="middle" x="202.5" y="-151" font-family="Helvetica,sans-Serif" font-size="10.00"> QPID_Encoder</text>
</a>
</g>
</g>
<!-- Node3 -->
<g id="node2" class="node">
<title>Node3</title>
<g id="a_node2"><a xlink:href="group__drv8833_messages.html" target="_top" xlink:title=" ">
<polygon fill="white" stroke="black" points="277,-126 128,-126 128,-96 277,-96 277,-126"/>
<text text-anchor="start" x="136" y="-114" font-family="Helvetica,sans-Serif" font-size="10.00">Messages for class</text>
<text text-anchor="middle" x="202.5" y="-103" font-family="Helvetica,sans-Serif" font-size="10.00"> QPID_MotorDriver_DRV8833</text>
</a>
</g>
</g>
<!-- Node5 -->
<g id="node3" class="node">
<title>Node5</title>
<g id="a_node3"><a xlink:href="group__digital_endstop_messages.html" target="_top" xlink:title=" ">
<polygon fill="white" stroke="black" points="253.5,-78 151.5,-78 151.5,-48 253.5,-48 253.5,-78"/>
<text text-anchor="start" x="159.5" y="-66" font-family="Helvetica,sans-Serif" font-size="10.00">Messages for class</text>
<text text-anchor="middle" x="202.5" y="-55" font-family="Helvetica,sans-Serif" font-size="10.00"> Endstop_Digital</text>
</a>
</g>
</g>
<!-- Node1 -->
<g id="node4" class="node">
<title>Node1</title>
<g id="a_node4"><a xlink:title="These messages can be processed by processMessage(). The message system can be used to implement any ...">
<polygon fill="#bfbfbf" stroke="black" points="92,-96.5 0,-96.5 0,-77.5 92,-77.5 92,-96.5"/>
<text text-anchor="middle" x="46" y="-84.5" font-family="Helvetica,sans-Serif" font-size="10.00">List of Messages</text>
</a>
</g>
</g>
<!-- Node1&#45;&gt;Node4 -->
<g id="edge3" class="edge">
<title>Node1&#45;&gt;Node4</title>
<path fill="none" stroke="black" d="M69.69,-102.28C85.54,-112.49 107.46,-125.7 128,-135 135.34,-138.32 143.27,-141.41 151.12,-144.18"/>
<polygon fill="black" stroke="black" points="71.4,-99.21 61.12,-96.67 67.57,-105.07 71.4,-99.21"/>
</g>
<!-- Node1&#45;&gt;Node3 -->
<g id="edge2" class="edge">
<title>Node1&#45;&gt;Node3</title>
<path fill="none" stroke="black" d="M102.08,-95.56C110.44,-96.85 119.18,-98.21 127.85,-99.56"/>
<polygon fill="black" stroke="black" points="102.52,-92.08 92.1,-94.01 101.45,-99 102.52,-92.08"/>
</g>
<!-- Node1&#45;&gt;Node5 -->
<g id="edge4" class="edge">
<title>Node1&#45;&gt;Node5</title>
<path fill="none" stroke="black" d="M102.4,-78.39C118.42,-75.91 135.8,-73.21 151.47,-70.77"/>
<polygon fill="black" stroke="black" points="101.45,-75 92.1,-79.99 102.52,-81.92 101.45,-75"/>
</g>
<!-- Node2 -->
<g id="node5" class="node">
<title>Node2</title>
<g id="a_node5"><a xlink:href="group__esp32_encoder_messages.html" target="_top" xlink:title=" ">
<polygon fill="white" stroke="black" points="263.5,-30 141.5,-30 141.5,0 263.5,0 263.5,-30"/>
<text text-anchor="start" x="149.5" y="-18" font-family="Helvetica,sans-Serif" font-size="10.00">Messages for class</text>
<text text-anchor="middle" x="202.5" y="-7" font-family="Helvetica,sans-Serif" font-size="10.00"> QPID_Encoder_ESP32</text>
</a>
</g>
</g>
<!-- Node1&#45;&gt;Node2 -->
<g id="edge1" class="edge">
<title>Node1&#45;&gt;Node2</title>
<path fill="none" stroke="black" d="M69.69,-71.72C85.54,-61.51 107.46,-48.3 128,-39 135.09,-35.79 142.74,-32.8 150.34,-30.1"/>
<polygon fill="black" stroke="black" points="67.57,-68.93 61.12,-77.33 71.4,-74.79 67.57,-68.93"/>
</g>
</g>
</svg>
